<svg width="40" height="40" viewBox="0 0 40 40" fill="none" xmlns="http://www.w3.org/2000/svg">
<path fill-rule="evenodd" clip-rule="evenodd" d="M31.2054 37.2893C30.9924 37.8304 30.6684 38.325 30.2477 38.7447C29.4422 39.5482 28.3484 40 27.2099 40H4.2963C3.1578 40 2.06402 39.5482 1.25845 38.7447C0.452887 37.9411 0 36.8518 0 35.7143V4.28571C0 3.14823 0.452887 2.05893 1.25845 1.25535C2.06402 0.451771 3.15776 0 4.2963 0H27.2099C28.3484 0 29.4422 0.451771 30.2477 1.25535C31.0533 2.05893 31.5062 3.14823 31.5062 4.28571V11.4324C29.1128 9.63596 26.1356 8.57166 22.9136 8.57166C20.948 8.57166 19.0736 8.96808 17.3677 9.68415C17.6935 9.42165 17.9012 9.02164 17.9012 8.57166C17.9012 7.78236 17.2585 7.14309 16.4691 7.14309H7.16084C6.37139 7.14309 5.72874 7.78236 5.72874 8.57166C5.72874 9.36095 6.37139 10.0002 7.16084 10.0002H16.4691C16.5514 10.0002 16.632 9.99309 16.7108 9.98059C15.2053 10.7038 13.8466 11.6824 12.6902 12.8574H7.16076C6.37132 12.8574 5.72867 13.4967 5.72867 14.286C5.72867 15.0753 6.37132 15.7145 7.16076 15.7145H10.5119C9.99094 16.6109 9.56669 17.5681 9.24983 18.5717H7.16076C6.37132 18.5717 5.72867 19.2109 5.72867 20.0002C5.72867 20.7895 6.37132 21.4288 7.16076 21.4288H8.66267C8.61613 21.8985 8.59286 22.3753 8.59286 22.8574C8.59286 23.3395 8.61613 23.8163 8.66267 24.286H7.16076C6.37132 24.286 5.72867 24.9252 5.72867 25.7145C5.72867 26.5038 6.37132 27.1431 7.16076 27.1431H9.24983C9.56669 28.1467 9.99094 29.1038 10.5119 30.0002H7.16076C6.37132 30.0002 5.72867 30.6395 5.72867 31.4288C5.72867 32.2181 6.37132 32.8574 7.16076 32.8574H12.6902C15.2894 35.502 18.9108 37.1431 22.9139 37.1431C25.2768 37.1431 27.5057 36.5717 29.4713 35.5592L31.2054 37.2893ZM33.9551 31.9499L39.5811 37.5605C40.1396 38.1177 40.1396 39.0248 39.5811 39.5819C39.0208 40.1391 38.1132 40.1391 37.5547 39.5819L31.9195 33.9606C32.6642 33.3606 33.3462 32.6856 33.9549 31.9499L33.9551 31.9499ZM22.9134 11.4283C29.236 11.4283 34.3702 16.5499 34.3702 22.8569C34.3702 29.164 29.236 34.2855 22.9134 34.2855C16.5908 34.2855 11.4566 29.164 11.4566 22.8569C11.4566 16.5499 16.5908 11.4283 22.9134 11.4283ZM18.1428 24.4927L21.2737 27.6177C21.5601 27.9034 21.9539 28.0534 22.3585 28.0338C22.7631 28.0141 23.139 27.8249 23.395 27.5106L29.034 20.6374C29.5353 20.0267 29.444 19.125 28.8335 18.6267C28.2213 18.1267 27.3173 18.2178 26.8179 18.8267L22.1817 24.482L20.166 22.4713C19.6075 21.9141 18.7017 21.9141 18.1432 22.4713C17.5829 23.0302 17.5829 23.9338 18.1432 24.4927L18.1428 24.4927Z" fill="#D6DE23"/>
</svg>
