<svg width="40" height="40" viewBox="0 0 40 40" fill="none" xmlns="http://www.w3.org/2000/svg">
<g clip-path="url(#clip0_131_1622)">
<path fill-rule="evenodd" clip-rule="evenodd" d="M39.9996 19.3468L22.2044 30.1911C20.8474 31.0182 19.1529 31.0182 17.7959 30.1911L6.09192e-05 19.3468V35.647C6.09192e-05 38.0514 1.91877 40 4.28596 40H35.714C38.0812 40 39.9997 38.0514 39.9997 35.647L39.9996 19.3468ZM28.5711 22.9279V18.2353C28.5711 17.4342 27.931 16.7843 27.1425 16.7843H12.8569C12.0684 16.7843 11.4283 17.4342 11.4283 18.2353V22.9279L19.2655 27.703C19.7168 27.9788 20.2825 27.9788 20.7355 27.703L28.5711 22.9279ZM0 15.9629L8.57157 21.1866V18.2353C8.57157 15.831 10.49 13.8824 12.8572 13.8824H27.1428C29.51 13.8824 31.4284 15.831 31.4284 18.2353V21.1866L40 15.9629V15.4028C40 13.9735 39.31 12.6372 38.1543 11.8233L22.4406 0.773832C20.972 -0.257944 19.029 -0.257944 17.5604 0.773832L1.84606 11.8233C0.690565 12.6372 0.000363669 13.9735 0.000363669 15.4028L0 15.9629Z" fill="#D6DE23"/>
</g>
<defs>
<clipPath id="clip0_131_1622">
<rect width="40" height="40" fill="white"/>
</clipPath>
</defs>
</svg>
