<svg width="512" height="512" viewBox="0 0 512 512" fill="none" xmlns="http://www.w3.org/2000/svg">
<path d="M329.691 59.0878C281.046 62.6315 235.986 87.4373 196.559 116.799C163.276 141.605 129.481 166.917 96.7101 192.735C68.0356 216.022 32.7045 239.309 12.7347 270.19C-9.79526 304.108 -0.0664064 338.533 23.4877 368.907C29.1202 376.501 34.7527 384.601 40.3852 392.194C54.7224 411.938 69.0597 432.187 85.9572 447.881C109.511 465.599 133.065 474.205 162.764 471.674C196.047 468.636 219.601 449.906 246.739 432.187C251.86 428.643 257.492 425.1 264.149 423.581C286.679 418.519 309.209 421.05 332.251 423.581C352.221 426.112 372.702 428.137 392.672 425.606C431.076 420.037 467.431 398.269 488.937 365.87C503.786 344.101 512.491 317.777 511.979 290.946C511.467 262.597 496.105 244.878 487.913 219.06C479.208 192.229 490.985 164.892 480.232 138.061C459.238 86.931 394.72 58.5815 340.444 58.5815C336.859 58.5815 333.275 59.0878 329.691 59.0878Z" fill="#D6DE23"/>
<path d="M426.522 136.453C399.319 120.748 389.999 85.9633 405.705 58.7604C421.41 31.5575 456.194 22.2371 483.397 37.9427C510.6 53.6483 519.921 88.4325 504.215 115.635C488.509 142.838 453.725 152.159 426.522 136.453Z" fill="url(#paint0_linear_219_2740)"/>
<path d="M206.579 19.3921C221.474 27.9917 226.578 47.0376 217.978 61.9325C209.379 76.8273 190.333 81.9306 175.438 73.3311C160.543 64.7316 155.44 45.6856 164.039 30.7908C172.639 15.8959 191.685 10.7926 206.579 19.3921Z" fill="url(#paint1_linear_219_2740)"/>
<path d="M127.588 172C106.291 172.021 89.017 189.233 89.038 210.53L89 394.536C88.992 400.332 93.7047 404.884 99.5005 404.892L411.73 404.927C417.526 404.935 422.367 400.209 422.375 394.413L422.276 210.558C422.406 189.398 405.195 172.124 383.898 172.145L127.588 172Z" fill="url(#paint2_linear_219_2740)"/>
<path d="M217.06 401.323L217.066 418.687C217.055 425.113 211.869 430.295 205.443 430.285L200.869 430.321C193.455 430.296 186.829 435.849 186.421 443.255C186.025 451.169 192.299 457.721 200.086 457.691L311.273 457.71C319.096 457.706 325.39 451.184 324.958 443.265C324.573 435.879 317.939 430.334 310.525 430.31L305.915 430.319C299.489 430.308 294.307 425.122 294.317 418.696L294.312 401.333L217.06 401.323Z" fill="url(#paint3_linear_219_2740)"/>
<path d="M144.118 187.189C125.582 187.073 110.631 202.235 110.752 220.656L110.509 389.739L400.623 389.739L400.867 220.656C400.745 202.234 385.822 187.168 367.285 187.052L144.118 187.189Z" fill="url(#paint4_linear_219_2740)"/>
<path d="M144.118 187.189C125.658 187.199 110.565 202.156 110.661 220.747L110.595 389.811L397.721 389.75L400.751 388.333L400.711 358.588L206.451 187.133L144.118 187.189Z" fill="url(#paint5_linear_219_2740)"/>
<path d="M89.1607 350.207L89.0419 394.291C88.9361 400.179 93.7328 404.808 99.6204 404.914L411.847 404.886C417.734 404.992 422.364 400.195 422.47 394.307L422.255 350.048L89.1607 350.207Z" fill="url(#paint6_linear_219_2740)"/>
<path d="M264.166 382.208C264.166 386.886 260.372 390.68 255.694 390.68C251.016 390.68 247.221 386.886 247.221 382.208C247.221 377.529 251.016 373.735 255.694 373.735C260.372 373.735 264.166 377.529 264.166 382.208Z" fill="#FBFBEF"/>
<path opacity="0.3" d="M294 405V412.528C262.586 410.36 232.827 411.832 217 413V405H294Z" fill="#133D3F"/>
<path d="M349.538 296.91V355.973C349.538 358.84 345.693 360.413 343.142 358.596L302.637 329.831H302.601L255.769 331.23L249.653 331.056L208.868 329.831L208.624 330.006L168.395 358.596C165.845 360.413 162 358.84 162 355.973V296.91C162 294.464 163.468 292.157 165.881 290.827L192.338 276.288C192.44 276.255 192.545 276.186 192.651 276.081C194.05 275.278 195.169 274.264 195.972 273.076C196.706 272.026 197.229 270.837 197.44 269.58C197.614 268.81 197.647 267.97 197.578 267.134C193.246 216.178 209.882 178.257 226.448 153.896C228.894 150.331 231.339 147.046 233.716 144.041C241.372 134.361 248.291 127.722 252.273 124.259C254.196 122.584 257.342 122.584 259.265 124.259C264.472 128.805 274.748 138.729 285.057 153.896C301.623 178.257 318.259 216.178 313.924 267.134C313.818 268.602 314.065 270.034 314.658 271.397V271.433C315.497 273.425 317.034 275.136 319.203 276.288L345.624 290.827C348.07 292.157 349.538 294.464 349.538 296.91Z" fill="#FBFBEF"/>
<path opacity="0.2" d="M233.751 144.015C231.334 146.991 228.927 150.399 226.415 153.917C209.904 178.306 193.275 216.103 197.607 267.14C197.763 269.191 197.165 271.367 196.015 273.016C195.075 274.443 193.909 275.444 192.306 276.238L174.054 286.288L176.478 352.83L208.806 329.801L249.701 331.005C211.279 223.141 248.456 144.103 248.456 144.103L233.751 144.015Z" fill="url(#paint7_linear_219_2740)"/>
<path d="M271.12 317.886C271.12 340.795 264.248 359.366 255.769 359.366C247.283 359.366 240.411 340.795 240.411 317.886C240.411 294.977 247.283 276.403 255.769 276.403C264.248 276.403 271.12 294.977 271.12 317.886Z" fill="#133D3F"/>
<path d="M285.057 153.896H226.448C236.793 138.729 247.066 128.801 252.273 124.259C254.195 122.58 257.342 122.58 259.264 124.259C264.472 128.801 274.748 138.729 285.057 153.896Z" fill="#133D3F"/>
<path d="M208.624 330.006L168.398 358.593C165.848 360.413 162.003 358.84 162.003 355.973V296.91C162.003 294.464 163.471 292.157 165.88 290.827L192.338 276.288C192.443 276.255 192.548 276.183 192.654 276.081C194.049 275.274 195.168 274.261 195.972 273.072C196.706 272.026 197.229 270.837 197.44 269.58L208.624 330.006Z" fill="#133D3F"/>
<path d="M349.538 296.91V355.973C349.538 358.84 345.693 360.413 343.143 358.596L302.637 329.831H302.601L314.658 271.433C315.497 273.425 317.034 275.136 319.203 276.288L345.624 290.827C348.07 292.157 349.538 294.464 349.538 296.91Z" fill="#133D3F"/>
<path opacity="0.2" d="M227.32 226.951C231.246 238.844 242.505 247.447 255.726 247.447C270.102 247.447 282.112 237.343 285.056 223.891C283.382 224.237 281.361 224.872 279.052 225.854C276.627 226.893 274.317 227.528 272.181 227.932C250.982 232.813 238 216.5 240.426 195.6L227.32 226.951Z" fill="url(#paint8_linear_219_2740)"/>
<path d="M255.981 237.819C244.536 237.819 235.181 228.464 235.181 217.019C235.181 211.055 237.716 205.687 241.742 201.886C245.432 198.347 250.466 196.184 255.981 196.184C267.46 196.184 276.816 205.54 276.816 217.019C276.816 221.12 275.625 224.96 273.537 228.165C269.847 233.943 263.36 237.819 255.981 237.819ZM255.981 185C238.351 185 224 199.351 224 217.019C224 220.561 224.597 223.953 225.678 227.158C229.891 239.831 241.893 249 255.981 249C271.301 249 284.124 238.23 287.256 223.84C287.74 221.643 288 219.368 288 217.019C288 199.351 273.649 185 255.981 185Z" fill="#133D3F"/>
<path fill-rule="evenodd" clip-rule="evenodd" d="M256 201C264.83 201 272 208.17 272 217C272 225.83 264.83 233 256 233C247.17 233 240 225.83 240 217C240 208.17 247.17 201 256 201ZM256 220.835C255.54 220.835 255.146 220.542 254.998 220.132C254.679 219.256 253.71 218.803 252.835 219.12C251.957 219.438 251.504 220.409 251.823 221.284C252.251 222.46 253.159 223.404 254.311 223.879V224.599C254.311 225.532 255.067 226.288 256 226.288C256.933 226.288 257.689 225.532 257.689 224.599V223.879C259.304 223.213 260.444 221.625 260.444 219.769C260.444 218.052 259.277 216.847 257.627 215.943C257.009 215.605 256.327 215.297 255.733 214.946C255.492 214.803 255.265 214.658 255.089 214.484C255.015 214.41 254.934 214.341 254.934 214.231C254.934 213.642 255.411 213.165 256 213.165C256.465 213.165 256.861 213.463 257.007 213.88C257.314 214.761 258.278 215.225 259.158 214.918C260.038 214.61 260.503 213.647 260.196 212.766C259.776 211.567 258.858 210.601 257.689 210.121V209.401C257.689 208.468 256.933 207.712 256 207.712C255.067 207.712 254.311 208.468 254.311 209.401V210.121C252.697 210.787 251.557 212.375 251.557 214.231C251.557 215.948 252.723 217.153 254.373 218.057C254.991 218.395 255.673 218.703 256.267 219.054C256.508 219.197 256.735 219.342 256.911 219.517C256.985 219.591 257.066 219.66 257.066 219.769C257.066 220.358 256.589 220.835 256 220.835Z" fill="#133D3F"/>
<defs>
<linearGradient id="paint0_linear_219_2740" x1="338" y1="234" x2="482.427" y2="217.749" gradientUnits="userSpaceOnUse">
<stop stop-color="#133D3F"/>
<stop offset="1" stop-color="#32A8AE"/>
</linearGradient>
<linearGradient id="paint1_linear_219_2740" x1="27.6179" y1="9.34547" x2="96.4904" y2="-66.8164" gradientUnits="userSpaceOnUse">
<stop stop-color="#133D3F"/>
<stop offset="1" stop-color="#32A8AE"/>
</linearGradient>
<linearGradient id="paint2_linear_219_2740" x1="122.716" y1="443.641" x2="260.234" y2="292.071" gradientUnits="userSpaceOnUse">
<stop stop-color="#133D3F"/>
<stop offset="1" stop-color="#32A8AE"/>
</linearGradient>
<linearGradient id="paint3_linear_219_2740" x1="179" y1="470" x2="305.924" y2="465.962" gradientUnits="userSpaceOnUse">
<stop stop-color="#133D3F"/>
<stop offset="1" stop-color="#32A8AE"/>
</linearGradient>
<linearGradient id="paint4_linear_219_2740" x1="89.5" y1="374" x2="478.5" y2="170.5" gradientUnits="userSpaceOnUse">
<stop stop-color="#133D3F"/>
<stop offset="1" stop-color="#32A8AE"/>
</linearGradient>
<linearGradient id="paint5_linear_219_2740" x1="27" y1="362.5" x2="355" y2="74" gradientUnits="userSpaceOnUse">
<stop stop-color="#133D3F"/>
<stop offset="1" stop-color="#32A8AE"/>
</linearGradient>
<linearGradient id="paint6_linear_219_2740" x1="15.5" y1="405" x2="370.885" y2="340.028" gradientUnits="userSpaceOnUse">
<stop stop-color="#133D3F"/>
<stop offset="1" stop-color="#32A8AE"/>
</linearGradient>
<linearGradient id="paint7_linear_219_2740" x1="292.428" y1="184.37" x2="186.904" y2="294.958" gradientUnits="userSpaceOnUse">
<stop stop-color="#FBFBEF"/>
<stop offset="1" stop-color="#133D3F"/>
</linearGradient>
<linearGradient id="paint8_linear_219_2740" x1="213" y1="202" x2="278.5" y2="235" gradientUnits="userSpaceOnUse">
<stop stop-color="#FBFBEF"/>
<stop offset="1" stop-color="#133D3F"/>
</linearGradient>
</defs>
</svg>
