<svg width="40" height="40" viewBox="0 0 40 40" fill="none" xmlns="http://www.w3.org/2000/svg">
<path fill-rule="evenodd" clip-rule="evenodd" d="M0.000121839 18.5716V4.28593C0.000121839 1.91873 1.91885 0 4.28605 0H18.5717V5.71431C18.5717 7.29301 19.8503 8.57156 21.4287 8.57156C22.6116 8.57156 23.5716 9.53137 23.5716 10.7143C23.5716 11.8972 22.6116 12.8572 21.4287 12.8572C19.8502 12.8572 18.5717 14.1359 18.5717 15.7143V18.5715H15.7144C15.7144 15.8113 13.4746 13.5715 10.7145 13.5715C7.95455 13.5715 5.71449 15.8113 5.71449 18.5715L0.000121839 18.5716ZM40 21.4286V35.7142C40 38.0814 38.0815 39.9999 35.7143 39.9999H21.4287V34.2858C21.4287 32.7071 20.1501 31.4286 18.5717 31.4286C17.3888 31.4286 16.4287 30.4685 16.4287 29.2858C16.4287 28.1029 17.3888 27.1429 18.5717 27.1429C20.1501 27.1429 21.4287 25.8643 21.4287 24.2859V21.4286H24.2859C24.2859 24.1885 26.5257 26.4286 29.2859 26.4286C32.0458 26.4286 34.2859 24.1885 34.2859 21.4286L40 21.4286ZM21.4286 0.000121839H35.7142C38.0814 0.000121839 39.9999 1.91885 39.9999 4.28605V18.5717H34.2858C32.7071 18.5717 31.4286 19.8503 31.4286 21.4287C31.4286 22.6116 30.4685 23.5716 29.2858 23.5716C28.1029 23.5716 27.1429 22.6116 27.1429 21.4287C27.1429 19.8502 25.8643 18.5717 24.2859 18.5717H21.4286V15.7144C24.1885 15.7144 26.4286 13.4746 26.4286 10.7145C26.4286 7.95455 24.1885 5.71449 21.4286 5.71449L21.4286 0.000121839ZM18.5716 40H4.28593C1.91873 40 0 38.0815 0 35.7143V21.4287H5.71431C7.29301 21.4287 8.57156 20.1501 8.57156 18.5717C8.57156 17.3888 9.53137 16.4287 10.7143 16.4287C11.8972 16.4287 12.8572 17.3888 12.8572 18.5717C12.8572 20.1501 14.1359 21.4287 15.7143 21.4287H18.5715V24.2859C15.8113 24.2859 13.5715 26.5257 13.5715 29.2859C13.5715 32.0458 15.8113 34.2859 18.5715 34.2859L18.5716 40Z" fill="#D6DE23"/>
</svg>
