<svg width="40" height="40" viewBox="0 0 40 40" fill="none" xmlns="http://www.w3.org/2000/svg">
<path fill-rule="evenodd" clip-rule="evenodd" d="M9.86531 5.9405L10.8071 6.04019C11.5398 6.11738 12.0708 6.77485 11.9916 7.50748C11.9144 8.23813 11.2572 8.76925 10.5245 8.69202L6.52602 8.26636C5.84805 8.1949 5.332 7.62237 5.332 6.94044V2.69909C5.332 1.96267 5.93099 1.36566 6.66542 1.36566C7.40184 1.36566 7.99885 1.96267 7.99885 2.69909V4.0023C11.3439 1.48982 15.4985 0 20.0001 0C31.0386 0 40 8.96138 40 19.9999C40 23.0812 39.3013 26.0005 38.0563 28.609C37.738 29.272 36.9414 29.5545 36.2785 29.2362C35.6135 28.9197 35.333 28.1231 35.6494 27.4584C36.7304 25.1982 37.3331 22.6688 37.3331 20C37.3331 10.4322 29.5675 2.66724 19.9998 2.66724C16.2181 2.66724 12.7164 3.88001 9.86514 5.94064L9.86531 5.9405ZM32.0012 35.9977C28.6563 38.5102 24.5015 39.9998 19.9999 39.9998C8.96139 39.9998 0 31.039 0 19.9999C0 16.947 0.685712 14.0523 1.90994 11.4625C2.22621 10.7976 3.02108 10.5133 3.68579 10.8278C4.35072 11.1423 4.635 11.9371 4.32051 12.6038C3.26013 14.847 2.66685 17.3558 2.66685 20.0001C2.66685 29.5679 10.4324 37.3335 20.0002 37.3335C23.7464 37.3335 27.2175 36.1432 30.0541 34.1185L29.1935 34.0264C28.4608 33.9489 27.9295 33.2917 28.0087 32.5591C28.0859 31.8284 28.7434 31.2973 29.4758 31.3745L33.4743 31.8002C34.1525 31.8717 34.6683 32.4442 34.6683 33.1261V37.3675C34.6683 38.1039 34.0696 38.7009 33.3349 38.7009C32.5985 38.7009 32.0015 38.1039 32.0015 37.3675L32.0012 35.9977ZM19.9999 7.36613C26.9722 7.36613 32.6341 13.0274 32.6341 20.0003C32.6341 26.9731 26.9722 32.6344 19.9999 32.6344C13.0277 32.6344 7.36581 26.9725 7.36581 20.0003C7.36581 13.028 13.0271 7.36613 19.9999 7.36613ZM19.9999 23.0288C19.6365 23.0288 19.3258 22.7972 19.209 22.4732C18.9565 21.782 18.1919 21.4241 17.5007 21.6746C16.8075 21.9251 16.4498 22.6918 16.702 23.383C17.0393 24.3115 17.7567 25.0574 18.6665 25.4321V26.0009C18.6665 26.7373 19.2635 27.3343 19.9999 27.3343C20.7363 27.3343 21.3333 26.7373 21.3333 26.0009V25.4321C22.6085 24.9065 23.5088 23.6523 23.5088 22.1869C23.5088 20.8307 22.5878 19.8798 21.2844 19.1658C20.7967 18.8985 20.2579 18.6555 19.7891 18.3787C19.5987 18.2656 19.4199 18.1507 19.2805 18.0133C19.222 17.9548 19.1581 17.9004 19.1581 17.8137C19.1581 17.3485 19.5348 16.9718 19.9999 16.9718C20.3673 16.9718 20.6799 17.2072 20.7947 17.5369C21.0378 18.2319 21.7987 18.599 22.4936 18.356C23.1886 18.1132 23.5558 17.3523 23.313 16.6571C22.9815 15.7099 22.2563 14.947 21.3334 14.5686V13.9998C21.3334 13.2634 20.7364 12.6664 20 12.6664C19.2635 12.6664 18.6665 13.2634 18.6665 13.9998V14.5686C17.3915 15.0941 16.4913 16.3484 16.4913 17.8137C16.4913 19.1697 17.4123 20.1209 18.7155 20.8348C19.2034 21.1021 19.742 21.3452 20.2111 21.6219C20.4012 21.7348 20.58 21.8498 20.7194 21.9874C20.7779 22.0458 20.842 22.1003 20.842 22.187C20.842 22.6521 20.4653 23.0288 19.9999 23.0288Z" fill="#D6DE23"/>
</svg>
