<svg width="1920" height="768" viewBox="0 0 1920 768" fill="none" xmlns="http://www.w3.org/2000/svg">
<g clip-path="url(#clip0_234_1034)">
<g clip-path="url(#clip1_234_1034)">
<mask id="mask0_234_1034" style="mask-type:luminance" maskUnits="userSpaceOnUse" x="0" y="-156" width="1920" height="1080">
<path d="M1920 -156H0V924H1920V-156Z" fill="white"/>
</mask>
<g mask="url(#mask0_234_1034)">
<path d="M1236.5 1006.57C1253.37 977.13 1255.76 944.13 1260.22 911.55C1262.71 893.51 1261.95 875.6 1258.28 858.16C1247.69 807.793 1225.09 797.455 1179.97 803.237C1168.88 804.651 1158.01 807.667 1146.95 809.364C1117.82 813.795 1104.24 784.761 1109.55 763.959C1113.42 748.751 1121.31 734.988 1129.44 721.319C1144.68 695.741 1163.35 672.08 1169.32 641.412C1175.23 610.963 1166.08 587.648 1142.27 569.078C1140.19 567.475 1138.27 565.495 1135.95 564.427C1078.73 538.032 1081.4 484.489 1090.92 440.34C1097.36 410.583 1115.08 386.765 1142.23 371.085C1157.22 362.444 1170.83 351.761 1182.99 339.569C1214.73 307.832 1224.84 270.282 1213.25 226.48C1209.79 213.439 1204.73 199.959 1211.14 185.599C1216.3 174.099 1224.4 165.332 1233.48 157.57C1253.28 140.697 1272.23 122.849 1283.35 99.156C1300.01 63.775 1295.61 27.89 1278.51 -5.79402C1266.7 -29.047 1237.76 -34.703 1209.82 -21.6C1185 -9.97402 1164.14 7.87399 1142.42 24.151C1123.44 38.385 1102.99 49.509 1080.8 56.39C1062.74 62.015 1046.65 71.442 1039.23 87.027C1021.73 123.791 991.721 141.859 955.428 154.68C933.872 162.284 914.893 175.167 903.298 196.628C894.343 213.188 892.52 230.062 895.317 248.57C899.748 278.012 910.274 305.915 915.773 334.981C918.789 350.975 920.392 367.095 916.276 383.717C906.692 422.272 892.583 424.126 862.575 419.916C832.692 415.705 805.292 403.042 776.258 395.94C745.15 388.336 715.99 388.179 693.177 413.725C677.434 431.353 668.73 453.066 662.792 476.256C651.574 520.184 649.814 565.401 642.587 609.864C639.79 627.115 636.271 644.083 628.73 660.265C618.109 683.141 604.66 689.676 575.029 685.529C550.111 682.041 526.638 672.708 501.281 670.54C482.144 668.906 463.511 673.086 444.658 671.106C439.944 670.603 435.388 671.294 430.423 669.912C415.278 665.733 408.553 654.892 414.932 641.349C417.823 635.222 421.751 629.471 425.867 624.067C454.147 586.8 436.111 570.366 410.093 551.732C391.334 538.315 369.841 530.177 348.662 522.321C321.859 512.36 297.507 497.78 271.898 485.651C250.373 475.47 229.163 466.044 204.277 468.243C181.495 470.254 164.747 489.108 160.128 509.281C153.592 537.875 158.871 566.061 162.265 594.121C165.03 617.154 167.89 640.029 168.455 663.282C168.989 685.686 176.688 706.236 190.105 724.618C213.829 757.172 220.428 791.359 199.909 828.438C197.332 833.12 195.478 839.561 192.807 843.646C173.765 872.65 161.385 904.54 149.256 936.66C147.622 941.02 145.14 945.05 143.034 949.26" stroke="#D6DE23" stroke-width="4"/>
</g>
<mask id="mask1_234_1034" style="mask-type:luminance" maskUnits="userSpaceOnUse" x="0" y="-156" width="1920" height="1080">
<path d="M1920 -156H0V924H1920V-156Z" fill="white"/>
</mask>
<g mask="url(#mask1_234_1034)">
<path d="M0.03125 316.065C17.2822 322.161 31.328 333.41 45.6251 344.282C51.6268 348.838 58.037 352.892 64.4471 356.882C91.9731 374.133 127.858 365.838 144.26 342.554C151.739 331.933 157.615 319.615 160.128 306.607C168.707 262.112 191.614 230.942 237.176 218.373C255.055 213.439 270.389 203.573 281.419 187.327C304.797 152.888 311.458 114.93 309.887 74.081C308.882 48.126 304.2 22.768 301.749 -2.90399C298.67 -35.143 307.216 -50.446 336.314 -62.449C356.612 -70.8388 372.072 -84.1619 381.625 -103.549C389.889 -120.36 397.619 -137.643 403.557 -155.396C414.147 -187.007 434.508 -205.044 468.225 -207.212C473.975 -207.589 479.882 -208.06 485.538 -208.312C520.009 -209.82 554.29 -206.992 587.567 -197.502C604.66 -192.632 609.688 -181.76 604.786 -164.792C602.335 -156.213 598.596 -148.012 595.485 -139.622C589.044 -122.277 581.439 -105.183 581.376 -86.2043C581.188 -33.383 616.664 17.929 678.723 31.755C719.98 40.931 760.892 35.652 801.207 28.079C861.947 16.672 920.549 -2.87197 978.932 -23.077C997.597 -29.518 1017.05 -34.389 1036.97 -35.834C1044.32 -36.368 1052.84 -36.463 1055.51 -27.947C1057.71 -20.909 1053.15 -15.535 1046.43 -12.268C1043.07 -10.634 1040.52 -7.71098 1037.19 -5.66898C1012.4 9.50802 991.941 29.367 975.57 53.562C961.996 73.641 943.205 85.362 919.261 91.866C889.756 99.879 860.438 109.054 832.63 122.597C776.384 149.998 742.227 187.893 763.06 253.314C768.214 269.497 769.094 287.502 765.229 305.035C760.924 324.549 747.475 339.851 721.175 328.508C712.596 324.8 704.206 320.495 696.037 315.97C660.152 296.111 626.153 272.639 587.535 258.028C565.917 249.858 544.141 243.825 519.977 246.496C479.348 250.989 451.445 274.116 429.135 305.193C404.249 339.883 373.486 365.303 331.474 375.704C290.028 385.979 248.142 394.055 205.754 399.02C179.736 402.068 153.247 406.655 127.292 399.051C111.738 394.495 96.9378 387.488 81.6037 382.115C76.1362 380.198 70.386 375.327 64.29 381.926C58.2255 388.493 61.1478 394.746 64.4157 400.811C79.1842 428.117 78.053 455.926 67.4951 484.111C64.3843 492.438 65.6412 499.477 72.1142 506.201C94.9582 529.925 131.283 524.364 142.532 493.413C155.415 457.937 178.636 437.229 215.055 427.049C253.578 416.271 292.448 407.41 331.537 399.648C370.564 391.887 405.003 379.726 429.575 344.816C442.49 326.465 458.861 309.654 477.368 295.357C507.817 271.853 540.59 266.166 576.506 278.421C604.503 287.973 628.793 304.187 651.982 322.255C673.035 338.657 693.554 355.594 719.415 364.958C764.255 381.172 800.673 349.53 803.344 316.065C804.884 296.928 803.03 278.641 797.688 261.138C778.96 199.928 807.46 150.626 868.734 138.434C886.048 135.009 903.173 130.17 920.612 127.656C957.911 122.314 986.505 104.184 1003.57 70.75C1018.12 42.313 1040.96 25.565 1069.74 14.127C1100.76 1.77801 1130.8 -13.053 1157.63 -33.006C1179.53 -49.314 1203.7 -59.8724 1230.12 -63.8002C1253.03 -67.1938 1272.73 -62.1976 1287.31 -39.511C1299.6 -20.406 1309.06 -0.546988 1314.49 20.726C1324.17 58.716 1322.22 95.7941 1297.71 129.102C1288.76 141.262 1281.12 154.334 1272.45 166.714C1251.49 196.565 1244.89 229.936 1247.34 265.726C1250.17 307.141 1242.06 344.565 1208.13 372.594C1191.22 386.545 1174.72 400.999 1157.79 414.919C1142.61 427.426 1128.19 440.78 1123.44 460.576C1113.86 500.42 1148.99 547.333 1190.81 551.669C1190.81 551.669 1251.24 565.213 1357.35 479.398C1364.67 472.579 1372.53 466.264 1379.22 458.879C1392.92 443.797 1398.86 426.734 1395.44 405.493C1391.22 379.444 1379.16 356.38 1371.52 331.713C1353.83 274.713 1353.02 219.661 1392.01 169.982C1405.55 152.731 1421.2 137.146 1434.12 119.486C1461.3 82.282 1473.43 39.265 1474.62 -6.07697C1475.28 -30.838 1470.16 -54.876 1452.09 -75.615C1433.68 -96.6994 1409.58 -109.614 1388.68 -126.928C1368.29 -143.801 1359.9 -168.122 1368.51 -193.009C1373.82 -208.312 1383.09 -221.54 1395.18 -232.224C1423.21 -257.048 1435.18 -287.967 1432.86 -325.014C1432.11 -336.986 1435.03 -347.984 1442.13 -358.071C1458.66 -381.543 1474.46 -405.487 1486.21 -431.85" stroke="#D6DE23" stroke-width="4"/>
</g>
<mask id="mask2_234_1034" style="mask-type:luminance" maskUnits="userSpaceOnUse" x="0" y="-156" width="1920" height="1080">
<path d="M1920 -156H0V924H1920V-156Z" fill="white"/>
</mask>
<g mask="url(#mask2_234_1034)">
<path d="M0.03125 -199.262C41.446 -205.672 72.5855 -189.458 97.7548 -157.093C108.47 -143.33 117.425 -128.593 127.072 -114.296C148.188 -82.9363 175.902 -61.7262 213.735 -56.4786C275.574 -47.932 322.551 -76.0862 362.928 -119.166C380.713 -138.145 384.578 -163.44 392.717 -186.724C399.944 -207.4 412.953 -220.095 435.168 -224.651C474.226 -232.664 513.63 -233.575 553.033 -231.784C570.881 -230.967 589.106 -229.302 606.546 -223.017C631.055 -214.187 637.56 -202.436 635.077 -175.664C632.658 -149.552 620.466 -126.676 614.15 -101.884C610.819 -88.8751 605.289 -76.2433 609.688 -62.5746C618.329 -35.614 634.7 -15.787 661.409 -4.255C700.373 12.588 740.593 10.042 780.877 4.79498C839.762 -2.87202 894.155 -26.062 948.861 -47.272C989.301 -62.9516 1029.08 -74.0123 1073.23 -66.2195C1105.12 -60.5949 1136.99 -62.8888 1165.99 -81.208C1175.98 -87.5239 1187.48 -92.1744 1198.89 -95.3795C1245.58 -108.546 1284.04 -96.6364 1308.43 -63.8943C1323.76 -43.281 1333.12 -19.18 1339 6.42902C1348.49 47.718 1350.97 88.19 1332.21 127.405C1322.72 147.232 1311.38 166.212 1300.98 185.631C1288.38 209.166 1279.42 232.764 1283.19 261.107C1290.67 317.384 1273.27 365.429 1230.53 404.299C1215.83 417.685 1200.9 431.071 1187.51 446.122C1174.6 460.576 1165.83 475.219 1169.01 495.141C1169.01 495.141 1178.4 556.634 1291.55 479.43C1306.16 472.768 1318.29 462.556 1330.96 452.909C1353.11 436.035 1355.03 412.689 1352.48 388.336C1351.22 376.081 1347.17 363.984 1343.24 352.201C1331.99 318.359 1327.56 283.951 1332.34 248.475C1338.44 203.227 1350.78 160.933 1382.33 125.645C1396.76 109.494 1409.26 91.144 1420.07 72.353C1443.67 31.284 1451.43 -10.948 1425.32 -54.876C1412.72 -76.0862 1391.7 -86.707 1373 -99.9672C1351.1 -115.49 1337.49 -134.218 1335.26 -161.555C1333.78 -179.56 1339.69 -195.523 1345 -211.831C1354.08 -239.734 1346.73 -253.528 1318.26 -262.169C1306.95 -265.594 1295.42 -266.631 1283.7 -266.883C1250.64 -267.637 1217.36 -263.238 1184.69 -272.947C1134.54 -287.873 1083.91 -301.259 1047.87 -343.648C1040.58 -352.194 1029.68 -355.305 1018.21 -354.802C1006.68 -354.3 994.958 -354.991 983.677 -353.011C940.188 -345.376 886.205 -390.31 884.665 -431.787" stroke="#D6DE23" stroke-width="4"/>
</g>
<mask id="mask3_234_1034" style="mask-type:luminance" maskUnits="userSpaceOnUse" x="0" y="-156" width="1920" height="1080">
<path d="M1920 -156H0V924H1920V-156Z" fill="white"/>
</mask>
<g mask="url(#mask3_234_1034)">
<path d="M1190.94 1007.36C1205.27 999.44 1210.42 984.8 1215.83 971.13C1227.36 942 1235.06 911.99 1230.25 880.1C1225.22 846.88 1204.01 832.177 1170.48 837.456C1155.46 839.813 1140.25 845.15 1125.01 842.169C1090.04 835.319 1073.95 809.27 1071.69 773.26C1070.25 750.227 1078.95 729.96 1090.26 710.352C1102.08 689.865 1116.22 670.572 1123.44 647.602C1129.41 628.623 1127.91 612.283 1112.7 597.012C1098.05 582.306 1078.6 572.534 1068.36 553.335C1037.72 495.926 1031.44 416.522 1090.01 367.472C1114.93 346.607 1142.61 328.351 1162.63 301.925C1171.39 290.361 1176.86 277.918 1177.14 262.678C1177.43 246.401 1171.46 234.932 1158.01 226.48C1152.01 222.709 1146.51 218.09 1140.66 214.005C1123.95 202.284 1122.56 189.276 1135.89 174.664C1150.09 159.11 1169.92 153.423 1187.98 145.284C1215.26 132.998 1239.33 117.13 1251.74 89.667C1262.02 66.948 1261.14 44.827 1246.02 30.121C1233.2 17.647 1211.14 14.882 1197.35 25.628C1190.4 31.064 1183.15 37.129 1178.65 44.513C1162.28 71.379 1137.21 82.314 1107.7 86.87C1080.02 91.112 1060.32 107.389 1049.98 132.527C1040.77 154.931 1027.64 168.631 1002.44 170.454C991.784 171.239 981.289 175.858 971.014 179.566C931.547 193.8 924.069 214.225 928.154 250.235C932.584 289.01 947.133 325.177 953.826 363.293C956.748 379.978 961.21 396.317 958.508 413.6C953.92 442.917 932.553 460.011 903.424 457.654C872.127 455.109 843.25 443.922 813.776 434.338C795.708 428.462 776.729 426.671 757.31 427.457C721.646 428.871 702.918 449.484 696.382 482.823C690.601 512.36 687.71 542.463 683.468 572.314C680.671 592.047 672.344 610.147 666.374 628.937C663.326 638.584 660.404 648.765 660.247 658.726C659.901 682.355 667.788 691.75 696.068 692.945C697.545 693.007 700.184 691.782 702.353 691.75C743.17 690.902 740.814 696.747 752.597 726.284C756.525 736.119 759.541 746.362 763.72 756.072C774.121 780.173 791.121 790.071 817.013 785.672C829.613 783.535 842.182 781.901 854.751 783.001C889.913 786.018 907.635 798.272 913.888 823.819C917.156 837.173 915.962 852.13 912.788 866.08C904.084 904.35 889.818 941.28 885.796 980.74C884.885 989.73 885.513 998.62 884.602 1007.48" stroke="#D6DE23" stroke-width="4"/>
</g>
<mask id="mask4_234_1034" style="mask-type:luminance" maskUnits="userSpaceOnUse" x="0" y="-156" width="1920" height="1080">
<path d="M1920 -156H0V924H1920V-156Z" fill="white"/>
</mask>
<g mask="url(#mask4_234_1034)">
<path d="M685.039 1007.36C679.194 976.12 686.453 948.94 706.626 923.77C718.661 908.75 727.082 890.59 733.586 872.21C741.253 850.43 733.209 830.449 713.382 817.188C706.312 812.444 698.896 808.516 691.512 804.368C675.141 795.224 659.587 784.132 650.568 766.944C630.144 727.949 596.396 715.883 554.636 714.752C498.673 713.212 443.024 707.462 389.637 688.482C384.955 686.817 379.613 686.252 375.591 683.612C356.141 670.729 354.664 655.835 370.815 638.238C377.32 631.168 384.641 624.821 391.145 617.719C406.385 601.066 403.337 583.846 383.353 572.22C379.708 570.083 376.251 567.129 372.323 566.061C329.306 554.655 291.757 531.496 252.793 511.26C242.266 505.793 230.829 501.142 218.417 499.791C204.182 498.252 197.238 506.39 196.484 518.802C195.258 538.818 197.207 558.488 205.879 576.902C213.609 593.336 214.583 610.429 208.77 627.115C196.704 661.711 200.977 692.285 226.115 719.999C253.264 749.913 249.933 784.384 236.925 818.728C230.923 834.628 223.162 850.37 213.326 864.16C194.756 890.21 181.558 918.24 174.394 949.26" stroke="#D6DE23" stroke-width="4"/>
</g>
<mask id="mask5_234_1034" style="mask-type:luminance" maskUnits="userSpaceOnUse" x="0" y="-156" width="1920" height="1080">
<path d="M1920 -156H0V924H1920V-156Z" fill="white"/>
</mask>
<g mask="url(#mask5_234_1034)">
<path d="M1919.94 683.706C1870.76 668.372 1829.35 639.181 1787.93 609.895C1756.51 587.648 1729.27 560.028 1696.78 539.258C1682.45 530.114 1667.71 522.132 1649.71 521.63C1632.89 521.158 1621.99 528.794 1613.51 542.243C1600.43 562.95 1594.75 585.983 1591.57 609.832C1588.93 629.723 1586.99 649.739 1583.56 669.503C1579.13 694.861 1582.68 716.511 1603.95 734.171C1623.84 750.667 1628.84 773.826 1624.22 798.272C1621.36 813.481 1616.37 828.469 1608.86 842.326C1603.73 851.75 1600.87 861.97 1597.67 872.11C1594.15 883.24 1597.42 892.44 1604.3 900.3C1611.15 908.12 1620.8 906.05 1629.22 903.44C1650.33 896.88 1669.12 884.53 1690.52 878.4C1714.91 871.42 1733.16 877.21 1745.76 894.02C1757.01 908.97 1758.84 925.85 1757.74 942.88" stroke="#D6DE23" stroke-width="4"/>
</g>
<mask id="mask6_234_1034" style="mask-type:luminance" maskUnits="userSpaceOnUse" x="0" y="-156" width="1920" height="1080">
<path d="M1920 -156H0V924H1920V-156Z" fill="white"/>
</mask>
<g mask="url(#mask6_234_1034)">
<path d="M311.113 1007.36C329.903 953.56 370.061 929.9 427.47 935.9C470.77 940.43 481.17 937.47 499.647 898.95C501.375 895.37 502.758 891.6 504.392 887.95C516.332 861.18 533.206 839.31 560.826 826.395C577.48 818.603 590.929 805.751 603.435 792.145C612.076 782.75 614.181 771.375 609.217 760.88C603.749 749.285 591.149 748.405 579.837 749.882C559.978 752.49 540.81 758.869 520.071 756.323C499.647 753.81 481.736 744.823 463.731 736.747C436.425 724.461 408.742 715.411 378.702 713.495C330.877 710.478 290.814 742.498 280.884 784.164C273.186 816.434 257.758 845.56 237.584 872.46C215.557 901.84 206.539 936.4 204.308 972.79" stroke="#D6DE23" stroke-width="4"/>
</g>
<mask id="mask7_234_1034" style="mask-type:luminance" maskUnits="userSpaceOnUse" x="0" y="-156" width="1920" height="1080">
<path d="M1920 -156H0V924H1920V-156Z" fill="white"/>
</mask>
<g mask="url(#mask7_234_1034)">
<path d="M1919.94 -153.699C1896.59 -151.971 1889.3 -134.689 1883.9 -115.961C1881.7 -108.294 1880.22 -100.344 1879.15 -92.4259C1873.9 -53.965 1864.51 -46.046 1820.89 -37.657C1789.79 -31.655 1757.96 -28.638 1732.94 -6.01401C1722.48 3.44399 1712.08 12.933 1701.52 22.266C1678.65 42.47 1650.14 47.655 1621.39 52.117C1613.29 53.374 1605.62 56.202 1597.76 58.087C1572.41 64.215 1572.53 93.029 1585.35 108.614C1596.79 122.534 1613.19 128.882 1629.31 135.292C1638.52 138.937 1647.98 142.362 1657.59 144.687C1686.81 151.757 1707.3 169.448 1722.1 195.026C1727.7 204.704 1734.77 213.439 1742.21 221.955C1753.78 235.184 1767.38 234.021 1781.62 229.465C1788.21 227.359 1794 222.709 1800.56 220.321C1824.82 211.523 1846.5 225.663 1849.24 251.617C1849.77 256.865 1849.24 262.49 1851 267.266C1857.12 283.763 1871.08 285.208 1880.72 275.247C1892.07 263.495 1902.66 250.486 1919.94 246.904" stroke="#D6DE23" stroke-width="4"/>
</g>
<mask id="mask8_234_1034" style="mask-type:luminance" maskUnits="userSpaceOnUse" x="0" y="-156" width="1920" height="1080">
<path d="M1920 -156H0V924H1920V-156Z" fill="white"/>
</mask>
<g mask="url(#mask8_234_1034)">
<path d="M1919.15 707.273C1907.18 698.506 1892.54 699.072 1879.03 696.558C1841.63 689.614 1810.18 671.923 1783.34 645.874C1755.98 619.29 1729.23 592.267 1695.3 573.634C1651.06 549.344 1630.25 566.25 1618.5 608.355C1613.26 627.146 1611.12 646.722 1612 666.424C1612.75 683.486 1617.75 698.695 1629.15 712.081C1656.43 744.132 1662.37 780.613 1649.64 820.362C1648.45 824.133 1645.97 827.589 1645.09 831.391C1641.13 848.71 1648.54 857.85 1666.99 857.97C1676.95 858.04 1686.91 857.38 1696.84 856.44C1757.45 850.75 1775.74 885.34 1785.3 927.29" stroke="#D6DE23" stroke-width="4"/>
</g>
<mask id="mask9_234_1034" style="mask-type:luminance" maskUnits="userSpaceOnUse" x="0" y="-156" width="1920" height="1080">
<path d="M1920 -156H0V924H1920V-156Z" fill="white"/>
</mask>
<g mask="url(#mask9_234_1034)">
<path d="M1071.53 1007.36C1095.1 1009.43 1118.26 1004.72 1140.54 999C1186.63 987.18 1207.18 927.89 1195.84 894.17C1188.99 873.78 1172.46 869.82 1154.8 867.68C1142.86 866.24 1130.73 866.49 1118.7 865.92C1083.1 864.23 1063.4 851.72 1051.27 810.904C1045.74 792.302 1042.56 772.977 1036.75 754.47C1030.84 735.679 1017.71 722.167 1000.9 711.892C976.512 696.998 937.077 709.504 936.417 748.091C936.166 763.111 937.988 778.288 943.11 791.925C959.544 835.445 954.768 877.3 938.24 919.44C930.259 939.77 922.12 960.1 918.695 982.12C917.313 990.95 919.261 998.97 919.167 1007.33" stroke="#D6DE23" stroke-width="4"/>
</g>
<mask id="mask10_234_1034" style="mask-type:luminance" maskUnits="userSpaceOnUse" x="0" y="-156" width="1920" height="1080">
<path d="M1920 -156H0V924H1920V-156Z" fill="white"/>
</mask>
<g mask="url(#mask10_234_1034)">
<path d="M1919.94 272.073C1903.47 272.985 1895.93 284.862 1888.45 297.18C1882.8 306.481 1878.08 316.41 1869.72 324.015C1855.77 336.741 1842.04 333.755 1833.43 316.128C1829 307.078 1828.4 297.431 1827.24 287.785C1824.16 262.49 1809.64 253.44 1786.33 260.856C1748.69 272.828 1725.46 261.641 1709.53 224.877C1704.13 212.402 1697.88 200.745 1689.05 190.312C1677.8 176.958 1663 172.653 1646.56 173.219C1626.11 173.91 1609.01 169.102 1592.7 154.742C1568.35 133.281 1539.92 136.769 1521.41 164.043C1505.26 187.83 1483.67 204.264 1461.08 220.101C1439.36 235.309 1421.52 252.749 1415.51 279.898C1409.95 305.035 1420.51 322.726 1439.08 338.186C1464.38 359.239 1481.63 384.44 1478.67 419.79C1477.48 434.15 1472.48 446.719 1465.88 459.036C1465.88 459.036 1431.45 500.545 1405.18 506.61C1405.18 506.61 1330.52 550.036 1316.63 573.728C1311.91 581.584 1305.94 588.968 1302.74 597.389C1296.14 614.671 1304 632.488 1321.28 644.523C1328.44 649.519 1336.17 654.169 1343.62 658.003C1358.64 665.701 1357.98 678.144 1355.4 689.896C1352.51 703.094 1347.48 715.788 1344.56 729.206C1335.76 769.929 1347.58 802.231 1381.04 826.646C1400.78 841.038 1420.1 856.12 1440.9 868.82C1463.46 882.58 1469.84 904.04 1471.79 927.29" stroke="#D6DE23" stroke-width="4"/>
</g>
<mask id="mask11_234_1034" style="mask-type:luminance" maskUnits="userSpaceOnUse" x="0" y="-156" width="1920" height="1080">
<path d="M1920 -156H0V924H1920V-156Z" fill="white"/>
</mask>
<g mask="url(#mask11_234_1034)">
<path fill-rule="evenodd" clip-rule="evenodd" d="M854.688 479.555C888.216 490.805 919.827 491.213 950.778 470.349C972.49 455.737 992.287 457.717 1005.58 471.574C1012.4 478.675 1013.94 487.505 1015.04 496.743C1019.94 537.938 1032.66 575.708 1063.77 605.088C1069.05 610.052 1071.5 616.4 1074.68 622.464C1091.96 655.583 1067.67 680.753 1038.57 682.041C1013.37 683.172 991.627 671.452 969.443 661.742C935.098 646.722 901.727 629.597 864.272 621.961C834.923 615.991 809.786 622.716 785.622 638.112C771.45 647.131 757.31 656.369 740.059 658.537C712.848 661.931 705.558 645.214 713.256 625.544C718.755 611.498 721.017 596.761 721.3 581.584C721.74 556.949 719.289 532.251 724.254 507.71C730.947 474.528 742.479 462.304 774.624 455.894C802.087 459.476 828.765 470.883 854.688 479.555Z" stroke="#D6DE23" stroke-width="4"/>
</g>
<mask id="mask12_234_1034" style="mask-type:luminance" maskUnits="userSpaceOnUse" x="0" y="-156" width="1920" height="1080">
<path d="M1920 -156H0V924H1920V-156Z" fill="white"/>
</mask>
<g mask="url(#mask12_234_1034)">
<path d="M1919.94 743.409C1909.69 727.258 1893.67 719.748 1875.91 718.585C1819.92 714.909 1778.57 685.56 1742.34 646.031C1727.91 630.32 1711.76 616.557 1693.66 605.15C1666.58 588.057 1651.12 600.626 1645.34 625.669C1638.17 656.557 1647.22 686.66 1658.19 714.877C1667.9 739.952 1679.15 764.368 1685.81 790.542C1690.55 809.207 1702.31 819.859 1720.25 827.055C1750 839.027 1779.76 850.97 1808.67 865.36C1856.15 889.02 1869.28 930.03 1872.61 977.51" stroke="#D6DE23" stroke-width="4"/>
</g>
<mask id="mask13_234_1034" style="mask-type:luminance" maskUnits="userSpaceOnUse" x="0" y="-156" width="1920" height="1080">
<path d="M1920 -156H0V924H1920V-156Z" fill="white"/>
</mask>
<g mask="url(#mask13_234_1034)">
<path fill-rule="evenodd" clip-rule="evenodd" d="M1500.83 269.56C1494.98 273.016 1493.98 284.14 1498.81 292.529C1502.62 299.128 1506.23 305.601 1511.32 311.446C1531.18 334.164 1537.02 360.244 1530.74 389.97C1528.73 399.491 1528.01 410.646 1534.26 419.633C1544.16 420.701 1550.5 414.354 1556.82 409.986C1570.39 400.591 1584.79 397.103 1601.03 397.48C1611.97 397.763 1622.96 397.763 1634.06 396.6C1647.95 395.155 1659.41 390.347 1670.19 382.052C1682.42 372.625 1696.02 365.712 1710.98 361.501C1725.02 357.542 1737.81 350.692 1748.47 340.857C1752.68 336.961 1757.01 331.807 1753.74 323.7C1750.41 315.499 1744.88 314.336 1737.72 314.399C1700.8 314.651 1675.31 298.845 1663.81 262.584C1657.09 241.405 1639.62 233.518 1619.88 233.172C1598.8 232.795 1586.18 218.763 1579.44 210.19C1572.7 201.618 1576.86 198.869 1558.58 207.658C1540.3 216.447 1526.5 254.477 1500.83 269.56Z" stroke="#D6DE23" stroke-width="4"/>
</g>
<mask id="mask14_234_1034" style="mask-type:luminance" maskUnits="userSpaceOnUse" x="0" y="-156" width="1920" height="1080">
<path d="M1920 -156H0V924H1920V-156Z" fill="white"/>
</mask>
<g mask="url(#mask14_234_1034)">
<path fill-rule="evenodd" clip-rule="evenodd" d="M1006.93 599.054C990.59 583.28 981.792 564.05 977.235 542.306C971.988 517.168 971.893 516.885 947.415 518.802C912.788 521.535 879.669 513.68 846.927 504.347C829.267 499.32 811.545 494.826 793.414 492.155C784.773 490.867 776.415 493.852 768.308 496.743C756.336 501.017 756.902 511.857 759.29 520.184C765.04 540.043 769.251 559.336 763.877 580.075C761.678 588.591 767.711 591.702 776.164 591.073C794.483 589.722 812.833 588.968 831.153 587.837C850.226 586.674 868.105 591.356 886.236 596.98C919.481 607.287 951.72 621.27 986.693 625.543C998.445 626.989 1012.11 630.696 1022.83 620.861C1033.55 611.026 1013.31 605.213 1006.93 599.054Z" stroke="#D6DE23" stroke-width="4"/>
</g>
<mask id="mask15_234_1034" style="mask-type:luminance" maskUnits="userSpaceOnUse" x="0" y="-156" width="1920" height="1080">
<path d="M1920 -156H0V924H1920V-156Z" fill="white"/>
</mask>
<g mask="url(#mask15_234_1034)">
<path d="M1621.42 -431.787C1621.2 -421.292 1625.04 -411.363 1623.44 -400.302C1619.92 -375.95 1606.75 -363.946 1580.58 -362.595C1560.15 -361.527 1540.48 -365.392 1520.84 -370.357C1509.91 -373.122 1498.88 -372.682 1487.85 -369.037C1470.44 -363.286 1459.95 -353.043 1461.58 -335.949C1465.6 -293.937 1451.37 -259.121 1425.29 -227.29C1416.24 -216.23 1409.83 -203.284 1407.41 -188.264C1405.02 -173.621 1407.5 -161.586 1417.15 -150.463C1432.58 -132.678 1451.18 -118.349 1469.21 -103.581C1495.39 -82.1193 1504.66 -53.713 1506.7 -21.663C1508.15 0.773006 1505.04 22.674 1499.35 44.45C1498.47 47.781 1496.49 51.897 1498.47 57.05C1502.96 68.771 1509.25 71.725 1517.67 63.115C1529.89 50.64 1537.21 34.615 1547.17 20.475C1573.98 -17.609 1611.15 -38.662 1654.42 -51.545C1691.56 -62.5746 1729.45 -69.9588 1767.51 -76.8089C1788.43 -80.5796 1803.42 -92.5515 1815.05 -110.996C1828.97 -133.118 1839.09 -158.224 1861.74 -174.187C1879.4 -186.63 1898 -196.12 1919.94 -197.659" stroke="#D6DE23" stroke-width="4"/>
</g>
<mask id="mask16_234_1034" style="mask-type:luminance" maskUnits="userSpaceOnUse" x="0" y="-156" width="1920" height="1080">
<path d="M1920 -156H0V924H1920V-156Z" fill="white"/>
</mask>
<g mask="url(#mask16_234_1034)">
<path d="M1919.94 -82.9991C1906.83 -38.222 1876.64 -15.158 1830.38 -12.236C1821.46 -11.67 1812.5 -10.539 1803.67 -9.09398C1774.64 -4.31798 1749.69 8.03101 1731.43 31.724C1714.91 53.154 1694.01 66.634 1667.05 71.379C1661.36 72.384 1654.64 73.924 1649.61 78.732C1637.51 90.264 1638.99 101.921 1654.48 108.52C1662.53 111.945 1671.04 114.585 1679.59 116.376C1705.23 121.749 1725.94 132.747 1736.43 158.796C1739.7 166.934 1745.92 174.193 1751.95 180.792C1766.25 196.44 1781.02 202.127 1801.98 190.155C1821.02 179.283 1837.2 179.409 1855.9 192.952C1874.22 206.212 1896.78 210.8 1919.94 209.197" stroke="#D6DE23" stroke-width="4"/>
</g>
<mask id="mask17_234_1034" style="mask-type:luminance" maskUnits="userSpaceOnUse" x="0" y="-156" width="1920" height="1080">
<path d="M1920 -156H0V924H1920V-156Z" fill="white"/>
</mask>
<g mask="url(#mask17_234_1034)">
<path d="M-8 745.343C8.85144 772.805 20.0197 802.447 23.1256 834.497C25.2733 856.35 22.0022 878.5 24.9099 900.51C26.4298 912 30.3949 922.33 36.6728 931.81C53.4582 957.19 82.37 957.62 99.2875 931.77C104.409 923.98 110.357 915.8 112.207 907.02C117.362 882.62 128.331 860.61 137.352 837.765C150.866 803.503 148.818 770.528 129.257 738.708C117.362 719.365 109.299 698.273 104.376 676.058C96.3798 639.782 66.7741 641.4 46.4863 659.521C38.358 666.816 31.8487 675.629 21.903 681.307C12.0896 686.918 2.73866 689.262 -8 685.961" stroke="#D6DE23" stroke-width="4"/>
</g>
<mask id="mask18_234_1034" style="mask-type:luminance" maskUnits="userSpaceOnUse" x="0" y="-156" width="1920" height="1080">
<path d="M1920 -156H0V924H1920V-156Z" fill="white"/>
</mask>
<g mask="url(#mask18_234_1034)">
<path d="M1919.94 771.689C1906.46 746.048 1881.07 744.414 1857.06 742.121C1819.2 738.507 1784.32 727.792 1758.52 699.04C1742.62 681.35 1726.69 663.847 1709.34 647.633C1705.54 644.083 1701.33 640.721 1696.78 638.238C1677.67 627.9 1666.36 634.75 1667.14 656.997C1668.21 687.383 1678.9 714.594 1695.08 740.392C1730.74 797.361 1783.06 832.994 1842.92 859.8C1860.01 867.43 1910.18 882.482 1927.37 889.902" stroke="#D6DE23" stroke-width="4"/>
</g>
<mask id="mask19_234_1034" style="mask-type:luminance" maskUnits="userSpaceOnUse" x="0" y="-156" width="1920" height="1080">
<path d="M1920 -156H0V924H1920V-156Z" fill="white"/>
</mask>
<g mask="url(#mask19_234_1034)">
<path d="M241.983 1007.36C269.132 973.73 307.185 954.63 342.504 931.88C354.224 924.34 366.762 917.49 376.88 908.12C409.245 878.12 412.701 852.16 395.387 804.871C389.072 787.62 379.456 770.432 361.483 760.503C350.233 754.281 337.759 753.998 328.426 762.262C309.102 779.387 297.947 800.503 295.087 826.615C293.422 841.918 290.06 857.72 278.025 868.97C250.656 894.58 240.664 927.48 237.27 963.33C235.793 979.08 230.169 993.4 223.099 1007.33" stroke="#D6DE23" stroke-width="4"/>
</g>
<mask id="mask20_234_1034" style="mask-type:luminance" maskUnits="userSpaceOnUse" x="0" y="-156" width="1920" height="1080">
<path d="M1920 -156H0V924H1920V-156Z" fill="white"/>
</mask>
<g mask="url(#mask20_234_1034)">
<path fill-rule="evenodd" clip-rule="evenodd" d="M1126.68 243.448C1109.15 234.524 1098.81 220.164 1094.66 199.865C1089.29 173.564 1073.86 169.134 1052.68 185.631C1037.88 197.131 1020.88 201.467 1002.4 201.373C985.813 201.279 971.296 205.395 963.095 221.735C960.267 227.359 959.45 232.513 961.335 239.111C972.05 276.535 975.821 314.871 976.01 353.74C976.041 362.13 978.241 371.431 982.326 378.689C992.412 396.789 1010.79 398.108 1028.99 381.863C1049.98 363.135 1069.3 342.491 1090.61 324.14C1106.44 310.472 1121.97 296.897 1134.66 280.086C1138.49 275.027 1144.77 271.163 1142.23 262.647C1139.69 254.131 1135.45 247.91 1126.68 243.448Z" stroke="#D6DE23" stroke-width="4"/>
</g>
<mask id="mask21_234_1034" style="mask-type:luminance" maskUnits="userSpaceOnUse" x="0" y="-156" width="1920" height="1080">
<path d="M1920 -156H0V924H1920V-156Z" fill="white"/>
</mask>
<g mask="url(#mask21_234_1034)">
<path d="M0.03125 121.246C18.759 139.44 41.8545 137.366 64.4157 133.595C107.967 126.274 134.456 98.433 149.162 58.37C157.269 36.28 167.544 15.856 181.998 -3.09197C207.765 -36.965 245.911 -33.635 268.975 1.68403C302.189 52.62 294.522 135.418 251.536 176.329C239.564 187.736 225.047 195.937 210.373 200.713C170.781 213.596 154.535 243.825 142.595 279.772C138.07 293.409 137.63 307.895 129.429 321.092C116.577 341.8 90.4648 345.57 70.8259 331.619C59.0425 323.229 48.3275 313.519 39.1835 301.987C28.7513 288.79 18.2563 275.247 0.03125 272.042" stroke="#D6DE23" stroke-width="4"/>
</g>
<mask id="mask22_234_1034" style="mask-type:luminance" maskUnits="userSpaceOnUse" x="0" y="-156" width="1920" height="1080">
<path d="M1920 -156H0V924H1920V-156Z" fill="white"/>
</mask>
<g mask="url(#mask22_234_1034)">
<path fill-rule="evenodd" clip-rule="evenodd" d="M1577.37 751.327C1565.15 738.915 1554.81 725.749 1555.56 707.273C1556 696.778 1557.64 686.314 1558.58 675.851C1559.24 668.529 1559.93 661.208 1560.12 653.855C1560.5 638.27 1555.91 632.771 1538.22 635.253C1526.15 636.95 1514.18 637.798 1502.05 638.301C1484.67 639.024 1473.49 647.162 1472.45 666.455C1471.1 691.688 1465.66 714.657 1450.55 735.805C1438.42 752.804 1442.57 768.075 1462.96 779.167C1490.74 794.25 1516.66 811.344 1539.98 832.711C1544.16 836.545 1551.26 837.142 1557.04 839.247C1595.72 831.486 1600.37 774.768 1577.37 751.327Z" stroke="#D6DE23" stroke-width="4"/>
</g>
<mask id="mask23_234_1034" style="mask-type:luminance" maskUnits="userSpaceOnUse" x="0" y="-156" width="1920" height="1080">
<path d="M1920 -156H0V924H1920V-156Z" fill="white"/>
</mask>
<g mask="url(#mask23_234_1034)">
<path d="M124.024 940C129.429 923.31 152.807 856.72 160.442 840.881C178.887 802.703 180.239 764.682 158.526 727.823C136.97 691.216 127.92 651.498 124.024 609.895C122.39 592.644 119.153 575.676 111.832 559.494C104.511 543.28 91.5959 534.67 75.4448 533.288C49.1757 531.025 23.4722 535.047 0.0625 548.59" stroke="#D6DE23" stroke-width="4"/>
</g>
<mask id="mask24_234_1034" style="mask-type:luminance" maskUnits="userSpaceOnUse" x="0" y="-156" width="1920" height="1080">
<path d="M1920 -156H0V924H1920V-156Z" fill="white"/>
</mask>
<g mask="url(#mask24_234_1034)">
<path fill-rule="evenodd" clip-rule="evenodd" d="M50.5272 851.82C47.982 798.963 23.1136 751.263 -9 709C19.8865 711.013 42.6135 704.486 71.5 706.5C94.8782 714.858 116.64 759.654 113.278 785.892C109.947 811.815 99.6404 835.916 94.4242 861.31C91.8476 873.75 89.9937 886.22 83.3636 897.44C76.0736 909.73 71.1403 910.42 62.939 898.92C52.9467 884.87 51.3128 868.12 50.5272 851.82Z" stroke="#D6DE23" stroke-width="4"/>
</g>
<mask id="mask25_234_1034" style="mask-type:luminance" maskUnits="userSpaceOnUse" x="0" y="-156" width="1920" height="1080">
<path d="M1920 -156H0V924H1920V-156Z" fill="white"/>
</mask>
<g mask="url(#mask25_234_1034)">
<path d="M1486.31 1007.36C1493.35 987.47 1497.9 966.85 1500.17 946.05C1504.82 903.29 1495.89 865.86 1454.98 842.232C1438.67 832.805 1423.53 821.336 1407.72 810.998C1375.64 790.008 1368.98 774.297 1376.3 737.124C1380.7 714.783 1384.75 692.536 1386.35 669.629C1385 633.556 1338.12 633.116 1338.12 611.498C1338.12 572.188 1376.71 571.183 1405.18 544.065L1486.99 489.906C1494.24 484.014 1496.52 478.541 1500.99 472.979M1500.83 472.862C1522.73 445.525 1578.56 423.215 1608.86 422.681C1636.95 422.178 1664.38 419.381 1687.79 399.774C1697.5 391.635 1711.98 390.567 1725.12 391.573C1771.91 395.186 1790.76 368.729 1800 331.619C1806.63 304.973 1794.22 284.391 1762.89 289.607C1732.25 294.698 1709.44 283.323 1692.44 259.285C1686.34 250.675 1683.64 239.646 1679.59 229.653C1673.55 214.759 1661.68 208.255 1646.56 206.087C1624.03 202.85 1603.26 197.225 1584.82 181.514C1569.58 168.537 1552.17 167.814 1536.96 187.547C1524.49 203.73 1507.64 214.036 1492.28 226.134C1481.63 234.524 1471.1 243.008 1462.99 253.44C1442.32 280.055 1441.37 309.529 1472.07 333.504C1492.44 349.404 1513.87 365.743 1509.66 396.192C1507.55 411.243 1507.42 458.974 1500.83 472.862Z" stroke="#D6DE23" stroke-width="4"/>
</g>
<mask id="mask26_234_1034" style="mask-type:luminance" maskUnits="userSpaceOnUse" x="0" y="-156" width="1920" height="1080">
<path d="M1920 -156H0V924H1920V-156Z" fill="white"/>
</mask>
<g mask="url(#mask26_234_1034)">
<path d="M1619.85 1007.36C1619.32 1004.75 1619.35 1002.17 1618.57 999.41C1606.91 958.18 1582.15 925.09 1553.84 894.27C1514.65 851.6 1466.39 820.048 1420.32 785.829C1406.4 775.491 1401.28 764.022 1408.04 748.216C1426.2 705.765 1428.59 661.239 1428.24 616.117C1428.18 610.209 1426.92 603.988 1431.35 598.835C1431.35 598.835 1440.34 585.543 1461.2 606.69C1475.12 616.557 1490.27 615.991 1506.8 615.174C1530.55 614.012 1548.84 607.099 1561.94 586.36C1574.92 565.81 1578.78 541.96 1588.27 520.184C1601.53 489.736 1617.56 481.252 1649.8 486.971C1668.9 490.365 1686.06 498.126 1703.09 506.264C1744.1 525.903 1783.47 548.37 1830.32 553.995C1861.08 557.703 1890.02 555.126 1919.18 546.956" stroke="#D6DE23" stroke-width="4"/>
</g>
<mask id="mask27_234_1034" style="mask-type:luminance" maskUnits="userSpaceOnUse" x="0" y="-156" width="1920" height="1080">
<path d="M1920 -156H0V924H1920V-156Z" fill="white"/>
</mask>
<g mask="url(#mask27_234_1034)">
<path d="M1919.94 -23.297C1904.35 -3.406 1881.73 1.967 1858.66 6.586C1829.5 12.462 1798.99 11.174 1771.91 28.016C1756.32 37.726 1742.02 48.221 1729.89 61.607C1713.99 79.172 1718.46 103.932 1731.43 116.439C1741.58 126.211 1751.7 136.172 1762.95 144.593C1778.16 155.968 1795.54 161.184 1814.64 155.748C1835.07 149.903 1853.38 153.737 1871.39 164.955C1886 174.067 1902.5 179.44 1919.94 180.917" stroke="#D6DE23" stroke-width="4"/>
</g>
<mask id="mask28_234_1034" style="mask-type:luminance" maskUnits="userSpaceOnUse" x="0" y="-156" width="1920" height="1080">
<path d="M1920 -156H0V924H1920V-156Z" fill="white"/>
</mask>
<g mask="url(#mask28_234_1034)">
<path fill-rule="evenodd" clip-rule="evenodd" d="M221.559 8.12598C205.722 8.81698 196.641 18.055 190.011 31.63C177.065 58.087 172.697 86.996 165.062 114.962C162.485 124.357 160.38 134.004 153.938 141.608C137.63 160.87 148.628 179.88 171.252 185.756C189.163 190.407 203.963 183.525 216.689 172.904C259.957 136.769 269.541 89.352 259.077 36.437C255.369 17.678 240.601 9.63398 221.559 8.12598Z" stroke="#D6DE23" stroke-width="4"/>
</g>
<mask id="mask29_234_1034" style="mask-type:luminance" maskUnits="userSpaceOnUse" x="0" y="-156" width="1920" height="1080">
<path d="M1920 -156H0V924H1920V-156Z" fill="white"/>
</mask>
<g mask="url(#mask29_234_1034)">
<path fill-rule="evenodd" clip-rule="evenodd" d="M600.135 319.333C585.618 310.943 569.813 305.475 553.065 303.559C527.298 300.636 506.623 311.289 488.649 328.634C467.879 348.713 449.025 370.897 425.773 388.273C399.252 408.069 367.296 413.505 336.282 421.392C323.43 424.66 310.264 426.829 298.512 433.804C281.89 443.64 280.602 450.207 295.527 462.053C312.15 475.25 332.826 480.686 352.025 488.762C383.007 501.834 414.744 513.083 441.578 534.356C469.387 556.383 477.148 583.877 468.099 616.085C462.16 637.233 465.836 643.172 487.046 639.401C509.765 635.379 531.132 636.29 553.222 643.988C576.726 652.158 598.156 638.804 606.577 614.577C615.061 590.099 616.161 564.301 616.915 539.132C618.172 498.314 630.741 461.582 648.997 426.074C655.156 414.102 658.801 399.837 661.472 386.765C655.03 351.541 627.63 335.232 600.135 319.333Z" stroke="#D6DE23" stroke-width="4"/>
</g>
<mask id="mask30_234_1034" style="mask-type:luminance" maskUnits="userSpaceOnUse" x="0" y="-156" width="1920" height="1080">
<path d="M1920 -156H0V924H1920V-156Z" fill="white"/>
</mask>
<g mask="url(#mask30_234_1034)">
<path d="M0.0314224 246.936C12.349 247.973 19.9846 256.488 28.3744 264.124C41.5403 276.096 52.1611 290.613 67.4638 300.511C89.5851 314.808 102.5 312.64 117.897 290.958C140.866 258.625 144.669 223.086 134.99 185.694C128.612 161.027 113.246 146.258 83.2378 150.846C62.3105 154.051 41.7603 159.362 20.4874 161.121C13.3545 161.718 6.81865 158.67 0 160.524" stroke="#D6DE23" stroke-width="4"/>
</g>
<mask id="mask31_234_1034" style="mask-type:luminance" maskUnits="userSpaceOnUse" x="0" y="-156" width="1920" height="1080">
<path d="M1920 -156H0V924H1920V-156Z" fill="white"/>
</mask>
<g mask="url(#mask31_234_1034)">
<path d="M1.60237 37.977C35.7271 18.338 70.983 2.06102 111.581 3.53802C128.612 4.16602 142.092 -0.577976 149.256 -17.044C156.546 -33.792 150.953 -48.969 139.61 -60.7521C118.871 -82.3078 100.709 -105.183 89.3336 -133.181C86.9141 -139.151 81.0695 -143.676 77.0475 -149.017C57.597 -174.784 31.925 -185.216 0.03125 -180.408" stroke="#D6DE23" stroke-width="4"/>
</g>
<mask id="mask32_234_1034" style="mask-type:luminance" maskUnits="userSpaceOnUse" x="0" y="-156" width="1920" height="1080">
<path d="M1920 -156H0V924H1920V-156Z" fill="white"/>
</mask>
<g mask="url(#mask32_234_1034)">
<path d="M1919.94 4.98303C1904.51 22.548 1882.64 24.654 1861.77 28.393C1835 33.201 1807.89 35.149 1783.03 48.598C1768.04 56.736 1757.45 66.823 1755.13 83.571C1752.42 103.053 1763.11 117.758 1784.85 124.168C1792.83 126.525 1801.66 127.908 1809.9 127.248C1834.34 125.268 1856.31 132.213 1877.49 143.242C1890.97 150.249 1905.55 154.271 1919.91 158.953" stroke="#D6DE23" stroke-width="4"/>
</g>
<mask id="mask33_234_1034" style="mask-type:luminance" maskUnits="userSpaceOnUse" x="0" y="-156" width="1920" height="1080">
<path d="M1920 -156H0V924H1920V-156Z" fill="white"/>
</mask>
<g mask="url(#mask33_234_1034)">
<path fill-rule="evenodd" clip-rule="evenodd" d="M1888.55 858.07C1903.16 856.75 1913.31 846.95 1913.5 831.391C1913.87 798.367 1902 776.434 1874.5 766.661C1847.32 757.015 1820.58 747.179 1791.11 747.965C1779.04 748.279 1774.33 753.37 1773.6 765.373C1772.19 788.437 1782.87 804.62 1800.6 817.157C1827.37 836.136 1856.78 849.71 1888.55 858.07Z" stroke="#D6DE23" stroke-width="4"/>
</g>
<mask id="mask34_234_1034" style="mask-type:luminance" maskUnits="userSpaceOnUse" x="0" y="-156" width="1920" height="1080">
<path d="M1920 -156H0V924H1920V-156Z" fill="white"/>
</mask>
<g mask="url(#mask34_234_1034)">
<path fill-rule="evenodd" clip-rule="evenodd" d="M1382.46 84.953C1403.76 60.79 1418.47 33.012 1415.07 0.301987C1411.71 -32.315 1394.08 -57.6099 1363.6 -71.6871C1356.53 -74.955 1346.54 -79.6055 1340.19 -67.2879C1358.41 -36.6084 1368.53 12.7232 1370.56 80.7068C1370.67 84.4507 1373.8 87.395 1377.54 87.2833C1379.44 87.2268 1381.22 86.3819 1382.46 84.953Z" stroke="#D6DE23" stroke-width="4"/>
</g>
<mask id="mask35_234_1034" style="mask-type:luminance" maskUnits="userSpaceOnUse" x="0" y="-156" width="1920" height="1080">
<path d="M1920 -156H0V924H1920V-156Z" fill="white"/>
</mask>
<g mask="url(#mask35_234_1034)">
<path d="M0.03125 209.229C23.3781 211.68 35.4129 229.716 48.516 245.553C56.4973 255.199 65.107 263.935 75.5706 270.282C87.5111 277.541 95.9952 273.707 103.82 261.138C116.357 240.997 117.268 218.372 113.969 196.785C110.89 176.738 96.9378 169.951 73.8738 171.805C58.0684 173.061 42.3258 176.235 26.7717 179.597C17.7849 181.545 8.92378 180.32 0.03125 180.948" stroke="#D6DE23" stroke-width="4"/>
</g>
<mask id="mask36_234_1034" style="mask-type:luminance" maskUnits="userSpaceOnUse" x="0" y="-156" width="1920" height="1080">
<path d="M1920 -156H0V924H1920V-156Z" fill="white"/>
</mask>
<g mask="url(#mask36_234_1034)">
<path d="M1919.15 41.119C1898.04 53.594 1873.94 53.154 1850.81 56.83C1835.98 59.187 1820.8 59.815 1806.79 66.194C1803.8 67.545 1800.19 67.797 1797.45 69.494C1790.54 73.767 1783.94 79.957 1785.29 88.158C1786.58 96.014 1792.99 100.696 1802.04 102.676C1817.69 106.101 1833.46 106.478 1849.24 106.98C1871.96 107.672 1893.92 111.788 1915.26 119.581C1917.86 120.523 1919.62 121.529 1919.94 124.388" stroke="#D6DE23" stroke-width="4"/>
</g>
<mask id="mask37_234_1034" style="mask-type:luminance" maskUnits="userSpaceOnUse" x="0" y="-156" width="1920" height="1080">
<path d="M1920 -156H0V924H1920V-156Z" fill="white"/>
</mask>
<g mask="url(#mask37_234_1034)">
<path fill-rule="evenodd" clip-rule="evenodd" d="M1236.6 476.507C1265.5 462.43 1292.21 445.274 1309.93 417.936C1317.44 406.341 1320.49 391.981 1319.93 377.338C1319.58 368.666 1317.04 361.313 1308.68 358.768C1301.36 356.537 1294.38 360.433 1290.04 366.435C1282.72 376.521 1275.43 386.828 1269.68 397.857C1259.94 416.396 1246.18 431.856 1233.2 447.913C1227.7 454.732 1224.25 462.304 1220.79 470.034C1217.33 477.764 1229.21 480.09 1236.6 476.507Z" stroke="#D6DE23" stroke-width="4"/>
</g>
<mask id="mask38_234_1034" style="mask-type:luminance" maskUnits="userSpaceOnUse" x="0" y="-156" width="1920" height="1080">
<path d="M1920 -156H0V924H1920V-156Z" fill="white"/>
</mask>
<g mask="url(#mask38_234_1034)">
<path fill-rule="evenodd" clip-rule="evenodd" d="M900.156 541.143C877.029 534.293 853.84 527.223 829.613 524.709C827.791 524.521 825.465 523.578 823.297 523.484C810.571 522.949 798.945 529.171 798.285 537.592C797.122 552.235 809.691 553.241 818.647 554.498C847.838 558.614 877.218 561.348 906.598 564.176C914.422 564.93 932.176 568.041 926.991 556.446C921.806 544.851 909.771 544.003 900.156 541.143Z" stroke="#D6DE23" stroke-width="4"/>
</g>
<mask id="mask39_234_1034" style="mask-type:luminance" maskUnits="userSpaceOnUse" x="0" y="-156" width="1920" height="1080">
<path d="M1920 -156H0V924H1920V-156Z" fill="white"/>
</mask>
<g mask="url(#mask39_234_1034)">
<path d="M0.03125 4.983C16.4652 -6.768 34.7216 -12.739 55.0204 -12.33C66.4267 -12.11 77.3931 -13.901 88.0767 -18.458C105.422 -25.873 109.098 -33.195 105.422 -51.577C99.8601 -79.4798 81.4466 -99.8729 66.301 -122.434C50.0871 -146.661 28.1229 -156.433 0.03125 -155.239" stroke="#D6DE23" stroke-width="4"/>
</g>
<mask id="mask40_234_1034" style="mask-type:luminance" maskUnits="userSpaceOnUse" x="0" y="-156" width="1920" height="1080">
<path d="M1920 -156H0V924H1920V-156Z" fill="white"/>
</mask>
<g mask="url(#mask40_234_1034)">
<path d="M1919.94 316.065C1909.6 321.438 1902.28 329.891 1896.4 339.663C1886.38 356.348 1872.11 364.769 1852.41 366.718C1832.49 365.335 1812.94 372.028 1797.92 385.162C1777.19 403.293 1751.51 421.078 1729.83 419.947C1716.73 419.256 1703.5 418.816 1690.52 422.744C1682.79 425.1 1676.73 429.059 1676.79 437.041C1676.79 443.734 1681.91 447.127 1688.86 449.955C1710.57 458.879 1732.57 463.216 1755.03 462.524C1770.27 462.053 1784.85 455.737 1795.57 444.865C1804.81 435.501 1818.35 424.315 1833.09 420.638C1837.3 419.601 1841.41 418.313 1845.5 416.805L1920 389.342" stroke="#D6DE23" stroke-width="4"/>
</g>
<mask id="mask41_234_1034" style="mask-type:luminance" maskUnits="userSpaceOnUse" x="0" y="-156" width="1920" height="1080">
<path d="M1920 -156H0V924H1920V-156Z" fill="white"/>
</mask>
<g mask="url(#mask41_234_1034)">
<path fill-rule="evenodd" clip-rule="evenodd" d="M315.952 306.858C324.216 302.364 330.595 296.049 335.999 289.167C343.792 279.269 337.696 264.626 325.253 264.595C291.285 264.469 260.523 275.247 235.982 299.097C224.513 310.252 222.973 334.635 246.697 330.236C270.421 325.837 294.616 318.484 315.952 306.858Z" stroke="#D6DE23" stroke-width="4"/>
</g>
<mask id="mask42_234_1034" style="mask-type:luminance" maskUnits="userSpaceOnUse" x="0" y="-156" width="1920" height="1080">
<path d="M1920 -156H0V924H1920V-156Z" fill="white"/>
</mask>
<g mask="url(#mask42_234_1034)">
<path fill-rule="evenodd" clip-rule="evenodd" d="M548.351 790.542C539.93 777.093 525.35 780.393 513.787 780.141C491.948 779.701 471.304 775.994 450.879 768.735C445.6 766.85 438.499 765.373 433.848 767.415C424.139 771.657 421.625 780.738 425.899 790.511C434.917 811.124 438.593 832.585 438.499 854.96C438.467 865.42 430.329 878.87 446.292 884.62C459.74 889.46 466.496 878.18 474.509 870.64C496.065 850.31 513.755 826.112 537.291 807.699C542.161 803.865 548.728 797.895 548.351 790.542Z" stroke="#D6DE23" stroke-width="4"/>
</g>
<mask id="mask43_234_1034" style="mask-type:luminance" maskUnits="userSpaceOnUse" x="0" y="-156" width="1920" height="1080">
<path d="M1920 -156H0V924H1920V-156Z" fill="white"/>
</mask>
<g mask="url(#mask43_234_1034)">
<path fill-rule="evenodd" clip-rule="evenodd" d="M1486.03 730.745C1483.86 738.098 1484.33 745.483 1486.78 751.044C1493.22 765.656 1510.41 767.352 1522.44 755.946C1538.66 740.612 1544.06 696.212 1531.81 677.422C1528.95 673.054 1522.95 670.508 1517.73 669.566C1493.54 682.952 1492.66 708.184 1486.03 730.745Z" stroke="#D6DE23" stroke-width="4"/>
</g>
<mask id="mask44_234_1034" style="mask-type:luminance" maskUnits="userSpaceOnUse" x="0" y="-156" width="1920" height="1080">
<path d="M1920 -156H0V924H1920V-156Z" fill="white"/>
</mask>
<g mask="url(#mask44_234_1034)">
<path d="M1919.94 569.015C1895.33 569.58 1871.14 571.623 1849.14 584.569C1842.07 588.748 1837.3 593.43 1836.57 601.977C1835.76 611.56 1844.05 614.106 1849.36 615.708C1875.32 623.501 1896.62 639.746 1919.94 652.252" stroke="#D6DE23" stroke-width="4"/>
</g>
<mask id="mask45_234_1034" style="mask-type:luminance" maskUnits="userSpaceOnUse" x="0" y="-156" width="1920" height="1080">
<path d="M1920 -156H0V924H1920V-156Z" fill="white"/>
</mask>
<g mask="url(#mask45_234_1034)">
<path d="M0.03125 652.284C15.1769 657.437 27.0545 649.645 37.5496 641.035C52.0981 629.063 61.5563 612.786 69.0662 595.661C73.9053 584.6 74.1566 573.414 64.4157 564.333C55.6803 556.132 46.1907 554.718 34.4702 559.242C23.5666 563.453 11.5633 564.804 0.03125 567.444" stroke="#D6DE23" stroke-width="4"/>
</g>
<mask id="mask46_234_1034" style="mask-type:luminance" maskUnits="userSpaceOnUse" x="0" y="-156" width="1920" height="1080">
<path d="M1920 -156H0V924H1920V-156Z" fill="white"/>
</mask>
<g mask="url(#mask46_234_1034)">
<path d="M1.60254 521.881C44.0541 506.516 64.4158 462.493 56.5917 430.756C51.5012 410.08 29.8512 384.157 1.60254 389.907" stroke="#D6DE23" stroke-width="4"/>
</g>
<mask id="mask47_234_1034" style="mask-type:luminance" maskUnits="userSpaceOnUse" x="0" y="-156" width="1920" height="1080">
<path d="M1920 -156H0V924H1920V-156Z" fill="white"/>
</mask>
<g mask="url(#mask47_234_1034)">
<path fill-rule="evenodd" clip-rule="evenodd" d="M1742.06 740.739C1742.8 741.169 1743.7 740.517 1743.52 739.675C1738.93 717.617 1733.35 695.193 1718.8 677.453C1714 671.577 1706.86 666.487 1700.26 670.101C1693.98 673.557 1691.87 682.921 1693.98 689.897C1701.12 713.633 1720.76 728.423 1742.06 740.739Z" stroke="#D6DE23" stroke-width="4"/>
</g>
<mask id="mask48_234_1034" style="mask-type:luminance" maskUnits="userSpaceOnUse" x="0" y="-156" width="1920" height="1080">
<path d="M1920 -156H0V924H1920V-156Z" fill="white"/>
</mask>
<g mask="url(#mask48_234_1034)">
<path fill-rule="evenodd" clip-rule="evenodd" d="M1630.85 31.724C1650.74 31.41 1667.36 23.24 1682.76 11.362C1688.32 7.08903 1691.18 1.21302 1688.57 -4.25498C1685.56 -10.602 1677.11 -10.948 1671.83 -8.81098C1652.16 -0.923978 1629.44 1.99803 1616.71 22.266C1618.97 29.304 1624.47 31.85 1630.85 31.724Z" stroke="#D6DE23" stroke-width="4"/>
</g>
<mask id="mask49_234_1034" style="mask-type:luminance" maskUnits="userSpaceOnUse" x="0" y="-156" width="1920" height="1080">
<path d="M1920 -156H0V924H1920V-156Z" fill="white"/>
</mask>
<g mask="url(#mask49_234_1034)">
<path fill-rule="evenodd" clip-rule="evenodd" d="M1616.81 305.067C1615.49 294.446 1608.32 290.613 1599.4 289.544C1591.23 288.602 1581.77 288.727 1577.72 297.337C1573.22 306.89 1575.27 316.002 1583.47 324.14C1588.68 329.294 1594.75 331.022 1600.97 333.347C1614.01 328.1 1618.41 317.887 1616.81 305.067Z" stroke="#D6DE23" stroke-width="4"/>
</g>
<mask id="mask50_234_1034" style="mask-type:luminance" maskUnits="userSpaceOnUse" x="0" y="-156" width="1920" height="1080">
<path d="M1920 -156H0V924H1920V-156Z" fill="white"/>
</mask>
<g mask="url(#mask50_234_1034)">
<path fill-rule="evenodd" clip-rule="evenodd" d="M887.713 699.418C877.375 674.123 844.79 667.21 820.218 685.372C815.504 688.86 811.482 693.416 807.68 697.909C804.758 701.366 802.716 706.676 804.789 710.195C807.46 714.752 811.325 719.371 818.615 718.397C836.903 715.914 855.222 713.778 873.604 712.112C881.083 711.421 886.236 706.205 887.713 699.418Z" stroke="#D6DE23" stroke-width="4"/>
</g>
<mask id="mask51_234_1034" style="mask-type:luminance" maskUnits="userSpaceOnUse" x="0" y="-156" width="1920" height="1080">
<path d="M1920 -156H0V924H1920V-156Z" fill="white"/>
</mask>
<g mask="url(#mask51_234_1034)">
<path fill-rule="evenodd" clip-rule="evenodd" d="M270.659 591.425C252.511 592.795 267.867 625.286 273.144 642.506C278.421 659.726 302.376 623.368 309.83 607.465C317.285 591.561 288.807 590.054 270.659 591.425Z" stroke="#D6DE23" stroke-width="4"/>
</g>
<mask id="mask52_234_1034" style="mask-type:luminance" maskUnits="userSpaceOnUse" x="0" y="-156" width="1920" height="1080">
<path d="M1920 -156H0V924H1920V-156Z" fill="white"/>
</mask>
<g mask="url(#mask52_234_1034)">
<path d="M1916.8 427.614C1895.87 431.951 1879.5 445.651 1862.25 456.554C1852.44 462.744 1844.87 465.164 1835.16 460.482C1826.68 456.397 1817.81 455.046 1815.21 465.447C1812.88 474.779 1803.49 485.243 1816.09 495.361C1827.78 504.725 1841.41 501.237 1853.98 502.557C1873.43 504.599 1892.88 500.703 1912.08 496.838C1914.6 496.335 1917.3 496.775 1919.94 496.775" stroke="#D6DE23" stroke-width="4"/>
</g>
<mask id="mask53_234_1034" style="mask-type:luminance" maskUnits="userSpaceOnUse" x="0" y="-156" width="1920" height="1080">
<path d="M1920 -156H0V924H1920V-156Z" fill="white"/>
</mask>
<g mask="url(#mask53_234_1034)">
<path fill-rule="evenodd" clip-rule="evenodd" d="M1211.46 97.931C1198.39 103.053 1160.46 124.825 1149.96 133.906C1142.99 139.939 1135.45 141.981 1128 134C1123 128.627 1122.5 123.034 1128.09 118.352C1146.7 102.766 1190.28 73.673 1202.35 52.368C1209.42 39.862 1224 43.696 1230.16 58.433C1231.6 61.921 1232.32 65.754 1233.36 69.399C1230.75 82.22 1224.34 92.84 1211.46 97.931Z" stroke="#D6DE23" stroke-width="4"/>
</g>
<mask id="mask54_234_1034" style="mask-type:luminance" maskUnits="userSpaceOnUse" x="0" y="-156" width="1920" height="1080">
<path d="M1920 -156H0V924H1920V-156Z" fill="white"/>
</mask>
<g mask="url(#mask54_234_1034)">
<path d="M0.03125 495.172C11.9404 491.496 21.1785 484.771 26.8031 473.208C36.7012 452.909 26.5518 436.004 0.03125 429.185" stroke="#D6DE23" stroke-width="4"/>
</g>
<mask id="mask55_234_1034" style="mask-type:luminance" maskUnits="userSpaceOnUse" x="0" y="-156" width="1920" height="1080">
<path d="M1920 -156H0V924H1920V-156Z" fill="white"/>
</mask>
<g mask="url(#mask55_234_1034)">
<path d="M1919.94 -178.837C1888.67 -175.287 1876.13 -151.594 1865.11 -126.928C1857.12 -109.111 1853.6 -89.4721 1838.43 -74.9864C1817.44 -54.97 1790.76 -52.142 1764.4 -48.623C1732 -44.318 1699.73 -40.453 1668.53 -29.738C1620.2 -13.116 1585.32 19.218 1558.64 61.544C1534.82 99.313 1510.85 136.832 1477.01 166.903C1466.04 176.675 1453.35 183.745 1440.62 190.03C1377.49 221.295 1379.19 308.021 1410.96 352.138C1422.55 368.226 1436.32 383.151 1442.16 402.476C1451.65 433.836 1441.37 460.23 1407.75 479.398C1407.75 479.398 1271.66 546.171 1266.35 576.807C1260.85 602.668 1271.79 622.873 1288.32 641.255C1295.76 649.519 1303.49 657.626 1310.22 666.455C1324.55 685.183 1323.04 705.985 1318.36 727.698C1309.5 768.672 1316.72 805.531 1349.62 834.471C1363.57 846.73 1377.05 859.8 1392.29 870.23C1402.66 877.33 1411.21 886.13 1420.04 894.46C1450.14 922.96 1456.55 960.22 1432.86 1007.33" stroke="#D6DE23" stroke-width="4"/>
</g>
<mask id="mask56_234_1034" style="mask-type:luminance" maskUnits="userSpaceOnUse" x="0" y="-156" width="1920" height="1080">
<path d="M1920 -156H0V924H1920V-156Z" fill="white"/>
</mask>
<g mask="url(#mask56_234_1034)">
<path d="M1919.94 448.039C1914.19 450.144 1908.12 451.684 1902.75 454.48C1897.47 457.214 1894.89 462.336 1896.46 468.432C1898.16 474.999 1903.72 474.748 1908.97 474.748C1912.65 474.748 1916.29 474.748 1919.97 474.748" stroke="#D6DE23" stroke-width="4"/>
</g>
<mask id="mask57_234_1034" style="mask-type:luminance" maskUnits="userSpaceOnUse" x="0" y="-156" width="1920" height="1080">
<path d="M1920 -156H0V924H1920V-156Z" fill="white"/>
</mask>
<g mask="url(#mask57_234_1034)">
<path fill-rule="evenodd" clip-rule="evenodd" d="M1177.08 731.06C1171.02 739.104 1178.28 746.488 1184.75 751.076C1198.1 760.534 1245.24 759.214 1257.27 748.531C1271.22 736.182 1273.48 721.13 1270.47 705.796C1267.36 690.022 1252.48 671.587 1238.07 674.279C1223.66 676.971 1193.99 708.656 1177.08 731.06Z" stroke="#D6DE23" stroke-width="4"/>
</g>
<mask id="mask58_234_1034" style="mask-type:luminance" maskUnits="userSpaceOnUse" x="0" y="-156" width="1920" height="1080">
<path d="M1920 -156H0V924H1920V-156Z" fill="white"/>
</mask>
<g mask="url(#mask58_234_1034)">
<path fill-rule="evenodd" clip-rule="evenodd" d="M667.882 721.57C660.089 727.666 658.738 736.842 663.263 744.854C676.366 768.044 698.016 780.424 722.84 787.023C730.036 788.94 733.618 782.373 735.503 774.894C744.144 740.644 720.546 713.558 683.468 713.558C678.22 716.166 672.407 718.051 667.882 721.57Z" stroke="#D6DE23" stroke-width="4"/>
</g>
<mask id="mask59_234_1034" style="mask-type:luminance" maskUnits="userSpaceOnUse" x="0" y="-156" width="1920" height="1080">
<path d="M1920 -156H0V924H1920V-156Z" fill="white"/>
</mask>
<g mask="url(#mask59_234_1034)">
<path fill-rule="evenodd" clip-rule="evenodd" d="M790.304 669.566C767.523 694.421 772.299 730.086 801.364 748.059C828.199 764.682 857.673 765.404 887.713 760.628C900.722 758.554 907.226 751.547 907.069 737.124C906.975 728.546 909.143 719.936 915.522 711.609C932.239 689.834 928.216 675.317 903.361 660.234C885.168 649.205 864.052 641.789 842.151 642.857C821.506 645.214 804.318 654.264 790.304 669.566Z" stroke="#D6DE23" stroke-width="4"/>
</g>
<mask id="mask60_234_1034" style="mask-type:luminance" maskUnits="userSpaceOnUse" x="0" y="-156" width="1920" height="1080">
<path d="M1920 -156H0V924H1920V-156Z" fill="white"/>
</mask>
<g mask="url(#mask60_234_1034)">
<path d="M488.649 -185.122C461.343 -179.78 449.78 -158.507 438.185 -136.511C424.799 -111.091 413.016 -84.1618 389.543 -65.8739C375.026 -54.562 359.126 -45.01 344.138 -34.232C327.547 -22.291 319.848 -7.39698 325.41 3.31802C333.58 19.092 348.317 17.804 362.96 16.013C382.787 13.562 401.986 17.27 421.091 22.203C459.081 32.07 496.442 32.604 532.672 14.473C568.556 -3.46896 574.621 -15.347 560.575 -51.451C552.845 -71.31 550.017 -90.2891 554.228 -111.373C557.213 -126.362 555.484 -142.544 549.609 -156.716C538.642 -183.048 515.547 -187.101 490.252 -185.122" stroke="#D6DE23" stroke-width="4"/>
</g>
<mask id="mask61_234_1034" style="mask-type:luminance" maskUnits="userSpaceOnUse" x="0" y="-156" width="1920" height="1080">
<path d="M1920 -156H0V924H1920V-156Z" fill="white"/>
</mask>
<g mask="url(#mask61_234_1034)">
<path fill-rule="evenodd" clip-rule="evenodd" d="M498.076 55.228C470.455 66.1 443.526 61.009 416.283 52.431C400.509 47.435 384.672 42.156 367.704 40.868C345.803 39.202 334.554 47.906 334.742 69.399C335.057 99.628 336.156 130.013 325.158 158.921C309.196 200.839 284.969 234.021 237.333 244.045C207.513 250.329 189.948 269.12 185.109 300.291C182.25 318.704 172.289 334.761 160.16 348.932C156.012 353.803 152.116 359.302 151.33 364.832C150.073 373.536 156.2 377.527 164.967 379.066C187.843 383.089 210.215 378.815 232.525 375.547C278.056 368.854 322.645 358.673 362.991 334.949C374.963 327.911 383.667 318.516 391.617 306.858C411.601 277.541 432.811 248.758 465.114 231.224C510.613 206.558 556.27 213.911 601.769 231.224C628.667 241.499 652.077 258.373 677.215 272.011C681.959 274.587 686.641 277.258 691.355 279.866C712.408 291.43 733.932 282.663 736.697 253.126C737.922 240.148 738.174 226.825 736.697 213.879C729.533 151.443 764.443 120.492 809.031 101.921C833.447 91.772 860.281 88.221 882.968 73.893C888.876 70.153 895.914 68.205 899.056 60.004C903.77 47.686 899.653 39.422 886.173 39.579C863.675 39.831 841.742 45.55 820.312 50.986C751.057 68.519 684.096 65.848 619.083 34.772C608.148 29.556 594.856 28.33 582.916 28.55C553.222 32.949 525.727 44.324 498.076 55.228Z" stroke="#D6DE23" stroke-width="4"/>
</g>
<mask id="mask62_234_1034" style="mask-type:luminance" maskUnits="userSpaceOnUse" x="0" y="-156" width="1920" height="1080">
<path d="M1920 -156H0V924H1920V-156Z" fill="white"/>
</mask>
<g mask="url(#mask62_234_1034)">
<path d="M70.7322 34.835C52.9785 38.794 35.0364 41.465 21.8075 56.642C12.2552 67.577 6.34772 78.669 11.1554 92.935C15.5545 106.006 28.689 112.762 45.5943 113.516C73.2145 114.742 94.2361 103.43 108.25 80.303C121.887 57.804 111.141 37.883 84.8722 34.929C80.7245 34.458 74.1934 34.835 69.9828 34.835" stroke="#D6DE23" stroke-width="4"/>
</g>
<mask id="mask63_234_1034" style="mask-type:luminance" maskUnits="userSpaceOnUse" x="0" y="-156" width="1920" height="1080">
<path d="M1920 -156H0V924H1920V-156Z" fill="white"/>
</mask>
<g mask="url(#mask63_234_1034)">
<path fill-rule="evenodd" clip-rule="evenodd" d="M201.197 75.684C198.024 93.877 196.044 112.322 184.009 127.656C181.841 130.421 181.213 134.789 180.804 138.528C179.547 149.966 188 156.502 197.898 150.909C221.496 137.554 232.62 115.496 237.113 89.761C238.621 81.057 239.533 72.29 237.679 62.989C235.699 52.997 230.42 46.869 219.988 45.832C207.796 52.054 203.366 63.335 201.197 75.684Z" stroke="#D6DE23" stroke-width="4"/>
</g>
<mask id="mask64_234_1034" style="mask-type:luminance" maskUnits="userSpaceOnUse" x="0" y="-156" width="1920" height="1080">
<path d="M1920 -156H0V924H1920V-156Z" fill="white"/>
</mask>
<g mask="url(#mask64_234_1034)">
<path fill-rule="evenodd" clip-rule="evenodd" d="M1200.55 620.925C1188.24 656.589 1175.73 692.033 1153.39 723.079C1149.78 728.106 1147.48 734.328 1145.5 740.298C1138.24 762.168 1144.46 781.839 1175.23 779.168C1197.95 777.188 1219.5 776.937 1241.4 785.421C1259.6 792.459 1274.62 784.824 1283.57 766.944C1299.03 736.15 1298.5 694.139 1273.92 665.136C1258.78 647.288 1248.38 627.209 1238.17 606.722C1234.08 598.552 1229.5 589.597 1217.65 591.011C1206.68 597.955 1204.29 610.084 1200.55 620.925Z" stroke="#D6DE23" stroke-width="4"/>
</g>
<mask id="mask65_234_1034" style="mask-type:luminance" maskUnits="userSpaceOnUse" x="0" y="-156" width="1920" height="1080">
<path d="M1920 -156H0V924H1920V-156Z" fill="white"/>
</mask>
<g mask="url(#mask65_234_1034)">
<path fill-rule="evenodd" clip-rule="evenodd" d="M491.76 83.445C468.382 88.787 445.286 88.127 422.599 78.983C412.513 74.898 401.892 71.567 391.208 69.619C374.743 66.634 366.447 73.233 361.326 89.792C353.093 116.439 353.439 144.373 349.385 171.585C343.478 211.46 321.796 235.938 286.163 251.995C264.45 261.798 240.601 267.58 221.59 283.04C205.565 296.08 195.541 312.451 193.279 333.316C191.833 346.513 198.244 353.017 210.593 355.343C242.172 361.282 271.175 349.938 299.958 340.606C314.601 335.861 329.903 330.519 342.504 320.684C365.222 302.993 365.819 276.912 367.61 251.617C370.721 207.783 369.15 163.415 384.892 121.183C393.911 96.957 397.367 94.474 419.394 108.866C488.586 154.114 565.822 183.777 637.937 223.275C650.348 230.093 663.64 234.964 677.215 238.986C692.077 243.416 699.336 239.677 703.798 224.846C705.62 218.781 706.343 212.34 707.003 206.024C709.517 182.425 712.282 159.016 725.762 138.371C727.993 134.946 728.307 130.139 729.03 125.897C733.775 98.214 728.653 82.691 699.084 77.978C665.463 72.604 633.003 63.586 600.167 55.385C593.128 53.625 583.985 54.222 576.632 53.688C547.095 60.098 521.14 76.752 491.76 83.445Z" stroke="#D6DE23" stroke-width="4"/>
</g>
<mask id="mask66_234_1034" style="mask-type:luminance" maskUnits="userSpaceOnUse" x="0" y="-156" width="1920" height="1080">
<path d="M1920 -156H0V924H1920V-156Z" fill="white"/>
</mask>
<g mask="url(#mask66_234_1034)">
<path fill-rule="evenodd" clip-rule="evenodd" d="M513.787 100.822C497.385 109.054 496.63 115.904 510.613 127.562C518.06 133.784 527.079 136.455 535.72 140.288C570.473 155.685 603.906 173.627 636.46 193.361C666.688 211.711 678 209.166 687.741 169.825C691.198 155.874 689.815 140.602 689.595 125.96C689.438 114.396 679.414 110.814 670.867 107.2C645.227 96.36 618.235 90.609 590.803 86.65C587.661 86.21 582.916 85.645 579.774 85.111C557.338 88.504 534.557 90.421 513.787 100.822Z" stroke="#D6DE23" stroke-width="4"/>
</g>
<mask id="mask67_234_1034" style="mask-type:luminance" maskUnits="userSpaceOnUse" x="0" y="-156" width="1920" height="1080">
<path d="M1920 -156H0V924H1920V-156Z" fill="white"/>
</mask>
<g mask="url(#mask67_234_1034)">
<path fill-rule="evenodd" clip-rule="evenodd" d="M240.758 573.665C242.895 586.266 247.105 598.489 248.457 611.404C249.776 624.004 248.865 635.662 238.778 644.334C226.995 654.421 226.869 667.021 232.934 678.805C239.815 692.19 249.462 704.791 267.121 703.974C283.43 703.188 288.897 689.771 293.642 677.359C300.9 658.443 310.893 643.926 331.38 636.164C365.316 623.313 358.058 599.62 335.811 588.811C308.913 575.739 282.487 557.86 252.981 550.161C238.59 552.581 239.124 563.924 240.758 573.665Z" stroke="#D6DE23" stroke-width="4"/>
</g>
<mask id="mask68_234_1034" style="mask-type:luminance" maskUnits="userSpaceOnUse" x="0" y="-156" width="1920" height="1080">
<path d="M1920 -156H0V924H1920V-156Z" fill="white"/>
</mask>
<g mask="url(#mask68_234_1034)">
<path fill-rule="evenodd" clip-rule="evenodd" d="M535.908 388.462C517.275 410.269 495.719 427.174 468.382 437.481C450.534 444.205 448.271 462.462 463.763 472.831C485.758 487.537 504.077 505.605 521.862 524.835C536.222 540.389 544.769 537.718 551.431 517.168C560.512 489.108 560.701 459.351 567.205 430.788C569.813 419.413 570.316 407.881 570.536 396.223C570.724 385.163 566.482 376.929 554.636 374.196C545.901 375.642 540.967 382.523 535.908 388.462Z" stroke="#D6DE23" stroke-width="4"/>
</g>
<mask id="mask69_234_1034" style="mask-type:luminance" maskUnits="userSpaceOnUse" x="0" y="-156" width="1920" height="1080">
<path d="M1920 -156H0V924H1920V-156Z" fill="white"/>
</mask>
<g mask="url(#mask69_234_1034)">
<path fill-rule="evenodd" clip-rule="evenodd" d="M555.233 123.98C572.39 144.279 596.616 151.694 620.717 158.701C629.138 161.152 637.748 163.698 647.458 160.838C663.986 155.968 668.259 146.101 656.696 133.909C637.151 113.265 610.724 105.912 582.916 107.106C572.861 110.374 560.292 109.4 555.233 123.98Z" stroke="#D6DE23" stroke-width="4"/>
</g>
<mask id="mask70_234_1034" style="mask-type:luminance" maskUnits="userSpaceOnUse" x="0" y="-156" width="1920" height="1080">
<path d="M1920 -156H0V924H1920V-156Z" fill="white"/>
</mask>
<g mask="url(#mask70_234_1034)">
<path fill-rule="evenodd" clip-rule="evenodd" d="M390.203 187.327C388.003 199.362 388.223 212.465 391.208 224.94C394.413 238.389 399.661 242.191 413.235 240.651C437.965 237.823 489.938 206.889 480.656 185.411C471.373 163.934 431.982 136.942 410.093 135.386C388.205 133.83 393.534 169.102 390.203 187.327Z" stroke="#D6DE23" stroke-width="4"/>
</g>
<mask id="mask71_234_1034" style="mask-type:luminance" maskUnits="userSpaceOnUse" x="0" y="-156" width="1920" height="1080">
<path d="M1920 -156H0V924H1920V-156Z" fill="white"/>
</mask>
<g mask="url(#mask71_234_1034)">
<path fill-rule="evenodd" clip-rule="evenodd" d="M410.25 218.498C419.331 228.491 429.544 222.175 438.279 216.959C454.776 207.061 461.689 187.265 441.358 171.742C436.519 168.066 429.638 163.635 422.662 163.666C404.249 173.345 396.896 203.761 410.25 218.498Z" stroke="#D6DE23" stroke-width="4"/>
</g>
<mask id="mask72_234_1034" style="mask-type:luminance" maskUnits="userSpaceOnUse" x="0" y="-156" width="1920" height="1080">
<path d="M1920 -156H0V924H1920V-156Z" fill="white"/>
</mask>
<g mask="url(#mask72_234_1034)">
<path fill-rule="evenodd" clip-rule="evenodd" d="M820.186 235.938C827.382 252.749 835.489 269.214 841.962 286.308C847.901 301.956 848.938 318.547 845.136 334.918C842.465 346.419 841.962 357.888 842.182 369.514C842.465 385.163 851.986 395.155 867.288 396.223C879.292 397.072 886.142 390.473 889.221 374.228C894.28 347.519 890.384 321.155 882.591 295.797C875.332 272.199 867.728 248.758 860.69 225.066C856.385 210.549 851.358 193.707 831.153 191.947C814.09 199.614 810.54 213.439 820.186 235.938Z" stroke="#D6DE23" stroke-width="4"/>
</g>
<mask id="mask73_234_1034" style="mask-type:luminance" maskUnits="userSpaceOnUse" x="0" y="-156" width="1920" height="1080">
<path d="M1920 -156H0V924H1920V-156Z" fill="white"/>
</mask>
<g mask="url(#mask73_234_1034)">
<path fill-rule="evenodd" clip-rule="evenodd" d="M1005.58 225.034C991.721 229.747 985.342 238.766 986.882 253.188C988.987 272.796 991.438 292.466 997.722 311.32C1006.33 337.118 1016.86 340.448 1038.07 324.831C1058.12 310.063 1074.42 290.11 1091.83 271.916C1097.52 265.977 1095.79 257.336 1094.88 250.078C1093.25 237.194 1087.06 225.882 1079.39 215.482C1073.73 207.815 1063.71 209.292 1055.82 209.229C1039.07 214.476 1022.2 219.378 1005.58 225.034Z" stroke="#D6DE23" stroke-width="4"/>
</g>
<mask id="mask74_234_1034" style="mask-type:luminance" maskUnits="userSpaceOnUse" x="0" y="-156" width="1920" height="1080">
<path d="M1920 -156H0V924H1920V-156Z" fill="white"/>
</mask>
<g mask="url(#mask74_234_1034)">
<path fill-rule="evenodd" clip-rule="evenodd" d="M1023.02 244.107C1013.34 249.355 1009.16 264.438 1013.4 272.073C1018.56 281.343 1034.33 286.119 1044.82 281.469C1051.86 278.358 1056.95 272.985 1062.33 267.58C1068.99 260.887 1070.31 252.56 1067.86 245.553C1065.09 237.603 1054.44 236.912 1046.4 237.509C1038.54 239.614 1029.96 240.337 1023.02 244.107Z" stroke="#D6DE23" stroke-width="4"/>
</g>
<mask id="mask75_234_1034" style="mask-type:luminance" maskUnits="userSpaceOnUse" x="0" y="-156" width="1920" height="1080">
<path d="M1920 -156H0V924H1920V-156Z" fill="white"/>
</mask>
<g mask="url(#mask75_234_1034)">
<path fill-rule="evenodd" clip-rule="evenodd" d="M1555.25 270.188C1537.43 281.249 1532.44 296.677 1544.63 312.766C1554.78 326.151 1561.66 340.197 1565.24 356.82C1569.36 375.987 1579.07 381.298 1597.86 378.941C1608.29 377.653 1618.79 376.364 1629.28 375.862C1644.96 375.107 1656.24 366.403 1665.2 355.154C1675.28 342.491 1668.53 328.602 1661.74 317.95C1652.75 303.842 1641.16 291.461 1635.47 275.216C1632.89 267.894 1626.61 267.015 1619.82 267.297C1604.52 267.989 1587.77 267.203 1572.72 264.218C1557.67 261.233 1560.97 266.637 1555.25 270.188Z" stroke="#D6DE23" stroke-width="4"/>
</g>
<mask id="mask76_234_1034" style="mask-type:luminance" maskUnits="userSpaceOnUse" x="0" y="-156" width="1920" height="1080">
<path d="M1920 -156H0V924H1920V-156Z" fill="white"/>
</mask>
<g mask="url(#mask76_234_1034)">
<path fill-rule="evenodd" clip-rule="evenodd" d="M493.834 374.699C471.87 395.532 446.386 409.138 419.52 421.361C408.742 426.263 398.844 432.485 391.24 441.786C384.453 450.081 384.421 458.628 391.24 466.892C398.404 475.565 408.019 480.844 417.886 485.808C436.645 495.235 455.813 503.845 471.43 518.645C485.35 531.874 494.651 547.396 499.773 565.841C501.909 573.445 505.68 580.641 509.074 587.868C515.578 601.757 526.23 608.701 542.036 608.45C558.187 608.198 563.56 596.509 568.651 584.695C578.8 561.159 581.848 535.958 586.373 510.946C592.312 478.236 602.241 446.185 607.457 413.38C610.599 393.584 610.191 372.248 595.36 355.437C584.739 343.371 570.096 335.798 553.065 338.06C528.807 342.9 510.551 358.831 493.834 374.699Z" stroke="#D6DE23" stroke-width="4"/>
</g>
<mask id="mask77_234_1034" style="mask-type:luminance" maskUnits="userSpaceOnUse" x="0" y="-156" width="1920" height="1080">
<path d="M1920 -156H0V924H1920V-156Z" fill="white"/>
</mask>
<g mask="url(#mask77_234_1034)">
<path fill-rule="evenodd" clip-rule="evenodd" d="M92.7898 470.034C93.324 481.504 99.2314 484.991 110.041 481.064C124.055 475.942 128.36 463.781 130.151 451.15C131.722 440.057 128.001 416.983 116.294 422.901C104.586 428.819 91.8157 450.018 92.7898 470.034Z" stroke="#D6DE23" stroke-width="4"/>
</g>
<mask id="mask78_234_1034" style="mask-type:luminance" maskUnits="userSpaceOnUse" x="0" y="-156" width="1920" height="1080">
<path d="M1920 -156H0V924H1920V-156Z" fill="white"/>
</mask>
<g mask="url(#mask78_234_1034)">
<path d="M1558.17 479.053C1495.7 506.893 1475.66 543.845 1473.55 564.364C1473.11 568.669 1473.02 573.131 1474.62 577.153C1477.54 584.38 1485.68 588.497 1493.5 588.654C1513.43 589.031 1527.44 568.606 1532.44 549.344C1537.43 530.082 1547.55 495.958 1558.14 479.053C1572.63 455.957 1603.11 447.379 1630.19 450.584C1657.28 453.789 1682.13 466.452 1707.02 477.576C1762.51 502.399 1791.89 525.998 1852.35 532.062C1863.75 533.193 1904.95 528.354 1915.92 525.118" stroke="#D6DE23" stroke-width="4"/>
</g>
</g>
</g>
<defs>
<clipPath id="clip0_234_1034">
<rect width="1920" height="768" fill="white"/>
</clipPath>
<clipPath id="clip1_234_1034">
<rect width="1920" height="1080" fill="white" transform="translate(0 -156)"/>
</clipPath>
</defs>
</svg>
