<svg width="1920" height="768" viewBox="0 0 1920 768" fill="none" xmlns="http://www.w3.org/2000/svg">
<g clip-path="url(#clip0_195_2652)">
<path d="M1252.78 1138.29C1270.5 1107.37 1273.01 1072.7 1277.7 1038.48C1280.32 1019.53 1279.52 1000.71 1275.66 982.394C1264.53 929.485 1240.79 918.626 1193.38 924.699C1181.73 926.185 1170.3 929.353 1158.68 931.135C1128.07 935.79 1113.81 905.291 1119.38 883.439C1123.45 867.464 1131.74 853.006 1140.28 838.648C1156.3 811.779 1175.91 786.924 1182.19 754.708C1188.4 722.723 1178.78 698.231 1153.77 678.724C1151.58 677.041 1149.56 674.961 1147.12 673.839C1087 646.112 1089.81 589.867 1099.81 543.49C1106.58 512.232 1125.2 487.212 1153.72 470.74C1169.47 461.663 1183.77 450.441 1196.55 437.634C1229.9 404.296 1240.52 364.851 1228.35 318.839C1224.71 305.14 1219.39 290.979 1226.13 275.895C1231.55 263.814 1240.06 254.605 1249.6 246.451C1270.41 228.727 1290.32 209.978 1302 185.09C1319.51 147.923 1314.89 110.227 1296.92 74.8438C1284.51 50.4174 1254.1 44.476 1224.74 58.2402C1198.66 70.4528 1176.74 89.2014 1153.92 106.3C1133.98 121.252 1112.49 132.937 1089.18 140.166C1070.2 146.074 1053.29 155.977 1045.5 172.349C1027.11 210.968 995.577 229.948 957.443 243.415C934.793 251.403 914.851 264.936 902.668 287.48C893.259 304.876 891.343 322.601 894.282 342.043C898.938 372.971 909.998 402.282 915.776 432.815C918.945 449.616 920.629 466.549 916.305 484.01C906.234 524.51 891.409 526.458 859.879 522.036C828.48 517.612 799.689 504.31 769.182 496.85C736.496 488.862 705.856 488.697 681.886 515.532C665.344 534.05 656.198 556.858 649.959 581.218C638.172 627.363 636.323 674.862 628.729 721.569C625.79 739.69 622.092 757.514 614.169 774.513C603.009 798.543 588.878 805.408 557.743 801.052C531.561 797.388 506.897 787.584 480.253 785.306C460.145 783.59 440.567 787.981 420.757 785.901C415.804 785.372 411.017 786.098 405.8 784.647C389.887 780.257 382.82 768.869 389.523 754.642C392.561 748.206 396.688 742.165 401.013 736.488C430.728 697.341 411.777 680.077 384.439 660.503C364.728 646.409 342.144 637.86 319.891 629.608C291.728 619.144 266.14 603.829 239.232 591.088C216.615 580.393 194.328 570.491 168.18 572.801C144.242 574.914 126.644 594.719 121.791 615.91C114.923 645.947 120.47 675.555 124.036 705.031C126.941 729.226 129.947 753.256 130.54 777.682C131.101 801.217 139.191 822.804 153.289 842.113C178.216 876.31 185.15 912.222 163.59 951.172C160.882 956.09 158.934 962.856 156.128 967.147C136.12 997.615 123.111 1031.11 110.367 1064.85C108.65 1069.43 106.042 1073.67 103.829 1078.09" stroke="#D6DE23" stroke-width="4.20219"/>
<path d="M-46.3987 413.088C-28.278 419.49 -13.524 431.304 1.49403 442.722C7.79834 447.507 14.5318 451.765 21.2651 455.955C50.179 474.072 87.873 465.361 105.102 440.907C112.958 429.753 119.13 416.816 121.77 403.155C130.782 356.425 154.844 323.689 202.703 310.489C221.483 305.307 237.591 294.945 249.177 277.883C273.734 241.715 280.73 201.85 279.08 158.949C278.025 131.691 273.106 105.059 270.532 78.0975C267.298 44.2392 276.275 28.1675 306.84 15.5616C328.161 6.7504 344.401 -7.24188 354.435 -27.6033C363.116 -45.2586 371.236 -63.409 377.473 -82.0543C388.597 -115.253 409.985 -134.195 445.402 -136.472C451.442 -136.868 457.647 -137.363 463.588 -137.627C499.797 -139.211 535.806 -136.241 570.761 -126.275C588.716 -121.16 593.998 -109.742 588.848 -91.9215C586.274 -82.9123 582.346 -74.2991 579.078 -65.488C572.313 -47.2717 564.324 -29.3193 564.258 -9.38687C564.061 46.0876 601.325 99.9769 666.513 114.497C709.851 124.134 752.825 118.59 795.173 110.637C858.976 98.6567 920.533 78.1311 981.859 56.9112C1001.47 50.1467 1021.9 45.031 1042.82 43.5134C1050.54 42.9526 1059.49 42.8529 1062.3 51.7966C1064.61 59.1881 1059.82 64.832 1052.76 68.2631C1049.23 69.9792 1046.55 73.049 1043.05 75.1936C1017.01 91.1329 995.524 111.989 978.328 137.4C964.069 158.487 944.331 170.797 919.18 177.628C888.187 186.043 857.391 195.679 828.181 209.902C769.099 238.68 733.219 278.478 755.103 347.185C760.517 364.181 761.441 383.09 757.381 401.504C752.859 421.998 738.732 438.069 711.106 426.156C702.094 422.262 693.281 417.74 684.7 412.988C647.006 392.132 611.293 367.481 570.728 352.136C548.02 343.555 525.146 337.219 499.763 340.024C457.086 344.743 427.776 369.032 404.341 401.67C378.2 438.102 345.886 464.799 301.756 475.722C258.22 486.513 214.222 494.995 169.697 500.209C142.367 503.411 114.542 508.228 87.2785 500.242C70.9402 495.457 55.394 488.098 39.2867 482.455C33.5435 480.442 27.5034 475.326 21.1 482.257C14.7298 489.154 17.7994 495.721 21.2321 502.09C36.7452 530.768 35.557 559.974 24.4667 589.574C21.1991 598.32 22.5194 605.712 29.3187 612.774C53.3146 637.69 91.4707 631.849 103.287 599.344C116.819 562.086 141.211 540.338 179.467 529.646C219.932 518.327 260.762 509.021 301.822 500.869C342.817 492.718 378.992 479.946 404.803 443.283C418.369 424.01 435.566 406.355 455.006 391.34C486.99 366.655 521.416 360.682 559.142 373.553C588.551 383.585 614.066 400.613 638.424 419.589C660.539 436.815 682.092 454.602 709.257 464.437C756.358 481.465 794.612 448.234 797.418 413.088C799.036 392.99 797.088 373.784 791.477 355.402C771.804 291.117 801.741 239.339 866.105 226.535C884.292 222.938 902.28 217.856 920.599 215.215C959.778 209.605 989.814 190.564 1007.74 155.451C1023.02 125.586 1047.01 107.996 1077.25 95.9839C1109.83 83.0147 1141.38 67.4387 1169.57 46.4835C1192.57 29.3564 1217.96 18.2676 1245.71 14.1426C1269.78 10.5785 1290.47 15.8257 1305.79 39.6518C1318.7 59.7164 1328.63 80.5729 1334.34 102.914C1344.5 142.813 1342.46 181.753 1316.71 216.734C1307.31 229.505 1299.28 243.233 1290.18 256.235C1268.16 287.585 1261.23 322.633 1263.8 360.22C1266.77 403.716 1258.25 443.019 1222.61 472.456C1204.85 487.108 1187.52 502.288 1169.74 516.907C1153.79 530.042 1138.64 544.067 1133.65 564.857C1123.59 606.703 1160.49 655.972 1204.42 660.526C1204.42 660.526 1267.9 674.75 1379.36 584.625C1387.05 577.463 1395.3 570.831 1402.33 563.075C1416.72 547.236 1422.96 529.315 1419.37 507.008C1414.94 479.65 1402.27 455.428 1394.24 429.522C1375.66 369.659 1374.81 311.842 1415.77 259.667C1429.99 241.55 1446.43 225.182 1460 206.635C1488.55 167.562 1501.29 122.385 1502.54 74.7651C1503.23 48.7604 1497.86 23.515 1478.87 1.73432C1459.54 -20.4091 1434.22 -33.9724 1412.27 -52.1558C1390.85 -69.8771 1382.04 -95.4196 1391.08 -121.556C1396.66 -137.627 1406.4 -151.521 1419.1 -162.741C1448.54 -188.812 1461.11 -221.284 1458.68 -260.192C1457.89 -272.765 1460.95 -284.315 1468.41 -294.909C1485.78 -319.56 1502.37 -344.707 1514.72 -372.394" stroke="#D6DE23" stroke-width="4.20219"/>
<path d="M-46.3987 -128.15C-2.90926 -134.884 29.7902 -117.852 56.2204 -83.8564C67.4722 -69.3997 76.8758 -53.92 87.0061 -38.9023C109.18 -5.96246 138.282 16.3165 178.011 21.8286C242.947 30.8059 292.278 1.23287 334.678 -44.0182C353.354 -63.9538 357.412 -90.5236 365.959 -114.981C373.548 -136.699 387.209 -150.033 410.537 -154.819C451.551 -163.236 492.929 -164.193 534.306 -162.311C553.048 -161.453 572.186 -159.704 590.5 -153.103C616.237 -143.828 623.068 -131.484 620.46 -103.363C617.92 -75.935 605.117 -51.9067 598.485 -25.8649C594.987 -12.2005 589.18 1.06783 593.799 15.4254C602.873 43.7447 620.064 64.5709 648.111 76.6841C689.027 94.3759 731.262 91.7016 773.564 86.1902C835.399 78.1368 892.517 53.7781 949.964 31.4992C992.43 15.0294 1034.2 3.41126 1080.56 11.5968C1114.05 17.5048 1147.52 15.0954 1177.97 -4.14706C1188.46 -10.7813 1200.54 -15.6661 1212.52 -19.0327C1261.55 -32.8623 1301.93 -20.353 1327.55 14.0392C1343.64 35.6913 1353.47 61.0069 1359.65 87.9065C1369.61 131.276 1372.22 173.788 1352.52 214.979C1342.55 235.805 1330.64 255.742 1319.72 276.14C1306.49 300.861 1297.08 325.648 1301.04 355.419C1308.9 414.532 1290.62 464.999 1245.74 505.827C1230.31 519.888 1214.63 533.949 1200.57 549.758C1187.01 564.941 1177.8 580.322 1181.14 601.248C1181.14 601.248 1191 665.84 1309.82 584.745C1325.16 577.747 1337.9 567.02 1351.2 556.887C1374.46 539.163 1376.48 514.64 1373.8 489.06C1372.48 476.187 1368.23 463.481 1364.1 451.104C1352.29 415.556 1347.63 379.414 1352.65 342.151C1359.06 294.622 1372.02 250.197 1405.15 213.13C1420.3 196.166 1433.43 176.891 1444.78 157.153C1469.56 114.014 1477.71 69.6538 1450.29 23.512C1437.06 1.23287 1414.99 -9.92318 1395.35 -23.8516C1372.35 -40.1565 1358.06 -59.828 1355.72 -88.5432C1354.17 -107.456 1360.37 -124.223 1365.95 -141.353C1375.48 -170.662 1367.76 -185.151 1337.87 -194.228C1325.99 -197.825 1313.88 -198.915 1301.58 -199.179C1266.86 -199.971 1231.91 -195.351 1197.61 -205.549C1144.94 -221.227 1091.78 -235.288 1053.93 -279.813C1046.28 -288.79 1034.83 -292.057 1022.79 -291.529C1010.68 -291.002 998.37 -291.728 986.524 -289.648C940.856 -281.628 884.169 -328.827 882.552 -372.394" stroke="#D6DE23" stroke-width="4.20219"/>
<path d="M1202.08 1140.27C1217.13 1131.94 1222.54 1116.56 1228.22 1102.19C1240.32 1071.57 1248.41 1040.03 1243.36 1006.51C1238.08 971.595 1215.81 956.141 1180.6 961.69C1164.83 964.167 1148.86 969.777 1132.86 966.643C1096.14 959.444 1079.25 932.065 1076.87 894.216C1075.36 870.008 1084.5 848.706 1096.37 828.097C1108.78 806.564 1123.63 786.286 1131.21 762.143C1137.48 742.195 1135.9 725.021 1119.93 708.97C1104.55 693.514 1084.13 683.243 1073.38 663.064C1041.21 602.724 1034.61 519.266 1096.11 467.712C1122.27 445.781 1151.34 426.593 1172.36 398.818C1181.56 386.664 1187.3 373.586 1187.59 357.568C1187.9 340.46 1181.63 328.405 1167.51 319.522C1161.21 315.558 1155.43 310.703 1149.29 306.41C1131.75 294.09 1130.29 280.418 1144.28 265.06C1159.19 248.712 1180.01 242.735 1198.97 234.18C1227.62 221.267 1252.89 204.589 1265.92 175.724C1276.71 151.845 1275.79 128.595 1259.91 113.138C1246.45 100.027 1223.29 97.1209 1208.81 108.415C1201.52 114.129 1193.9 120.504 1189.18 128.265C1171.99 156.502 1145.67 167.995 1114.68 172.784C1085.62 177.243 1064.94 194.351 1054.08 220.772C1044.41 244.32 1030.62 258.719 1004.16 260.635C992.975 261.46 981.956 266.315 971.167 270.212C929.728 285.173 921.877 306.641 926.166 344.489C930.817 385.244 946.093 423.257 953.121 463.319C956.189 480.856 960.873 498.029 958.036 516.195C953.219 547.008 930.785 564.975 900.2 562.498C867.339 559.823 837.019 548.065 806.073 537.991C787.102 531.815 767.174 529.933 746.785 530.759C709.339 532.245 689.675 553.911 682.813 588.952C676.743 619.997 673.707 651.636 669.253 683.011C666.317 703.752 657.574 722.776 651.305 742.525C648.105 752.665 645.037 763.366 644.872 773.835C644.509 798.67 652.79 808.545 682.483 809.801C684.034 809.866 686.805 808.579 689.082 808.545C731.939 807.654 729.465 813.797 741.837 844.842C745.961 855.179 749.128 865.945 753.515 876.151C764.436 901.482 782.286 911.886 809.471 907.262C822.701 905.016 835.898 903.299 849.095 904.455C886.014 907.626 904.621 920.505 911.187 947.357C914.618 961.392 913.365 977.113 910.032 991.775C900.893 1032 885.914 1070.81 881.691 1112.29C880.735 1121.74 881.394 1131.08 880.438 1140.39" stroke="#D6DE23" stroke-width="4.20219"/>
<path d="M675.949 1140.39C669.809 1107.56 677.435 1078.99 698.625 1052.54C711.267 1036.75 720.113 1017.66 726.945 998.343C734.999 975.452 726.549 954.45 705.722 940.512C698.295 935.526 690.505 931.398 682.749 927.038C665.552 917.427 649.213 905.769 639.74 887.703C618.285 846.717 582.835 834.035 538.969 832.847C480.183 831.228 421.727 825.185 365.647 805.236C360.729 803.486 355.118 802.892 350.893 800.117C330.462 786.576 328.91 770.922 345.876 752.426C352.709 744.995 360.399 738.324 367.232 730.86C383.24 713.357 380.039 695.257 359.047 683.038C355.218 680.792 351.586 677.687 347.46 676.565C302.273 664.576 262.831 640.235 221.901 618.966C210.843 613.22 198.829 608.331 185.791 606.911C170.838 605.294 163.544 613.847 162.752 626.893C161.464 647.931 163.512 668.605 172.621 687.959C180.741 705.232 181.764 723.198 175.658 740.736C162.983 777.098 167.472 809.233 193.878 838.362C222.396 869.803 218.897 906.034 205.233 942.131C198.928 958.843 190.776 975.388 180.444 989.882C160.937 1017.26 147.073 1046.72 139.548 1079.33" stroke="#D6DE23" stroke-width="4.20219"/>
<path d="M1775.48 -372.36C1722.79 -298.604 1651.04 -266.249 1561.04 -273.215C1551.2 -273.975 1541.21 -273.876 1531.38 -273.182C1518.41 -272.258 1512.47 -263.442 1508.02 -251.953C1503.23 -239.539 1502.91 -226.498 1500.27 -213.82C1496.04 -193.516 1488.82 -174.73 1476.97 -157.727C1475.16 -155.085 1473.68 -152.213 1472 -149.506C1455.2 -122.433 1455.5 -104.836 1477.17 -82.0551C1504.92 -52.9024 1532.14 -23.4856 1556.39 8.77049C1569.02 25.5426 1590.8 29.5374 1612.05 18.5762C1658.33 -5.2941 1708.61 -12.8546 1758.98 -20.8774C1789.34 -25.6977 1818.2 -32.6969 1836.81 -61.8497C1861.72 -100.874 1852.08 -125.636 1829.72 -150.992C1816.69 -165.782 1800.98 -178.56 1793.82 -197.477C1779.74 -234.587 1776.11 -270.904 1803.39 -304.844C1815.3 -319.667 1831.5 -326.271 1848.12 -332.676C1855.08 -335.35 1862.35 -337.298 1869.54 -339.345C1887.98 -344.528 1902.33 -354.763 1910.77 -372.394" stroke="#D6DE23" stroke-width="4.20219"/>
<path d="M1960.15 800.008C1908.49 783.91 1864.99 753.263 1821.49 722.516C1788.48 699.16 1759.87 670.162 1725.75 648.357C1710.69 638.756 1695.21 630.376 1676.3 629.849C1658.64 629.354 1647.19 637.371 1638.28 651.49C1624.54 673.23 1618.58 697.412 1615.24 722.45C1612.46 743.333 1610.42 764.347 1606.82 785.097C1602.17 811.72 1605.9 834.449 1628.24 852.99C1649.13 870.309 1654.38 894.623 1649.53 920.288C1646.53 936.256 1641.28 951.991 1633.4 966.539C1628.01 976.433 1625 987.163 1621.64 997.809C1617.95 1009.49 1621.38 1019.15 1628.61 1027.4C1635.8 1035.61 1645.94 1033.44 1654.78 1030.7C1676.96 1023.81 1696.69 1010.85 1719.17 1004.41C1744.79 997.084 1763.96 1003.16 1777.19 1020.81C1789.01 1036.51 1790.93 1054.23 1789.78 1072.11" stroke="#D6DE23" stroke-width="4.20219"/>
<path d="M1960.15 -80.3417C1935.62 -78.5269 1927.96 -60.3791 1922.29 -40.7136C1919.98 -32.6627 1918.43 -24.3147 1917.3 -15.9998C1911.79 24.3871 1901.93 32.7026 1856.11 41.5117C1823.45 47.8143 1790.02 50.9824 1763.74 74.7393C1752.75 84.6709 1741.83 94.6351 1730.74 104.435C1706.72 125.651 1676.77 131.096 1646.58 135.781C1638.07 137.101 1630.01 140.071 1621.76 142.05C1595.13 148.485 1595.26 178.742 1608.72 195.107C1620.74 209.724 1637.96 216.39 1654.89 223.121C1664.57 226.949 1674.5 230.545 1684.6 232.987C1715.29 240.411 1736.81 258.988 1752.35 285.847C1758.23 296.009 1765.66 305.182 1773.47 314.124C1785.63 328.016 1799.91 326.794 1814.87 322.01C1821.79 319.799 1827.87 314.916 1834.76 312.408C1860.24 303.17 1883.01 318.018 1885.89 345.271C1886.45 350.782 1885.89 356.689 1887.74 361.704C1894.17 379.027 1908.83 380.545 1918.95 370.085C1930.87 357.744 1942 344.084 1960.15 340.322" stroke="#D6DE23" stroke-width="4.20219"/>
<path d="M1958.04 824.064C1945.48 814.85 1930.12 815.445 1915.94 812.803C1876.7 805.505 1843.69 786.912 1815.53 759.534C1786.82 731.595 1758.75 703.194 1723.14 683.611C1676.72 658.083 1654.88 675.851 1642.55 720.102C1637.05 739.852 1634.8 760.426 1635.73 781.132C1636.52 799.064 1641.76 815.049 1653.73 829.117C1682.35 862.802 1688.59 901.143 1675.23 942.919C1673.98 946.882 1671.38 950.515 1670.45 954.51C1666.3 972.712 1674.07 982.319 1693.43 982.445C1703.89 982.518 1714.34 981.825 1724.76 980.837C1788.36 974.857 1807.55 1011.21 1817.59 1055.3" stroke="#D6DE23" stroke-width="4.20219"/>
<path d="M1961.2 367.565C1943.91 368.524 1936 381.009 1928.14 393.958C1922.21 403.736 1917.26 414.173 1908.48 422.168C1893.84 435.546 1879.43 432.407 1870.39 413.877C1865.74 404.363 1865.11 394.222 1863.89 384.082C1860.66 357.491 1845.42 347.977 1820.95 355.773C1781.44 368.359 1757.06 356.598 1740.34 317.951C1734.67 304.837 1728.11 292.583 1718.84 281.615C1707.03 267.577 1691.5 263.051 1674.24 263.646C1652.78 264.373 1634.83 259.318 1617.71 244.223C1592.15 221.662 1562.31 225.329 1542.88 254C1525.92 279.006 1503.26 296.282 1479.55 312.93C1456.75 328.917 1438.03 347.251 1431.72 375.791C1425.88 402.216 1436.97 420.813 1456.46 437.065C1483.01 459.197 1501.12 485.689 1498.01 522.85C1496.76 537.945 1491.52 551.158 1484.59 564.106C1484.59 564.106 1448.45 607.742 1420.87 614.118C1420.87 614.118 1342.51 659.768 1327.93 684.674C1322.97 692.933 1316.71 700.695 1313.35 709.547C1306.42 727.715 1314.67 746.445 1332.81 759.096C1340.32 764.348 1348.44 769.236 1356.26 773.267C1372.02 781.359 1371.33 794.44 1368.62 806.794C1365.59 820.668 1360.31 834.012 1357.24 848.118C1348.01 890.927 1360.41 924.884 1395.54 950.55C1416.26 965.679 1436.54 981.534 1458.37 994.884C1482.05 1009.35 1488.75 1031.91 1490.79 1056.35" stroke="#D6DE23" stroke-width="4.20219"/>
<path fill-rule="evenodd" clip-rule="evenodd" d="M850.018 585.324C885.233 597.131 918.434 597.559 950.942 575.662C973.747 560.327 994.54 562.405 1008.5 576.948C1015.66 584.4 1017.28 593.668 1018.44 603.363C1023.58 646.598 1036.94 686.238 1069.62 717.072C1075.16 722.282 1077.74 728.944 1081.08 735.309C1099.23 770.067 1073.71 796.484 1043.15 797.835C1016.68 799.022 993.846 786.722 970.546 776.531C934.473 760.768 899.424 742.795 860.084 734.781C829.259 728.515 802.857 735.573 777.478 751.731C762.593 761.197 747.741 770.892 729.622 773.168C701.042 776.73 693.386 759.185 701.471 738.541C707.247 723.8 709.622 708.333 709.92 692.405C710.382 666.55 707.807 640.629 713.022 614.873C720.052 580.048 732.164 567.219 765.926 560.491C794.771 564.251 822.791 576.223 850.018 585.324Z" stroke="#D6DE23" stroke-width="4.20219"/>
<path d="M1959.1 862.037C1948.33 845.079 1931.51 837.194 1912.87 835.973C1854.08 832.113 1810.67 801.299 1772.63 759.796C1757.48 743.3 1740.52 728.85 1721.51 716.873C1693.08 698.927 1676.85 712.123 1670.78 738.417C1663.25 770.847 1672.76 802.454 1684.27 832.08C1694.47 858.407 1706.28 884.042 1713.27 911.523C1718.25 931.12 1730.6 942.304 1749.43 949.86C1780.67 962.429 1811.91 974.969 1842.27 990.077C1892.12 1014.92 1905.91 1057.98 1909.4 1107.83" stroke="#D6DE23" stroke-width="4.20219"/>
<path fill-rule="evenodd" clip-rule="evenodd" d="M1521.11 364.515C1514.97 368.155 1513.92 379.868 1518.99 388.702C1522.99 395.651 1526.78 402.467 1532.13 408.622C1552.98 432.545 1559.11 460.008 1552.52 491.31C1550.41 501.336 1549.65 513.083 1556.21 522.546C1566.61 523.671 1573.26 516.987 1579.9 512.388C1594.15 502.494 1609.27 498.821 1626.32 499.218C1637.8 499.516 1649.34 499.516 1661 498.292C1675.58 496.77 1687.61 491.707 1698.93 482.972C1711.77 473.045 1726.05 465.766 1741.76 461.332C1756.5 457.163 1769.93 449.949 1781.12 439.593C1785.54 435.49 1790.08 430.063 1786.65 421.526C1783.15 412.89 1777.35 411.666 1769.83 411.732C1731.07 411.997 1704.3 395.353 1692.23 357.169C1685.18 334.867 1666.83 326.562 1646.11 326.198C1623.98 325.801 1610.73 311.025 1603.65 301.997C1596.57 292.971 1600.94 290.076 1581.75 299.331C1562.55 308.586 1548.07 348.632 1521.11 364.515Z" stroke="#D6DE23" stroke-width="4.20219"/>
<path fill-rule="evenodd" clip-rule="evenodd" d="M1010.48 711.275C993.31 694.654 984.068 674.391 979.28 651.48C973.768 624.992 973.668 624.694 947.953 626.714C911.576 629.594 876.783 621.317 842.386 611.483C823.833 606.186 805.215 601.45 786.168 598.636C777.09 597.279 768.309 600.424 759.793 603.47C747.215 607.974 747.81 619.396 750.319 628.17C756.359 649.095 760.783 669.424 755.138 691.277C752.827 700.25 759.165 703.528 768.046 702.865C787.291 701.442 806.568 700.647 825.814 699.456C845.851 698.23 864.634 703.164 883.682 709.09C918.607 719.95 952.476 734.684 989.217 739.186C1001.56 740.71 1015.92 744.616 1027.18 734.253C1038.44 723.89 1017.18 717.765 1010.48 711.275Z" stroke="#D6DE23" stroke-width="4.20219"/>
<path d="M1646.77 -372.394C1646.54 -361.365 1650.57 -350.932 1648.89 -339.308C1645.19 -313.719 1631.37 -301.104 1603.89 -299.685C1582.45 -298.562 1561.8 -302.624 1541.18 -307.841C1529.71 -310.747 1518.13 -310.284 1506.55 -306.454C1488.27 -300.411 1477.26 -289.647 1478.97 -271.684C1483.19 -227.537 1468.25 -190.951 1440.88 -157.503C1431.37 -145.88 1424.65 -132.276 1422.11 -116.492C1419.6 -101.105 1422.2 -88.4587 1432.33 -76.7697C1448.53 -58.0806 1468.05 -43.0238 1486.98 -27.5045C1514.46 -4.95218 1524.2 24.898 1526.34 58.5772C1527.86 82.1536 1524.59 105.168 1518.62 128.051C1517.7 131.551 1515.62 135.876 1517.7 141.291C1522.41 153.608 1529.01 156.712 1537.85 147.665C1550.68 134.555 1558.37 117.716 1568.82 102.857C1596.97 62.8372 1635.99 40.7141 1681.41 27.1762C1720.4 15.586 1760.17 7.82644 1800.13 0.628144C1822.09 -3.33422 1837.83 -15.9146 1850.03 -35.2971C1864.65 -58.5429 1875.27 -84.9256 1899.05 -101.7C1917.59 -114.775 1937.11 -124.747 1960.15 -126.365" stroke="#D6DE23" stroke-width="4.20219"/>
<path d="M1959.1 -5.75281C1945.34 41.3677 1913.67 65.6387 1865.14 68.7137C1855.78 69.3093 1846.38 70.4995 1837.11 72.0201C1806.66 77.0461 1780.48 90.0413 1761.33 114.974C1744 137.526 1722.07 151.711 1693.78 156.705C1687.81 157.762 1680.76 159.383 1675.49 164.442C1662.79 176.578 1664.35 188.845 1680.6 195.789C1689.04 199.394 1697.97 202.172 1706.94 204.057C1733.84 209.711 1755.57 221.284 1766.57 248.697C1770 257.261 1776.53 264.899 1782.85 271.844C1797.86 288.311 1813.35 294.295 1835.34 281.697C1855.32 270.256 1872.29 270.388 1891.91 284.64C1911.13 298.594 1934.8 303.422 1959.1 301.735" stroke="#D6DE23" stroke-width="4.20219"/>
<path d="M-48.5 864.46C-30.7968 893.31 -19.064 924.45 -15.8011 958.12C-13.5449 981.077 -16.9813 1004.35 -13.9266 1027.47C-12.3299 1039.54 -8.16439 1050.39 -1.56917 1060.35C16.0647 1087.01 46.4378 1087.47 64.2105 1060.31C69.5908 1052.13 75.8395 1043.53 77.783 1034.31C83.1986 1008.68 94.722 985.553 104.199 961.553C118.396 925.56 116.245 890.918 95.6948 857.49C83.1986 837.169 74.728 815.011 69.5562 791.673C61.1558 753.564 30.0536 755.264 8.74037 774.301C0.201212 781.964 -6.6371 791.223 -17.0855 797.188C-27.3949 803.082 -37.2185 805.545 -48.5 802.077" stroke="#D6DE23" stroke-width="4.20219"/>
<path d="M1959.7 892.425C1945.56 865.527 1918.91 863.813 1893.71 861.408C1853.98 857.617 1817.37 846.377 1790.3 816.215C1773.61 797.659 1756.89 779.298 1738.69 762.289C1734.7 758.565 1730.28 755.038 1725.5 752.434C1705.45 741.589 1693.58 748.775 1694.4 772.112C1695.52 803.987 1706.74 832.532 1723.72 859.594C1761.14 919.355 1816.05 956.734 1878.87 984.854C1896.81 992.858 1949.46 1008.65 1967.5 1016.43" stroke="#D6DE23" stroke-width="4.20219"/>
<path fill-rule="evenodd" clip-rule="evenodd" d="M1133.27 337.174C1114.9 327.811 1104.07 312.744 1099.72 291.446C1094.1 263.851 1077.93 259.203 1055.74 276.512C1040.23 288.578 1022.42 293.127 1003.06 293.028C985.686 292.93 970.477 297.248 961.885 314.393C958.922 320.293 958.066 325.701 960.041 332.624C971.267 371.889 975.218 412.112 975.416 452.894C975.448 461.697 977.753 471.455 982.033 479.071C992.599 498.061 1011.85 499.445 1030.92 482.401C1052.91 462.751 1073.15 441.091 1095.48 421.837C1112.06 407.496 1128.33 393.253 1141.63 375.615C1145.64 370.307 1152.22 366.253 1149.56 357.318C1146.9 348.383 1142.46 341.856 1133.27 337.174Z" stroke="#D6DE23" stroke-width="4.20219"/>
<path d="M-40.0959 208.695C-20.3925 227.827 3.90631 225.646 27.643 221.68C73.4632 213.982 101.332 184.705 116.805 142.576C125.334 119.347 136.144 97.8701 151.351 77.9451C178.461 42.3254 218.594 45.8271 242.86 82.9673C277.804 136.53 269.738 223.597 224.512 266.618C211.917 278.613 196.643 287.237 181.205 292.259C139.55 305.807 122.457 337.594 109.895 375.395C105.135 389.735 104.672 404.968 96.0434 418.846C82.5218 440.622 55.0493 444.586 34.3872 429.916C21.9898 421.093 10.7166 410.882 1.09615 398.756C-9.87958 384.878 -20.9214 370.637 -40.0959 367.266" stroke="#D6DE23" stroke-width="4.20219"/>
<path fill-rule="evenodd" clip-rule="evenodd" d="M1600.99 871.342C1588.2 858.275 1577.38 844.414 1578.16 824.962C1578.62 813.913 1580.34 802.897 1581.32 791.882C1582.02 784.174 1582.74 776.466 1582.94 768.725C1583.33 752.317 1578.53 746.528 1560.01 749.141C1547.38 750.928 1534.84 751.821 1522.15 752.35C1503.95 753.111 1492.25 761.679 1491.16 781.99C1489.75 808.555 1484.05 832.736 1468.23 855C1455.54 872.897 1459.88 888.974 1481.23 900.651C1510.31 916.53 1537.44 934.526 1561.85 957.021C1566.23 961.057 1573.66 961.686 1579.71 963.902C1620.2 955.731 1625.07 896.02 1600.99 871.342Z" stroke="#D6DE23" stroke-width="4.20219"/>
<path d="M89.772 1068.96C95.4345 1051.44 119.926 981.532 127.925 964.905C147.249 924.827 148.666 884.914 125.918 846.221C103.335 807.793 93.8536 766.098 89.772 722.425C88.0601 704.316 84.6689 686.504 76.999 669.516C69.3292 652.496 55.7989 643.457 38.8782 642.006C11.3574 639.631 -15.5708 643.853 -40.0959 658.07" stroke="#D6DE23" stroke-width="4.20219"/>
<path d="M1507.4 1139.34C1514.79 1118.46 1519.57 1096.82 1521.95 1074.98C1526.83 1030.09 1517.46 990.796 1474.52 965.992C1457.4 956.095 1441.52 944.055 1424.92 933.202C1391.26 911.167 1384.27 894.674 1391.95 855.649C1396.57 832.196 1400.82 808.841 1402.5 784.793C1401.08 746.924 1351.88 746.462 1351.88 723.768C1351.88 682.5 1392.38 681.445 1422.26 652.977L1508.12 596.12C1515.72 589.935 1518.12 584.19 1522.81 578.351" stroke="#D6DE23" stroke-width="4.20219"/>
<path fill-rule="evenodd" clip-rule="evenodd" d="M1520.75 578.351C1543.79 549.601 1602.51 526.139 1634.37 525.577C1663.92 525.048 1692.77 522.106 1717.39 501.486C1727.6 492.927 1742.83 491.804 1756.65 492.862C1805.87 496.661 1825.69 468.837 1835.41 429.81C1842.38 401.787 1829.33 380.142 1796.38 385.627C1764.15 390.981 1740.16 379.019 1722.28 353.739C1715.87 344.684 1713.03 333.085 1708.77 322.575C1702.41 306.912 1689.93 300.072 1674.03 297.792C1650.33 294.388 1628.48 288.472 1609.09 271.949C1593.06 258.302 1574.75 257.541 1558.75 278.294C1545.64 295.313 1527.91 306.152 1511.76 318.875C1500.56 327.698 1489.48 336.621 1480.95 347.592C1459.21 375.582 1458.21 406.579 1490.5 431.792C1511.93 448.514 1534.47 465.697 1530.04 497.719C1527.82 513.548 1527.68 563.745 1520.75 578.351Z" stroke="#D6DE23" stroke-width="4.20219"/>
<path d="M1645.75 1139.34C1645.19 1136.6 1645.22 1133.89 1644.4 1130.99C1632.16 1087.68 1606.15 1052.92 1576.41 1020.55C1535.25 975.728 1484.56 942.584 1436.17 906.64C1421.55 895.78 1416.17 883.733 1423.27 867.13C1442.35 822.538 1444.86 775.766 1444.49 728.369C1444.43 722.163 1443.1 715.628 1447.76 710.215C1447.76 710.215 1457.2 696.253 1479.11 718.467C1493.73 728.831 1509.64 728.237 1527.01 727.378C1551.95 726.158 1571.16 718.896 1584.92 697.111C1598.55 675.525 1602.61 650.472 1612.58 627.598C1626.5 595.614 1643.34 586.703 1677.2 592.71C1697.27 596.275 1715.29 604.427 1733.18 612.976C1776.25 633.605 1817.6 657.205 1866.81 663.114C1899.12 667.009 1929.52 664.302 1960.15 655.72" stroke="#D6DE23" stroke-width="4.20219"/>
<path d="M1959.1 57.28C1942.74 78.1546 1919 83.7932 1894.79 88.6406C1864.19 94.8072 1832.17 93.4555 1803.76 111.13C1787.4 121.32 1772.39 132.334 1759.66 146.382C1742.98 164.816 1747.67 190.8 1761.28 203.925C1771.93 214.181 1782.55 224.634 1794.35 233.472C1810.31 245.409 1828.55 250.883 1848.6 245.178C1870.04 239.044 1889.25 243.068 1908.15 254.84C1923.48 264.403 1940.8 270.042 1959.1 271.592" stroke="#D6DE23" stroke-width="4.20219"/>
<path fill-rule="evenodd" clip-rule="evenodd" d="M191.584 89.8469C174.919 90.5724 165.364 100.272 158.387 114.524C144.764 142.302 140.168 172.653 132.134 202.015C129.422 211.879 127.207 222.008 120.428 229.991C103.268 250.215 114.841 270.174 138.647 276.343C157.495 281.226 173.068 274 186.46 262.849C231.989 224.911 242.074 175.127 231.063 119.571C227.162 99.8757 211.622 91.4302 191.584 89.8469Z" stroke="#D6DE23" stroke-width="4.20219"/>
<path fill-rule="evenodd" clip-rule="evenodd" d="M586.785 416.819C571.548 408.013 554.959 402.274 537.38 400.263C510.335 397.195 488.634 408.376 469.768 426.581C447.968 447.656 428.179 470.939 403.773 489.177C375.937 509.955 342.396 515.66 309.843 523.938C296.353 527.368 282.534 529.645 270.199 536.966C252.753 547.289 251.401 554.182 267.066 566.615C284.514 580.467 306.216 586.172 326.367 594.649C358.886 608.369 392.197 620.176 420.362 642.504C449.551 665.623 457.697 694.48 448.199 728.285C441.965 750.482 445.824 756.715 468.086 752.757C491.932 748.536 514.359 749.492 537.545 757.572C562.215 766.147 584.708 752.131 593.546 726.702C602.451 701.011 603.606 673.934 604.397 647.517C605.717 604.675 618.909 566.121 638.071 528.852C644.535 516.287 648.361 501.314 651.165 487.594C644.403 450.624 615.644 433.506 586.785 416.819Z" stroke="#D6DE23" stroke-width="4.20219"/>
<path d="M-40.0629 341.118C-27.1195 342.21 -19.0959 351.179 -10.2798 359.223C3.5551 371.834 14.7156 387.125 30.7958 397.552C54.0412 412.612 67.6123 410.328 83.7916 387.489C107.928 353.431 111.924 315.995 101.753 276.608C95.0511 250.624 78.9043 235.067 47.3713 239.9C25.3807 243.276 3.78628 248.871 -18.5675 250.723C-26.0629 251.352 -32.9308 248.142 -40.0959 250.095" stroke="#D6DE23" stroke-width="4.20219"/>
<path d="M-38.4509 121.363C-2.71938 100.687 34.1966 83.5499 76.7059 85.1049C94.5388 85.7661 108.654 80.7715 116.155 63.4355C123.788 45.8027 117.932 29.8239 106.055 17.4182C84.3392 -5.2763 65.322 -29.3604 53.4112 -58.8368C50.8778 -65.1226 44.758 -69.8864 40.5466 -75.5104C20.1803 -102.638 -6.70051 -113.621 -40.0959 -108.56" stroke="#D6DE23" stroke-width="4.20219"/>
<path d="M1959.1 86.6953C1942.91 105.152 1919.96 107.365 1898.07 111.293C1869.98 116.345 1841.54 118.392 1815.46 132.524C1799.73 141.075 1788.62 151.674 1786.19 169.272C1783.35 189.743 1794.56 205.194 1817.37 211.929C1825.74 214.406 1835.01 215.859 1843.65 215.165C1869.29 213.085 1892.34 220.382 1914.56 231.971C1928.7 239.334 1944 243.56 1959.06 248.48" stroke="#D6DE23" stroke-width="4.20219"/>
<path fill-rule="evenodd" clip-rule="evenodd" d="M1400.27 171.434C1422.54 145.99 1437.92 116.74 1434.36 82.2955C1430.85 47.9495 1412.42 21.3137 1380.55 6.4902C1373.16 3.04906 1362.72 -1.84797 1356.08 11.1226C1375.13 43.4289 1385.71 95.375 1387.83 166.963C1387.95 170.905 1391.22 174.005 1395.13 173.888C1397.11 173.829 1398.97 172.939 1400.27 171.434Z" stroke="#D6DE23" stroke-width="4.20219"/>
<path d="M-40.0959 300.547C-15.478 303.111 -2.78793 321.981 11.0286 338.55C19.4444 348.642 28.5229 357.782 39.5562 364.423C52.1468 372.018 61.0929 368.006 69.3435 354.856C82.5631 333.784 83.5237 310.112 80.0451 287.527C76.7984 266.553 62.0868 259.452 37.767 261.392C21.1011 262.706 4.50135 266.027 -11.8996 269.544C-21.3757 271.583 -30.7193 270.301 -40.0959 270.958" stroke="#D6DE23" stroke-width="4.20219"/>
<path d="M1959.32 124.515C1937.11 137.578 1911.76 137.118 1887.43 140.967C1871.83 143.435 1855.86 144.093 1841.12 150.772C1837.98 152.187 1834.18 152.451 1831.3 154.228C1824.03 158.702 1817.09 165.184 1818.51 173.772C1819.87 181.998 1826.61 186.901 1836.13 188.975C1852.59 192.561 1869.18 192.956 1885.78 193.482C1909.68 194.206 1932.78 198.516 1955.22 206.677C1957.96 207.663 1959.81 208.717 1960.15 211.71" stroke="#D6DE23" stroke-width="4.20219"/>
<path fill-rule="evenodd" clip-rule="evenodd" d="M1247.3 581.877C1277.72 567.09 1305.83 549.07 1324.48 520.355C1332.38 508.175 1335.59 493.092 1335 477.711C1334.63 468.602 1331.96 460.879 1323.16 458.206C1315.46 455.862 1308.11 459.955 1303.55 466.259C1295.84 476.853 1288.17 487.679 1282.12 499.264C1271.87 518.737 1257.39 534.976 1243.73 551.842C1237.94 559.005 1234.31 566.958 1230.67 575.077C1227.02 583.197 1239.53 585.64 1247.3 581.877Z" stroke="#D6DE23" stroke-width="4.20219"/>
<path fill-rule="evenodd" clip-rule="evenodd" d="M443.53 75.1392C449.848 75.1392 458.38 74.1115 465.209 72.287C483.474 67.4128 489.606 61.876 488.115 43.6383C486.391 22.484 480.789 2.42331 466.767 -14.421C456.757 -26.4574 445.651 -28.3805 435.409 -17.5379C419.298 -0.461499 403.619 17.1123 389.033 35.5151C376.503 51.3648 381.508 62.0417 402.061 68.6063C415.619 72.9507 429.84 72.2542 443.53 75.1392Z" stroke="#D6DE23" stroke-width="4.20219"/>
<path fill-rule="evenodd" clip-rule="evenodd" d="M898.222 649.611C873.872 642.357 849.458 634.871 823.95 632.209C822.032 632.01 819.583 631.011 817.3 630.912C803.901 630.345 791.661 636.934 790.966 645.851C789.742 661.356 802.975 662.421 812.404 663.752C843.138 668.11 874.071 671.005 905.004 674C913.242 674.798 931.934 678.092 926.475 665.815C921.016 653.537 908.345 652.639 898.222 649.611Z" stroke="#D6DE23" stroke-width="4.20219"/>
<path d="M-40.0959 86.6953C-22.7801 74.3749 -3.54401 68.1146 17.8441 68.5434C29.8625 68.774 41.4174 66.8962 52.6744 62.1184C70.9503 54.3441 74.8236 46.6673 70.9503 27.3946C65.0901 -1.86026 45.6885 -23.2415 29.7301 -46.8961C12.6461 -72.2966 -10.4968 -82.5425 -40.0959 -81.2906" stroke="#D6DE23" stroke-width="4.20219"/>
<path d="M1959.03 413.414C1948.18 419.077 1940.5 427.986 1934.32 438.285C1923.81 455.869 1908.83 464.744 1888.15 466.798C1867.24 465.341 1846.72 472.394 1830.96 486.237C1809.2 505.345 1782.24 524.089 1759.49 522.897C1745.74 522.169 1731.85 521.705 1718.22 525.845C1710.11 528.328 1703.75 532.5 1703.81 540.912C1703.81 547.966 1709.19 551.542 1716.48 554.523C1739.27 563.928 1762.36 568.499 1785.94 567.769C1801.93 567.273 1817.24 560.616 1828.49 549.158C1838.19 539.289 1852.4 527.5 1867.87 523.625C1872.29 522.532 1876.6 521.175 1880.9 519.585L1959.1 490.642" stroke="#D6DE23" stroke-width="4.20219"/>
<path fill-rule="evenodd" clip-rule="evenodd" d="M291.237 404.125C299.953 399.416 306.681 392.798 312.381 385.587C320.601 375.215 314.171 359.87 301.047 359.838C265.219 359.706 232.773 371 206.889 395.992C194.792 407.682 193.168 433.233 218.19 428.623C243.213 424.013 268.733 416.308 291.237 404.125Z" stroke="#D6DE23" stroke-width="4.20219"/>
<path d="M-39.0449 57.2799C-26.464 38.0801 -10.894 29.6996 12.0011 40.5211C22.7753 45.6017 31.9399 39.7956 32.9582 27.5557C34.4036 10.3672 33.2867 -6.55712 20.1803 -20.3473C6.77826 -34.4345 -9.25162 -36.117 -24.1647 -23.4815C-30.1102 -18.4339 -35.7273 -12.7924 -39.0121 -5.4354" stroke="#D6DE23" stroke-width="4.20219"/>
<path d="M1958.04 679.204C1932.32 679.796 1907.04 681.936 1884.05 695.498C1876.66 699.875 1871.67 704.78 1870.91 713.733C1870.06 723.772 1878.73 726.439 1884.28 728.117C1911.41 736.281 1933.67 753.299 1958.04 766.399" stroke="#D6DE23" stroke-width="4.20219"/>
<path d="M-39.0449 766.77C-23.2007 772.17 -10.7751 764.004 0.204096 754.98C15.4237 742.433 25.3182 725.374 33.1746 707.427C38.2369 695.835 38.4998 684.111 28.3095 674.594C19.1712 665.999 9.24381 664.517 -3.01736 669.258C-14.4239 673.672 -26.9809 675.088 -39.0449 677.854" stroke="#D6DE23" stroke-width="4.20219"/>
<path d="M-36.9441 629.828C7.9409 613.66 29.4698 567.338 21.1972 533.943C15.8149 512.187 -7.07615 484.91 -36.9441 490.96" stroke="#D6DE23" stroke-width="4.20219"/>
<path fill-rule="evenodd" clip-rule="evenodd" d="M1656.72 115.055C1677.66 114.723 1695.16 106.083 1711.38 93.5207C1717.23 89.0016 1720.24 82.7872 1717.49 77.0043C1714.32 70.2917 1705.43 69.9258 1699.87 72.1859C1679.16 80.5271 1655.23 83.6174 1641.83 105.053C1644.21 112.496 1650 115.189 1656.72 115.055Z" stroke="#D6DE23" stroke-width="4.20219"/>
<path fill-rule="evenodd" clip-rule="evenodd" d="M1643.6 401.695C1642.2 390.586 1634.62 386.577 1625.2 385.459C1616.56 384.474 1606.56 384.605 1602.28 393.61C1597.52 403.602 1599.69 413.132 1608.36 421.644C1613.86 427.035 1620.28 428.842 1626.85 431.274C1640.64 425.786 1645.29 415.104 1643.6 401.695Z" stroke="#D6DE23" stroke-width="4.20219"/>
<path fill-rule="evenodd" clip-rule="evenodd" d="M243.144 702.73C224.079 704.169 240.211 738.304 245.755 756.393C251.299 774.484 276.464 736.288 284.296 719.581C292.126 702.874 262.21 701.29 243.144 702.73Z" stroke="#D6DE23" stroke-width="4.20219"/>
<path d="M1955.81 531.076C1933.87 535.662 1916.72 550.149 1898.64 561.678C1888.37 568.223 1880.43 570.782 1870.26 565.832C1861.37 561.512 1852.08 560.083 1849.35 571.082C1846.91 580.95 1837.07 592.015 1850.28 602.714C1862.52 612.616 1876.81 608.927 1889.98 610.323C1910.36 612.482 1930.74 608.363 1950.86 604.276C1953.5 603.744 1956.33 604.209 1959.1 604.209" stroke="#D6DE23" stroke-width="4.20219"/>
<path fill-rule="evenodd" clip-rule="evenodd" d="M1221.78 184.251C1208.08 189.61 1168.34 212.389 1157.34 221.89C1150.04 228.202 1142.14 230.338 1134.33 221.988C1129.09 216.366 1128.57 210.515 1134.42 205.616C1153.92 189.31 1199.59 158.872 1212.23 136.582C1219.64 123.497 1234.92 127.509 1241.37 142.927C1242.88 146.576 1243.63 150.587 1244.72 154.4C1241.99 167.814 1235.27 178.925 1221.78 184.251Z" stroke="#D6DE23" stroke-width="4.20219"/>
<path d="M1962.25 -106.605C1929.4 -102.876 1916.22 -77.9891 1904.65 -52.0795C1896.25 -33.365 1892.56 -12.7363 1876.62 2.47951C1854.57 23.5047 1826.54 26.4752 1798.85 30.1716C1764.81 34.6936 1730.92 38.7534 1698.14 50.0084C1647.37 67.4681 1610.73 101.432 1582.7 145.891C1557.68 185.563 1532.5 224.973 1496.95 256.56C1485.42 266.824 1472.09 274.251 1458.72 280.852C1392.4 313.693 1394.19 404.79 1427.56 451.13C1439.74 468.029 1454.2 483.707 1460.34 504.005C1470.31 536.946 1459.51 564.67 1424.19 584.804C1424.19 584.804 1281.22 654.943 1275.65 687.123C1269.87 714.287 1281.36 735.51 1298.73 754.819C1306.54 763.499 1314.66 772.015 1321.73 781.289C1336.79 800.961 1335.2 822.811 1330.28 845.618C1320.98 888.657 1328.56 927.374 1363.12 957.773C1377.78 970.649 1391.94 984.378 1407.95 995.334C1418.84 1002.79 1427.82 1012.04 1437.1 1020.78C1468.72 1050.72 1475.45 1089.86 1450.57 1139.34" stroke="#D6DE23" stroke-width="4.20219"/>
<path fill-rule="evenodd" clip-rule="evenodd" d="M782.898 785.011C758.914 811.028 763.942 848.362 794.541 867.176C822.793 884.577 853.822 885.332 885.448 880.333C899.143 878.162 905.991 870.827 905.825 855.729C905.726 846.75 908.009 837.737 914.724 829.021C932.324 806.227 928.088 791.031 901.922 775.242C882.768 763.697 860.538 755.934 837.481 757.052C815.746 759.519 797.651 768.993 782.898 785.011Z" stroke="#D6DE23" stroke-width="4.20219"/>
<path d="M470.542 -113.504C441.849 -107.881 429.699 -85.4878 417.515 -62.3338C403.449 -35.5742 391.068 -7.22709 366.403 12.024C351.149 23.9316 334.442 33.9867 318.693 45.3323C301.259 57.9022 293.169 73.5806 299.014 84.8599C307.598 101.465 323.084 100.109 338.47 98.2235C359.304 95.6434 379.478 99.5467 399.553 104.74C439.472 115.126 478.73 115.688 516.8 96.6024C554.506 77.7155 560.879 65.2119 546.12 27.2064C537.997 6.30152 535.026 -13.6771 539.451 -35.8719C542.587 -51.6498 540.77 -68.6846 534.597 -83.6024C523.073 -111.321 498.805 -115.588 472.226 -113.504" stroke="#D6DE23" stroke-width="4.20219"/>
<path d="M852.16 -270.491C797.136 -258.826 743.563 -242.733 695.632 -212.431C669.077 -195.643 662.446 -174.66 672.309 -151.495C678.049 -137.98 688.605 -128.661 700.58 -122.052C734.756 -103.217 741.914 -74.5666 733.469 -39.1423C730.994 -28.7331 727.927 -18.3239 727.036 -7.74952C725.156 14.9193 743.695 31.8056 766.391 28.5014C804.592 22.9498 840.713 10.0287 876.967 -2.66065C919.983 -17.6961 961.251 -38.0188 1007.18 -44.4295C1025.61 -47.007 1044.18 -47.0401 1061.5 -43.4381C1103 -34.8464 1140.12 -46.3131 1177.12 -62.1747C1197.71 -70.9978 1219.81 -76.1527 1238.25 -90.1638C1257.09 -104.472 1257.84 -113.857 1241.61 -130.181C1229.77 -142.078 1215 -147.53 1200.11 -152.949C1181.68 -159.691 1162.97 -165.936 1144.04 -171.124C1116.16 -178.758 1088.95 -188.473 1065.13 -204.665C1036.76 -223.997 1005.92 -234.406 972.632 -241.179C944.098 -246.996 916.289 -256.677 888.48 -265.699C876.967 -269.433 865.553 -270.424 853.776 -270.424" stroke="#D6DE23" stroke-width="4.20219"/>
<path fill-rule="evenodd" clip-rule="evenodd" d="M646.585 -56.8618C639.767 -40.0928 628.736 -25.6436 621.458 -9.00721C615.728 4.14952 618.856 13.1968 628.604 20.8522C637.331 27.7122 651.524 25.028 659.691 15.9806C662.326 13.0643 665.059 9.71705 666.179 6.03856C672.271 -13.7131 677.145 -33.5973 687.222 -52.189C694.565 -65.7434 687.123 -72.0732 669.637 -75.089C658.835 -73.0012 650.832 -67.3673 646.585 -56.8618Z" stroke="#D6DE23" stroke-width="4.20219"/>
<path fill-rule="evenodd" clip-rule="evenodd" d="M478.893 138.896C449.867 150.312 421.568 144.966 392.939 135.959C376.363 130.713 359.72 125.17 341.889 123.817C318.873 122.068 307.052 131.208 307.25 153.776C307.581 185.517 308.736 217.422 297.178 247.777C280.404 291.792 254.945 326.634 204.885 337.159C173.548 343.758 155.089 363.489 150.004 396.219C147 415.553 136.532 432.414 123.786 447.294C119.427 452.408 115.333 458.182 114.507 463.989C113.186 473.129 119.625 477.319 128.838 478.935C152.877 483.159 176.388 478.672 199.833 475.24C247.68 468.212 294.537 457.522 336.936 432.611C349.517 425.221 358.664 415.356 367.018 403.115C388.019 372.331 410.308 342.108 444.254 323.697C492.068 297.797 540.048 305.518 587.862 323.697C616.128 334.486 640.729 352.204 667.146 366.524C672.131 369.229 677.051 372.034 682.005 374.772C704.129 386.915 726.748 377.709 729.654 346.695C730.941 333.067 731.206 319.078 729.654 305.484C722.125 239.924 758.811 207.425 805.668 187.925C831.326 177.268 859.525 173.539 883.366 158.495C889.575 154.568 896.971 152.522 900.273 143.911C905.227 130.977 900.9 122.299 886.734 122.464C863.092 122.729 840.043 128.734 817.523 134.442C744.744 152.852 674.377 150.047 606.056 117.416C594.565 111.94 580.597 110.652 568.049 110.883C536.845 115.502 507.951 127.446 478.893 138.896Z" stroke="#D6DE23" stroke-width="4.20219"/>
<path d="M865.916 -303.058C849.84 -301.21 837.395 -290.746 823.036 -284.837C801.283 -275.892 778.439 -271.7 755.366 -273.713C720.244 -276.817 693.275 -265.725 674.326 -235.456C666.8 -223.441 658.977 -211.327 649.404 -200.994C640.294 -191.191 632.206 -181.487 633.428 -167.722C634.781 -152.274 642.67 -139.301 653.102 -128.177C663.202 -117.383 673.369 -106.557 684.493 -96.8851C716.018 -69.4218 721.53 -48.6262 703.904 -4.4605C701.494 1.61311 697.763 7.38963 696.014 13.8264C688.191 42.3132 705.224 50.3673 724.006 51.6877C755.365 53.8664 784.943 45.1516 814.849 37.1963C864.727 23.9275 912.789 5.21114 961.578 -11.2603C1002.84 -25.19 1043.47 -29.4151 1085.53 -16.0465C1110.02 -8.25653 1134.28 -12.3826 1156.33 -24.3648C1196.28 -46.1176 1237.8 -58.0338 1283.56 -50.5737C1285.18 -50.3096 1286.86 -50.5407 1288.51 -50.5407C1314.75 -50.5737 1322.77 -57.4065 1321.05 -83.5165C1319.97 -100.153 1321.28 -116.162 1326.77 -131.313C1336.37 -157.852 1322.77 -175.71 1293.45 -175.974C1253.11 -176.337 1212.85 -174.489 1172.91 -183.896C1132.66 -193.37 1094.77 -208.059 1064.57 -235.951C1041.99 -256.779 1016.8 -263.051 988.151 -263.513C956.527 -264.009 927.148 -271.633 900.543 -289.657C890.772 -296.258 879.647 -301.11 867.665 -303.058" stroke="#D6DE23" stroke-width="4.20219"/>
<path d="M33.9056 118.362C15.207 122.526 -3.68993 125.335 -17.6229 141.296C-27.6835 152.796 -33.9054 164.462 -28.8419 179.465C-24.2086 193.212 -10.3751 200.317 7.42985 201.11C36.52 202.4 58.6603 190.503 73.4206 166.18C87.7833 142.518 76.4654 121.567 48.7981 118.461C44.4296 117.965 37.551 118.362 33.1163 118.362" stroke="#D6DE23" stroke-width="4.20219"/>
<path fill-rule="evenodd" clip-rule="evenodd" d="M170.544 161.096C167.213 180.189 165.134 199.547 152.498 215.639C150.222 218.541 149.563 223.125 149.134 227.049C147.814 239.053 156.689 245.912 167.081 240.042C191.856 226.027 203.535 202.878 208.253 175.87C209.836 166.735 210.793 157.535 208.847 147.773C206.768 137.287 201.226 130.856 190.273 129.768C177.473 136.298 172.821 148.137 170.544 161.096Z" stroke="#D6DE23" stroke-width="4.20219"/>
<path fill-rule="evenodd" clip-rule="evenodd" d="M1210.79 733.873C1197.88 771.311 1184.76 808.517 1161.33 841.107C1157.54 846.384 1155.13 852.915 1153.05 859.182C1145.44 882.139 1151.96 902.789 1184.23 899.985C1208.06 897.906 1230.67 897.643 1253.63 906.549C1272.72 913.937 1288.48 905.922 1297.86 887.153C1314.08 854.828 1313.52 810.728 1287.74 780.283C1271.86 761.547 1260.95 740.47 1250.25 718.964C1245.96 710.388 1241.15 700.988 1228.72 702.472C1217.22 709.761 1214.71 722.493 1210.79 733.873Z" stroke="#D6DE23" stroke-width="4.20219"/>
<path fill-rule="evenodd" clip-rule="evenodd" d="M472.995 169.402C448.458 175.009 424.218 174.316 400.406 164.719C389.82 160.432 378.673 156.936 367.459 154.892C350.178 151.759 341.471 158.685 336.096 176.063C327.455 204.03 327.818 233.346 323.563 261.906C317.363 303.755 294.607 329.444 257.207 346.296C234.418 356.584 209.387 362.653 189.434 378.878C172.614 392.564 162.094 409.745 159.719 431.643C158.202 445.493 164.93 452.319 177.892 454.76C211.036 460.993 241.476 449.088 271.686 439.294C287.055 434.314 303.115 428.707 316.341 418.386C340.185 399.819 340.812 372.447 342.691 345.899C345.957 299.896 344.308 253.331 360.83 209.008C370.296 183.583 373.923 180.977 397.042 196.082C469.664 243.57 550.728 274.701 626.418 316.154C639.444 323.31 653.395 328.422 667.643 332.643C683.241 337.292 690.86 333.368 695.543 317.803C697.456 311.438 698.215 304.678 698.907 298.049C701.546 273.282 704.448 248.714 718.596 227.047C720.938 223.453 721.267 218.408 722.026 213.956C727.006 184.902 721.63 168.611 690.596 163.665C655.308 158.025 621.239 148.56 586.776 139.953C579.388 138.106 569.792 138.733 562.074 138.172C531.073 144.899 503.832 162.378 472.995 169.402Z" stroke="#D6DE23" stroke-width="4.20219"/>
<path fill-rule="evenodd" clip-rule="evenodd" d="M494.642 187.21C477.438 195.84 476.646 203.021 491.313 215.243C499.124 221.767 508.584 224.567 517.648 228.585C554.1 244.727 589.169 263.537 623.315 284.226C655.021 303.464 666.887 300.796 677.104 259.551C680.73 244.925 679.28 228.914 679.049 213.564C678.884 201.44 668.37 197.685 659.405 193.896C632.511 182.532 604.199 176.503 575.425 172.352C572.129 171.891 567.152 171.298 563.856 170.739C540.323 174.296 516.428 176.305 494.642 187.21Z" stroke="#D6DE23" stroke-width="4.20219"/>
<path fill-rule="evenodd" clip-rule="evenodd" d="M211.839 683.959C214.09 697.209 218.523 710.063 219.946 723.644C221.335 736.894 220.376 749.153 209.754 758.272C197.347 768.879 197.214 782.129 203.601 794.52C210.846 808.596 221.005 821.846 239.6 820.987C256.773 820.161 262.53 806.052 267.527 793C275.17 773.108 285.692 757.843 307.265 749.681C343 736.167 335.358 711.252 311.931 699.886C283.607 686.14 255.78 667.339 224.71 659.243C209.556 661.787 210.119 673.715 211.839 683.959Z" stroke="#D6DE23" stroke-width="4.20219"/>
<path fill-rule="evenodd" clip-rule="evenodd" d="M518.162 489.369C498.605 512.332 475.979 530.133 447.286 540.987C428.553 548.067 426.178 567.292 442.438 578.211C465.524 593.697 484.752 612.723 503.419 632.972C518.492 649.351 527.463 646.538 534.455 624.899C543.986 595.351 544.185 564.016 551.011 533.939C553.749 521.961 554.277 509.817 554.508 497.541C554.705 485.895 550.253 477.224 537.819 474.346C528.651 475.869 523.472 483.115 518.162 489.369Z" stroke="#D6DE23" stroke-width="4.20219"/>
<path fill-rule="evenodd" clip-rule="evenodd" d="M537.706 211.668C555.733 232.946 581.188 240.719 606.512 248.064C615.36 250.633 624.407 253.302 634.609 250.304C651.976 245.199 656.465 234.856 644.316 222.076C623.779 200.436 596.012 192.728 566.793 193.98C556.228 197.405 543.021 196.384 537.706 211.668Z" stroke="#D6DE23" stroke-width="4.20219"/>
<path fill-rule="evenodd" clip-rule="evenodd" d="M366.959 278.073C364.648 290.76 364.879 304.573 368.014 317.723C371.381 331.901 376.893 335.909 391.15 334.285C417.125 331.304 471.714 298.695 461.964 276.053C452.215 253.413 410.841 224.959 387.85 223.318C364.859 221.678 370.457 258.861 366.959 278.073Z" stroke="#D6DE23" stroke-width="4.20219"/>
<path fill-rule="evenodd" clip-rule="evenodd" d="M387.23 311.225C396.684 321.703 407.317 315.08 416.411 309.611C433.586 299.233 440.783 278.476 419.617 262.2C414.579 258.345 407.415 253.699 400.152 253.731C380.982 263.88 373.327 295.773 387.23 311.225Z" stroke="#D6DE23" stroke-width="4.20219"/>
<path fill-rule="evenodd" clip-rule="evenodd" d="M814.316 329.283C821.918 346.913 830.481 364.181 837.318 382.109C843.591 398.52 844.687 415.92 840.671 433.089C837.849 445.15 837.318 457.179 837.551 469.372C837.849 485.784 847.906 496.263 864.07 497.383C876.749 498.273 883.985 491.352 887.237 474.315C892.581 446.304 888.466 418.655 880.234 392.06C872.566 367.312 864.534 342.728 857.1 317.881C852.553 302.656 847.243 284.993 825.901 283.147C807.877 291.188 804.128 305.687 814.316 329.283Z" stroke="#D6DE23" stroke-width="4.20219"/>
<path fill-rule="evenodd" clip-rule="evenodd" d="M1006.13 317.676C991.599 322.624 984.91 332.091 986.525 347.23C988.733 367.813 991.303 388.461 997.892 408.252C1006.92 435.333 1017.96 438.829 1040.2 422.435C1061.23 406.933 1078.32 385.988 1096.58 366.889C1102.54 360.655 1100.73 351.584 1099.78 343.965C1098.07 330.441 1091.58 318.566 1083.53 307.649C1077.6 299.601 1067.09 301.152 1058.82 301.085C1041.25 306.593 1023.56 311.739 1006.13 317.676Z" stroke="#D6DE23" stroke-width="4.20219"/>
<path fill-rule="evenodd" clip-rule="evenodd" d="M1025.39 337.537C1015.27 343.059 1010.9 358.93 1015.33 366.963C1020.73 376.718 1037.22 381.743 1048.19 376.85C1055.55 373.577 1060.88 367.923 1066.5 362.236C1073.47 355.193 1074.85 346.431 1072.29 339.058C1069.39 330.693 1058.25 329.966 1049.84 330.594C1041.62 332.809 1032.65 333.57 1025.39 337.537Z" stroke="#D6DE23" stroke-width="4.20219"/>
<path fill-rule="evenodd" clip-rule="evenodd" d="M1579.08 364.91C1560.41 376.519 1555.18 392.711 1567.95 409.597C1578.58 423.645 1585.79 438.387 1589.54 455.833C1593.86 475.95 1604.03 481.524 1623.71 479.05C1634.63 477.698 1645.63 476.346 1656.62 475.819C1673.04 475.026 1684.86 465.891 1694.24 454.085C1704.8 440.795 1697.73 426.218 1690.62 415.038C1681.2 400.231 1669.06 387.237 1663.1 370.187C1660.4 362.503 1653.82 361.58 1646.71 361.876C1630.68 362.603 1613.14 361.778 1597.37 358.645C1581.61 355.512 1585.07 361.184 1579.08 364.91Z" stroke="#D6DE23" stroke-width="4.20219"/>
<path fill-rule="evenodd" clip-rule="evenodd" d="M474.407 475.466C451.322 497.368 424.537 511.673 396.3 524.524C384.972 529.677 374.568 536.219 366.576 545.997C359.443 554.718 359.409 563.704 366.576 572.392C374.106 581.51 384.212 587.061 394.582 592.279C414.299 602.19 434.445 611.242 450.859 626.802C465.49 640.71 475.265 657.029 480.649 676.421C482.894 684.416 486.857 691.981 490.425 699.579C497.261 714.181 508.456 721.482 525.069 721.218C542.044 720.953 547.692 708.664 553.043 696.243C563.71 671.499 566.913 645.004 571.669 618.708C577.911 584.319 588.347 550.622 593.829 516.133C597.132 495.32 596.703 472.889 581.115 455.215C569.952 442.529 554.561 434.568 536.661 436.946C511.165 442.034 491.977 458.783 474.407 475.466Z" stroke="#D6DE23" stroke-width="4.20219"/>
<path fill-rule="evenodd" clip-rule="evenodd" d="M57.6604 575.568C58.2253 587.684 64.4716 591.367 75.901 587.219C90.719 581.809 95.271 568.963 97.1647 555.621C98.8258 543.903 94.8924 519.53 82.5127 525.781C70.1331 532.033 56.6305 554.425 57.6604 575.568Z" stroke="#D6DE23" stroke-width="4.20219"/>
<path d="M1580.86 584.837C1515.18 614.143 1494.11 653.04 1491.89 674.64C1491.43 679.171 1491.34 683.868 1493.02 688.102C1496.09 695.71 1504.65 700.043 1512.87 700.209C1533.82 700.606 1548.55 679.105 1553.81 658.829C1559.06 638.553 1569.7 602.632 1580.83 584.837C1596.07 560.525 1628.11 551.495 1656.58 554.869C1685.06 558.243 1711.19 571.573 1737.36 583.282C1795.7 609.412 1826.59 634.254 1890.16 640.637C1902.14 641.828 1945.46 636.734 1957 633.327" stroke="#D6DE23" stroke-width="4.20219"/>
</g>
<defs>
<clipPath id="clip0_195_2652">
<rect width="1920" height="768" fill="white"/>
</clipPath>
</defs>
</svg>
