<svg width="600" height="980" viewBox="0 0 600 980" fill="none" xmlns="http://www.w3.org/2000/svg">
<g clip-path="url(#clip0_195_2652)">
<path d="M102.988 1.7916C87.8721 28.1628 85.7307 57.723 81.7345 86.9068C79.5035 103.066 80.1845 119.109 83.4728 134.731C92.9614 179.848 113.211 189.108 153.638 183.929C163.575 182.663 173.314 179.961 183.224 178.441C209.324 174.472 221.492 200.479 216.734 219.113C213.267 232.736 206.197 245.064 198.913 257.308C185.258 280.22 168.53 301.414 163.181 328.886C157.885 356.161 166.084 377.045 187.417 393.68C189.281 395.115 191.001 396.889 193.08 397.846C244.349 421.489 241.957 469.451 233.427 508.998C227.657 535.653 211.779 556.988 187.453 571.034C174.022 578.774 161.828 588.343 150.932 599.265C122.493 627.693 113.435 661.329 123.819 700.565C126.92 712.247 131.453 724.322 125.71 737.185C121.087 747.486 113.829 755.339 105.693 762.292C87.9527 777.406 70.9736 793.394 61.0101 814.617C46.0828 846.31 50.0252 878.454 65.3467 908.627C75.9285 929.456 101.858 934.523 126.893 922.785C149.131 912.371 167.822 896.384 187.283 881.803C204.289 869.053 222.612 859.089 242.494 852.925C258.676 847.886 273.092 839.442 279.741 825.482C295.421 792.55 322.309 776.365 354.827 764.881C374.141 758.069 391.146 746.529 401.535 727.305C409.559 712.472 411.192 697.357 408.686 680.778C404.716 654.405 395.285 629.411 390.358 603.374C387.655 589.048 386.219 574.608 389.907 559.719C398.494 525.183 411.136 523.522 438.023 527.293C464.798 531.065 489.348 542.408 515.363 548.77C543.235 555.581 569.363 555.722 589.803 532.839C603.909 517.048 611.707 497.599 617.028 476.826C627.079 437.477 628.656 396.973 635.131 357.145C637.638 341.692 640.791 326.493 647.547 311.998C657.064 291.506 669.114 285.653 695.663 289.367C717.99 292.492 739.021 300.852 761.741 302.794C778.888 304.258 795.583 300.513 812.475 302.287C816.699 302.738 820.781 302.119 825.23 303.357C838.8 307.1 844.825 316.811 839.11 328.942C836.519 334.43 833 339.582 829.312 344.423C803.973 377.805 820.133 392.526 843.445 409.217C860.253 421.236 879.511 428.526 898.487 435.563C922.503 444.485 944.322 457.546 967.267 468.41C986.554 477.53 1005.56 485.973 1027.86 484.004C1048.27 482.202 1063.27 465.314 1067.41 447.243C1073.27 421.63 1068.54 396.382 1065.5 371.247C1063.02 350.615 1060.46 330.125 1059.95 309.295C1059.47 289.227 1052.58 270.819 1040.55 254.353C1019.3 225.193 1013.38 194.569 1031.77 161.355C1034.08 157.161 1035.74 151.392 1038.13 147.733C1055.19 121.752 1066.29 93.1862 1077.15 64.4144C1078.62 60.5088 1080.84 56.8989 1082.73 53.1277" stroke="#D6DE23" stroke-width="3.58333"/>
<path d="M1210.83 620.196C1195.38 614.737 1182.8 604.663 1169.99 594.926C1164.62 590.846 1158.88 587.215 1153.13 583.642C1128.48 568.193 1096.34 575.621 1081.64 596.474C1074.95 605.985 1069.68 617.017 1067.43 628.666C1059.75 668.514 1039.23 696.429 998.417 707.685C982.402 712.104 968.667 720.94 958.787 735.489C937.847 766.331 931.881 800.325 933.288 836.908C934.188 860.152 938.382 882.862 940.577 905.852C943.335 934.724 935.68 948.429 909.616 959.179C891.435 966.692 877.587 978.624 869.03 995.987C861.628 1011.04 854.704 1026.52 849.385 1042.42C839.899 1070.73 821.661 1086.88 791.46 1088.82C786.31 1089.16 781.019 1089.58 775.953 1089.81C745.076 1091.16 714.37 1088.63 684.563 1080.13C669.252 1075.77 664.748 1066.03 669.139 1050.83C671.335 1043.15 674.684 1035.81 677.47 1028.29C683.24 1012.76 690.052 997.45 690.108 980.453C690.276 933.148 658.5 887.195 602.912 874.813C565.957 866.595 529.311 871.323 493.2 878.105C438.793 888.321 386.302 905.824 334.007 923.919C317.288 929.687 299.864 934.049 282.021 935.343C275.437 935.821 267.806 935.907 265.414 928.28C263.443 921.977 267.528 917.164 273.547 914.238C276.557 912.775 278.841 910.157 281.824 908.329C304.029 894.737 322.354 876.952 337.018 855.284C349.177 837.302 366.009 826.805 387.456 820.98C413.884 813.804 440.145 805.587 465.053 793.459C515.434 768.919 546.03 734.982 527.369 676.393C522.752 661.901 521.964 645.776 525.426 630.074C529.282 612.598 541.329 598.894 564.887 609.053C572.571 612.373 580.086 616.229 587.403 620.281C619.546 638.066 650 659.087 684.591 672.172C703.955 679.489 723.46 684.891 745.105 682.499C781.497 678.476 806.491 657.764 826.474 629.933C848.765 598.866 876.32 576.1 913.952 566.786C951.076 557.584 988.594 550.351 1026.56 545.905C1049.87 543.175 1073.59 539.067 1096.84 545.877C1110.77 549.957 1124.03 556.232 1137.77 561.044C1142.66 562.761 1147.81 567.123 1153.28 561.213C1158.71 555.332 1156.09 549.732 1153.16 544.301C1139.93 519.847 1140.95 494.942 1150.4 469.701C1153.19 462.243 1152.06 455.939 1146.27 449.918C1125.8 428.671 1093.27 433.652 1083.19 461.37C1071.65 493.141 1050.85 511.686 1018.23 520.803C983.725 530.455 948.908 538.391 913.895 545.342C878.938 552.293 848.09 563.184 826.08 594.448C814.512 610.882 799.848 625.938 783.271 638.741C755.997 659.791 726.641 664.884 694.47 653.909C669.393 645.354 647.635 630.834 626.864 614.653C608.007 599.964 589.627 584.795 566.463 576.409C526.299 561.889 493.678 590.226 491.286 620.196C489.906 637.334 491.567 653.712 496.352 669.387C513.127 724.204 487.599 768.357 432.714 779.276C417.205 782.343 401.866 786.676 386.246 788.928C352.836 793.712 327.224 809.948 311.938 839.891C298.905 865.358 278.447 880.357 252.668 890.6C224.882 901.659 197.975 914.941 173.943 932.811C154.326 947.415 132.676 956.871 109.011 960.389C88.4903 963.428 70.8445 958.953 57.7848 938.636C46.7764 921.526 38.3028 903.742 33.439 884.69C24.7684 850.668 26.515 817.462 48.4693 787.633C56.486 776.743 63.3293 765.036 71.0953 753.949C89.8697 727.216 95.7815 697.33 93.587 665.278C91.0521 628.188 98.3165 594.672 128.708 569.571C143.855 557.077 158.635 544.132 173.799 531.666C187.396 520.465 200.313 508.506 204.567 490.777C213.148 455.095 181.682 413.081 144.222 409.198C144.222 409.198 90.0936 397.069 -4.95183 473.921C-11.5085 480.028 -18.5489 485.684 -24.5413 492.297C-36.8128 505.804 -42.1334 521.085 -39.07 540.108C-35.29 563.436 -24.4876 584.091 -17.6442 606.182C-1.79884 657.229 -1.07328 706.532 -35.9976 751.022C-48.1258 766.472 -62.1439 780.429 -73.7166 796.245C-98.0625 829.563 -108.928 868.087 -109.994 908.694C-110.585 930.869 -105.999 952.396 -89.8128 970.97C-73.3225 989.852 -51.7355 1001.42 -33.0149 1016.92C-14.751 1032.03 -7.23591 1053.82 -14.9481 1076.1C-19.7044 1089.81 -28.0078 1101.65 -38.8371 1111.22C-63.9443 1133.45 -74.6662 1161.14 -72.5881 1194.32C-71.9163 1205.04 -74.5318 1214.89 -80.8915 1223.93C-95.6978 1244.95 -109.85 1266.39 -120.375 1290" stroke="#D6DE23" stroke-width="3.58333"/>
<path d="M1210.83 1081.73C1173.75 1087.47 1145.86 1072.94 1123.33 1043.96C1113.73 1031.63 1105.71 1018.43 1097.08 1005.62C1078.17 977.533 1053.35 958.535 1019.47 953.835C964.099 946.179 922.034 971.397 885.878 1009.98C869.953 1026.98 866.492 1049.64 859.204 1070.5C852.732 1089.02 841.083 1100.39 821.191 1104.47C786.216 1111.64 750.932 1112.46 715.649 1110.86C699.667 1110.12 683.347 1108.63 667.731 1103C645.784 1095.1 639.959 1084.57 642.183 1060.59C644.349 1037.2 655.266 1016.71 660.922 994.504C663.904 982.852 668.856 971.538 664.917 959.295C657.18 935.146 642.52 917.387 618.604 907.058C583.713 891.971 547.699 894.252 511.626 898.952C458.898 905.819 410.192 926.59 361.205 945.588C324.993 959.632 289.373 969.54 249.839 962.56C221.283 957.522 192.745 959.576 166.777 975.985C157.832 981.642 147.534 985.807 137.317 988.678C95.5085 1000.47 61.0696 989.804 39.2296 960.477C25.5024 942.013 17.121 920.426 11.8557 897.488C3.35794 860.505 1.13721 824.254 17.9358 789.129C26.4336 771.37 36.5881 754.37 45.9008 736.976C57.1835 715.896 65.2066 694.759 61.8307 669.372C55.1328 618.964 70.7137 575.93 108.985 541.114C122.148 529.124 135.517 517.134 147.507 503.653C159.068 490.706 166.921 477.591 164.073 459.746C164.073 459.746 155.665 404.667 54.3448 473.819C41.2623 479.786 30.4006 488.933 19.0552 497.574C-0.778947 512.688 -2.49829 533.599 -0.214902 555.412C0.913367 566.389 4.54003 577.224 8.05914 587.778C18.1329 618.091 22.0998 648.91 17.8195 680.686C12.3573 721.215 1.30736 759.098 -26.944 790.706C-39.8654 805.172 -51.0584 821.608 -60.7382 838.439C-81.8708 875.225 -88.8195 913.053 -65.4393 952.399C-54.1567 971.397 -35.3343 980.91 -18.5895 992.787C1.02087 1006.69 13.2079 1023.47 15.2047 1047.95C16.53 1064.08 11.2379 1078.38 6.48305 1092.98C-1.64762 1117.98 4.93395 1130.33 30.4274 1138.07C40.5549 1141.14 50.8794 1142.07 61.374 1142.29C90.9776 1142.97 120.778 1139.03 150.032 1147.73C194.939 1161.1 240.276 1173.09 272.548 1211.05C279.076 1218.71 288.836 1221.49 299.107 1221.04C309.431 1220.59 319.928 1221.21 330.029 1219.44C368.971 1212.6 417.31 1252.85 418.689 1290" stroke="#D6DE23" stroke-width="3.58333"/>
<path d="M146.215 0.107502C133.385 7.20592 128.774 20.3273 123.93 32.5792C113.607 58.6874 106.713 85.5843 111.02 114.166C115.523 143.94 134.513 157.118 164.534 152.386C177.982 150.274 191.6 145.491 205.245 148.162C236.555 154.302 250.961 177.649 252.984 209.923C254.274 230.567 246.484 248.731 236.358 266.305C225.775 284.667 213.115 301.959 206.651 322.546C201.306 339.556 202.649 354.201 216.267 367.888C229.383 381.068 246.798 389.827 255.966 407.034C283.399 458.488 289.022 529.655 236.582 573.617C214.27 592.317 189.487 608.679 171.562 632.364C163.719 642.728 158.822 653.881 158.571 667.54C158.311 682.128 163.657 692.407 175.699 699.983C181.071 703.363 185.995 707.502 191.233 711.164C206.194 721.669 207.439 733.327 195.504 746.424C182.79 760.364 165.035 765.461 148.865 772.756C124.441 783.767 102.89 797.989 91.7787 822.603C82.5746 842.966 83.3625 862.792 96.9 875.972C108.378 887.152 128.129 889.631 140.476 879.999C146.699 875.127 153.19 869.691 157.219 863.073C171.876 838.994 194.322 829.194 220.743 825.11C245.526 821.308 263.164 806.72 272.422 784.19C280.668 764.11 292.424 751.831 314.987 750.197C324.527 749.493 333.924 745.353 343.124 742.03C378.46 729.273 385.155 710.966 381.498 678.692C377.531 643.939 364.505 611.524 358.513 577.362C355.896 562.408 351.901 547.764 354.321 532.274C358.428 505.998 377.559 490.677 403.64 492.79C431.661 495.071 457.516 505.097 483.905 513.687C500.082 518.953 517.074 520.559 534.461 519.854C566.392 518.587 583.16 500.112 589.012 470.232C594.188 443.759 596.777 416.778 600.575 390.024C603.079 372.338 610.534 356.116 615.88 339.275C618.609 330.629 621.225 321.504 621.365 312.576C621.675 291.398 614.614 282.978 589.293 281.907C587.971 281.851 585.608 282.949 583.666 282.978C547.121 283.738 549.231 278.499 538.681 252.026C535.164 243.211 532.464 234.031 528.722 225.328C519.409 203.727 504.189 194.856 481.007 198.799C469.725 200.714 458.472 202.179 447.218 201.193C415.736 198.489 399.869 187.506 394.271 164.609C391.345 152.64 392.414 139.235 395.256 126.732C403.049 92.4317 415.822 59.3327 419.423 23.966C420.238 15.9086 419.676 7.94089 420.492 -1.75618e-05" stroke="#D6DE23" stroke-width="3.58333"/>
<path d="M594.865 -0.000101023C600.101 27.9992 593.599 52.3597 575.529 74.9187C564.749 88.3806 557.206 104.657 551.38 121.13C544.512 140.651 551.717 158.559 569.477 170.444C575.81 174.696 582.453 178.217 589.067 181.934C603.731 190.13 617.664 200.071 625.742 215.476C644.037 250.426 674.266 261.241 711.673 262.254C761.801 263.634 811.648 268.788 859.469 285.799C863.663 287.291 868.448 287.798 872.05 290.164C889.473 301.711 890.796 315.059 876.329 330.831C870.502 337.168 863.944 342.856 858.118 349.221C844.467 364.147 847.197 379.581 865.098 390.001C868.363 391.916 871.459 394.564 874.978 395.521C913.51 405.744 947.144 426.5 982.046 444.637C991.475 449.537 1001.72 453.705 1012.84 454.916C1025.59 456.296 1031.81 449.002 1032.48 437.877C1033.58 419.938 1031.84 402.308 1024.07 385.804C1017.14 371.075 1016.27 355.755 1021.48 340.8C1032.29 309.793 1028.46 282.391 1005.94 257.552C981.624 230.741 984.608 199.845 996.259 169.064C1001.64 154.814 1008.59 140.705 1017.4 128.345C1034.03 104.997 1045.85 79.8751 1052.27 52.0729" stroke="#D6DE23" stroke-width="3.58333"/>
<path d="M253.641 0.444904C232.503 -1.40908 211.734 2.80948 191.754 7.93257C150.421 18.5191 131.992 71.6218 142.162 101.823C148.305 120.085 163.129 123.632 178.966 125.549C189.673 126.838 200.551 126.614 211.339 127.125C243.265 128.639 260.931 139.843 271.809 176.4C276.769 193.061 279.62 210.369 284.831 226.945C290.131 243.775 301.905 255.877 316.98 265.079C338.851 278.419 374.215 267.218 374.807 232.658C375.032 219.205 373.398 205.612 368.805 193.398C354.067 154.42 358.35 116.932 373.172 79.19C380.33 60.9816 387.629 42.7731 390.7 23.051C391.939 15.1425 390.193 7.95936 390.277 0.471771" stroke="#D6DE23" stroke-width="3.58333"/>
<path d="M-501.104 659.014C-486.362 658.197 -479.614 647.55 -472.918 636.508C-467.861 628.17 -463.636 619.27 -456.153 612.453C-443.667 601.045 -431.378 603.721 -423.671 619.523C-419.706 627.635 -419.169 636.283 -418.131 644.93C-415.374 667.605 -402.377 675.717 -381.513 669.069C-347.822 658.337 -327.03 668.366 -312.771 701.322C-307.938 712.504 -302.343 722.954 -294.44 732.306C-284.37 744.277 -271.123 748.136 -256.408 747.629C-238.104 747.009 -222.798 751.319 -208.199 764.192C-186.404 783.43 -160.957 780.303 -144.389 755.854C-129.934 734.531 -110.609 719.799 -90.3893 705.603C-70.9482 691.97 -54.98 676.337 -49.6006 652C-44.624 629.467 -54.0761 613.608 -70.6977 599.75C-93.3431 580.877 -108.783 558.287 -106.134 526.598C-105.069 513.726 -100.593 502.459 -94.6857 491.417C-94.6857 491.417 -63.8682 454.208 -40.3545 448.771C-40.3545 448.771 26.4719 409.844 38.9045 388.606C43.1293 381.563 48.4729 374.944 51.3372 367.395C57.2447 351.904 50.2094 335.932 34.7424 325.144C28.3337 320.665 21.4148 316.497 14.7465 313.06C1.30242 306.159 1.89322 295.005 4.20252 284.471C6.78929 272.64 11.2915 261.261 13.9052 249.232C21.7818 212.728 11.202 183.772 -18.7473 161.885C-36.4161 148.984 -53.709 135.465 -72.3266 124.08C-92.5196 111.745 -98.2302 92.5082 -99.9756 71.6665" stroke="#D6DE23" stroke-width="3.58333"/>
<path fill-rule="evenodd" clip-rule="evenodd" d="M446.431 473.325C416.403 463.256 388.091 462.891 360.37 481.563C340.924 494.64 323.194 492.868 311.288 480.467C305.18 474.112 303.801 466.21 302.815 457.942C298.427 421.075 287.034 387.272 259.171 360.979C254.442 356.536 252.248 350.855 249.4 345.428C233.924 315.788 255.678 293.262 281.741 292.11C304.311 291.097 323.785 301.586 343.653 310.276C374.414 323.718 404.302 339.044 437.848 345.878C464.134 351.221 486.647 345.203 508.289 331.424C520.982 323.352 533.646 315.085 549.097 313.145C573.468 310.107 579.997 325.068 573.102 342.672C568.177 355.242 566.151 368.431 565.898 382.014C565.504 404.061 567.699 426.164 563.252 448.127C557.258 477.823 546.929 488.763 518.139 494.5C493.542 491.294 469.649 481.086 446.431 473.325Z" stroke="#D6DE23" stroke-width="3.58333"/>
<path fill-rule="evenodd" clip-rule="evenodd" d="M309.603 365.922C324.241 380.096 332.123 397.374 336.205 416.911C340.906 439.498 340.991 439.753 362.919 438.03C393.939 435.575 423.608 442.632 452.94 451.018C468.76 455.535 484.636 459.573 500.878 461.973C508.619 463.13 516.107 460.448 523.369 457.851C534.094 454.01 533.587 444.27 531.448 436.789C526.297 418.945 522.524 401.61 527.339 382.975C529.309 375.324 523.904 372.528 516.331 373.093C499.921 374.307 483.482 374.985 467.071 376.001C449.984 377.046 433.968 372.839 417.725 367.786C387.943 358.525 359.062 345.961 327.732 342.122C317.205 340.822 304.963 337.491 295.36 346.328C285.756 355.165 303.888 360.388 309.603 365.922Z" stroke="#D6DE23" stroke-width="3.58333"/>
<path d="M622.365 -8.42869e-05C623.04 5.16048 622.139 10.2402 623.575 15.5713C630.415 41.0062 622.168 62.1062 604.209 80.5137C597.735 87.1462 589.966 92.4144 585.547 101.416C574.457 124.087 584.815 160.58 606.939 171.918C615.806 176.458 625.855 176.628 634.975 173.271C664.052 162.583 685.866 141.884 706.949 120.003C721.839 104.513 729.468 85.1716 737.517 66.1898C747.06 43.7166 764.934 35.4238 787.029 34.0955C801.019 33.2519 815.234 34.0955 829.223 35.3969C857.793 38.0176 879.214 29.5273 888.333 -6.10352e-05" stroke="#D6DE23" stroke-width="3.58333"/>
<path fill-rule="evenodd" clip-rule="evenodd" d="M204.896 684.929C220.557 692.913 229.795 705.761 233.502 723.923C238.3 747.454 252.084 751.418 271.006 736.658C284.228 726.369 299.415 722.489 315.925 722.574C330.743 722.658 343.713 718.975 351.039 704.356C353.566 699.324 354.296 694.713 352.612 688.809C343.039 655.326 339.67 621.027 339.501 586.251C339.474 578.745 337.508 570.423 333.859 563.93C324.848 547.736 308.43 546.556 292.17 561.09C273.418 577.846 256.158 596.316 237.12 612.734C222.978 624.963 209.104 637.109 197.767 652.149C194.346 656.676 188.735 660.133 191.004 667.752C193.274 675.371 197.061 680.937 204.896 684.929Z" stroke="#D6DE23" stroke-width="3.58333"/>
<path d="M-114.14 0.895801C-120.44 18.7012 -124.512 37.1601 -126.544 55.7802C-130.705 94.0587 -122.714 127.566 -86.102 148.717C-71.5058 157.156 -57.9565 167.424 -43.8077 176.678C-15.0984 195.468 -9.13819 209.533 -15.6891 242.81C-19.6267 262.809 -23.2512 282.725 -24.6831 303.231C-23.4749 335.523 18.4793 335.917 18.4793 355.269C18.4793 390.459 -16.0561 391.359 -41.5347 415.635L-114.749 464.118C-121.237 469.392 -123.277 474.292 -127.278 479.271" stroke="#D6DE23" stroke-width="3.58333"/>
<path d="M453.521 -1.04452e-05C457.091 24.1027 454.392 47.5499 446.55 70.5751C440.649 87.8709 434.016 105.059 429.912 122.84C422.999 152.661 433.228 172.019 467.602 172.837C498.013 173.57 511.756 167.843 523.73 135.448C526.596 127.662 529.295 119.616 530.672 111.462C533.623 93.9414 541.436 79.0973 551.724 64.7919C565.467 45.6911 571.538 23.4831 573 0.0358887" stroke="#D6DE23" stroke-width="3.58333"/>
<path fill-rule="evenodd" clip-rule="evenodd" d="M107.653 476.264C81.7176 488.873 57.7473 504.239 41.8448 528.726C35.1051 539.111 32.3679 551.973 32.8705 565.089C33.1846 572.856 35.464 579.442 42.9665 581.722C49.5357 583.72 55.7999 580.231 59.6947 574.855C66.2639 565.821 72.8061 556.589 77.9663 546.71C86.7073 530.105 99.056 516.258 110.705 501.875C115.64 495.768 118.737 488.985 121.842 482.062C124.947 475.138 114.285 473.055 107.653 476.264Z" stroke="#D6DE23" stroke-width="3.58333"/>
<path fill-rule="evenodd" clip-rule="evenodd" d="M405.326 418.505C426.09 424.69 446.909 431.074 468.66 433.344C470.296 433.514 472.384 434.365 474.331 434.45C485.756 434.933 496.194 429.315 496.787 421.711C497.831 408.49 486.546 407.581 478.506 406.446C452.298 402.73 425.92 400.261 399.543 397.708C392.518 397.027 376.579 394.218 381.234 404.687C385.889 415.157 396.694 415.923 405.326 418.505Z" stroke="#D6DE23" stroke-width="3.58333"/>
<path d="M-6.66125 0.895739C-28.1928 26.9722 -23.2481 62.0893 4.63953 80.9029C14.4928 87.5494 24.6696 83.8777 30.1716 72.5323C35.0084 62.5984 34.2982 51.8159 35.2871 41.5693C36.7255 26.472 41.4454 13.2238 49.8333 0.895744" stroke="#D6DE23" stroke-width="3.58333"/>
<path d="M76.7083 0.709244C58.8203 44.6335 52.804 89.9226 61.3272 136.81C62.4731 143.212 65.544 151.114 59.5276 154.641C54.5766 157.518 47.5933 154.952 41.4069 151.171C4.52079 128.684 -22.3649 97.7879 -38.4891 57.7874C-46.3946 38.1777 -44.3442 18.6488 -34.3796 -0.000116523" stroke="#D6DE23" stroke-width="3.58333"/>
<path d="M320.375 62.3413C317.858 51.9859 310.813 46.0469 300.805 45.7065C289.962 45.3392 280.683 50.2661 274.279 59.5285C264.387 73.8253 263.212 82.837 270.062 90.487C277.134 98.37 286.048 97.2144 302.318 89.3404C313.669 83.8492 316.827 74.0224 320.375 63.7477" stroke="#D6DE23" stroke-width="3.58333"/>
<path fill-rule="evenodd" clip-rule="evenodd" d="M416.229 276.767C425.516 299.236 454.787 305.376 476.86 289.243C481.095 286.145 484.708 282.098 488.123 278.107C490.748 275.036 492.583 270.32 490.721 267.194C488.321 263.146 484.849 259.043 478.301 259.908C461.872 262.114 445.416 264.011 428.903 265.491C422.185 266.105 417.556 270.738 416.229 276.767Z" stroke="#D6DE23" stroke-width="3.58333"/>
<path d="M-502 1063.35C-473.988 1060.17 -462.755 1038.95 -452.883 1016.86C-445.726 1000.9 -442.573 983.309 -428.983 970.334C-410.181 952.405 -386.281 949.872 -362.668 946.72C-333.644 942.864 -304.736 939.402 -276.787 929.805C-233.493 914.916 -202.248 885.954 -178.348 848.043C-157.01 814.213 -135.538 780.607 -105.224 753.672C-95.3971 744.919 -84.0294 738.586 -72.6259 732.957C-16.0741 704.953 -17.597 627.272 -46.0565 587.756C-56.4388 573.346 -68.7739 559.977 -74.0054 542.668C-82.5065 514.578 -73.2978 490.937 -43.181 473.768C-43.181 473.768 78.7282 413.959 83.4849 386.518C88.4117 363.354 78.6117 345.256 63.8042 328.792C57.1395 321.389 50.215 314.128 44.1863 306.22C31.3495 289.445 32.7021 270.812 36.8944 251.364C44.8312 214.663 38.3635 181.648 8.89173 155.727C-3.60466 144.746 -15.6799 133.039 -29.3319 123.697C-38.6213 117.338 -46.2804 109.455 -54.1903 101.994C-81.1538 76.4664 -86.8959 43.0925 -65.6744 0.895739" stroke="#D6DE23" stroke-width="3.58333"/>
<path fill-rule="evenodd" clip-rule="evenodd" d="M159.772 248.357C165.21 241.187 158.695 234.604 152.889 230.514C140.909 222.083 98.6067 223.26 87.8112 232.783C75.2928 243.791 73.2647 257.209 75.9658 270.878C78.7566 284.939 92.1096 301.373 105.041 298.973C117.972 296.573 144.597 268.329 159.772 248.357Z" stroke="#D6DE23" stroke-width="3.58333"/>
<path fill-rule="evenodd" clip-rule="evenodd" d="M612.204 256.178C619.221 250.703 620.437 242.46 616.363 235.264C604.564 214.433 585.07 203.313 562.718 197.386C556.238 195.664 553.013 201.563 551.316 208.281C543.535 239.045 564.783 263.375 598.169 263.375C602.895 261.032 608.129 259.339 612.204 256.178Z" stroke="#D6DE23" stroke-width="3.58333"/>
<path fill-rule="evenodd" clip-rule="evenodd" d="M503.667 303.047C524.119 280.861 519.831 249.025 493.738 232.982C469.647 218.144 443.188 217.499 416.22 221.763C404.541 223.614 398.702 229.869 398.843 242.743C398.927 250.4 396.981 258.085 391.254 265.518C376.247 284.955 379.859 297.913 402.172 311.377C418.504 321.222 437.461 327.841 457.122 326.888C475.656 324.784 491.086 316.706 503.667 303.047Z" stroke="#D6DE23" stroke-width="3.58333"/>
<path fill-rule="evenodd" clip-rule="evenodd" d="M762.901 854.008C787.652 844.273 811.784 848.832 836.197 856.512C850.332 860.986 864.524 865.712 879.729 866.866C899.355 868.357 909.435 860.564 909.267 841.319C908.984 814.252 907.999 787.046 917.855 761.162C932.159 723.629 953.869 693.918 996.556 684.943C1023.28 679.316 1039.02 662.491 1043.35 634.58C1045.92 618.094 1054.84 603.716 1065.71 591.028C1069.43 586.666 1072.92 581.742 1073.62 576.791C1074.75 568.997 1069.26 565.424 1061.4 564.046C1040.9 560.444 1020.86 564.271 1000.86 567.197C960.064 573.19 920.107 582.306 883.952 603.548C873.224 609.85 865.424 618.262 858.3 628.7C840.392 654.951 821.386 680.723 792.439 696.422C751.666 718.508 710.753 711.924 669.98 696.422C645.877 687.222 624.899 672.113 602.372 659.902C598.121 657.596 593.926 655.204 589.701 652.869C570.836 642.514 551.548 650.364 549.07 676.812C547.972 688.432 547.746 700.361 549.07 711.953C555.49 767.858 524.206 795.571 484.25 812.199C462.371 821.287 438.325 824.466 417.995 837.295C412.7 840.644 406.394 842.388 403.578 849.731C399.354 860.761 403.043 868.16 415.123 868.02C435.283 867.794 454.938 862.673 474.141 857.806C536.202 842.107 596.206 844.499 654.465 872.324C664.264 876.994 676.175 878.092 686.875 877.895C713.484 873.956 738.123 863.771 762.901 854.008Z" stroke="#D6DE23" stroke-width="3.58333"/>
<path fill-rule="evenodd" clip-rule="evenodd" d="M334.056 157.078C335.575 145.325 335.744 133.58 335.04 121.915C333.747 99.7933 339.426 79.1655 346.427 58.645C348.002 54.0024 349.914 49.3688 350.56 44.592C352.697 28.6784 342.07 14.7953 326.747 16.2266C319.183 16.9332 311.113 16.5665 304.394 19.5453C278.329 31.1562 251.146 36.8276 222.746 37.6774C218.022 37.8115 213.297 39.1623 208.689 40.4325C196.431 43.8049 187.716 50.6033 186.141 64.2627C185.067 73.5121 190.015 87.5919 204.529 93.612C214.478 97.7448 224.885 101.394 235.425 103.389C262.393 108.506 280.584 124.053 294.891 146.872C301.02 156.628 307.937 169.557 322.585 171.104C330.599 169.839 333.073 164.78 334.056 157.078Z" stroke="#D6DE23" stroke-width="3.58333"/>
<path fill-rule="evenodd" clip-rule="evenodd" d="M496.709 127.138C502.463 102.386 513.268 79.6078 523.959 56.8383C525.962 52.55 526.498 48.1271 527.57 43.9195C529.348 37.0474 527.513 29.8882 520.8 25.7703C513.522 21.2846 505.595 21.2577 498.317 25.7703C484.946 33.9971 477.724 47.6157 471.856 61.0907C465.03 76.8176 459.698 93.5404 456.341 110.335C452.956 127.363 461.955 146.059 482.774 144.085C492.76 142.838 494.988 134.585 496.709 127.138Z" stroke="#D6DE23" stroke-width="3.58333"/>
<path fill-rule="evenodd" clip-rule="evenodd" d="M138.79 346.653C149.799 314.729 160.987 283.002 180.967 255.212C184.196 250.712 186.253 245.142 188.023 239.798C194.516 220.222 188.954 202.614 161.434 205.005C141.115 206.777 121.842 207.002 102.255 199.407C85.9783 193.108 72.5451 199.942 64.5407 215.947C50.714 243.511 51.1881 281.117 73.1712 307.078C86.7116 323.054 96.0129 341.028 105.144 359.366C108.802 366.679 112.898 374.695 123.496 373.43C133.307 367.214 135.445 356.357 138.79 346.653Z" stroke="#D6DE23" stroke-width="3.58333"/>
<path fill-rule="evenodd" clip-rule="evenodd" d="M767.93 827.994C788.853 823.213 809.524 823.804 829.829 831.987C838.856 835.643 848.362 838.624 857.924 840.368C872.66 843.039 880.085 837.133 884.668 822.314C892.037 798.466 891.727 773.467 895.355 749.114C900.642 713.428 920.048 691.521 951.939 677.151C971.372 668.378 992.717 663.204 1009.73 649.368C1024.07 637.698 1033.05 623.047 1035.07 604.374C1036.36 592.563 1030.63 586.742 1019.57 584.661C991.311 579.346 965.353 589.498 939.593 597.849C926.487 602.096 912.792 606.877 901.514 615.679C881.181 631.511 880.647 654.852 879.044 677.49C876.26 716.719 877.666 756.425 863.577 794.221C855.505 815.902 852.412 818.124 832.697 805.244C770.771 764.749 701.645 738.203 637.102 702.854C625.994 696.752 614.098 692.393 601.948 688.794C588.647 684.829 582.15 688.175 578.156 701.448C576.526 706.876 575.879 712.64 575.288 718.293C573.038 739.413 570.563 760.362 558.499 778.838C556.502 781.904 556.221 786.206 555.574 790.002C551.327 814.777 555.911 828.669 582.375 832.887C612.466 837.696 641.518 845.767 670.906 853.106C677.206 854.681 685.389 854.147 691.97 854.625C718.405 848.888 741.635 833.984 767.93 827.994Z" stroke="#D6DE23" stroke-width="3.58333"/>
<path fill-rule="evenodd" clip-rule="evenodd" d="M476.876 691.658C470.394 676.624 463.092 661.899 457.261 646.612C451.912 632.618 450.978 617.781 454.402 603.14C456.808 592.854 457.261 582.598 457.063 572.2C456.808 558.205 448.232 549.27 434.45 548.314C423.637 547.555 417.467 553.457 414.694 567.985C410.137 591.871 413.646 615.448 420.666 638.126C427.204 659.23 434.053 680.193 440.393 701.381C444.27 714.364 448.798 729.426 466.997 731C482.366 724.143 485.564 711.779 476.876 691.658Z" stroke="#D6DE23" stroke-width="3.58333"/>
<path fill-rule="evenodd" clip-rule="evenodd" d="M313.308 701.556C325.701 697.337 331.405 689.264 330.028 676.354C328.146 658.802 325.954 641.195 320.335 624.319C312.638 601.226 303.222 598.245 284.256 612.224C266.327 625.444 251.751 643.304 236.183 659.59C231.095 664.906 232.642 672.641 233.456 679.138C234.914 690.671 240.449 700.797 247.307 710.106C252.368 716.969 261.328 715.647 268.384 715.703C283.361 711.006 298.447 706.618 313.308 701.556Z" stroke="#D6DE23" stroke-width="3.58333"/>
<path fill-rule="evenodd" clip-rule="evenodd" d="M296.886 684.62C305.518 679.912 309.246 666.378 305.465 659.527C300.863 651.21 286.799 646.924 277.444 651.097C271.165 653.888 266.626 658.709 261.828 663.559C255.888 669.564 254.711 677.036 256.896 683.323C259.367 690.456 268.864 691.076 276.035 690.541C283.044 688.652 290.696 688.003 296.886 684.62Z" stroke="#D6DE23" stroke-width="3.58333"/>
</g>
<defs>
<clipPath id="clip0_195_2652">
<rect width="600" height="980" fill="white"/>
</clipPath>
</defs>
</svg>
