<svg width="412" height="824" viewBox="0 0 412 824" fill="none" xmlns="http://www.w3.org/2000/svg">
<g clip-path="url(#clip0_234_1900)">
<g clip-path="url(#clip1_234_1900)">
<mask id="mask0_234_1900" style="mask-type:luminance" maskUnits="userSpaceOnUse" x="0" y="-470" width="1080" height="1920">
<path d="M1080 1450L1080 -470L0 -470L-8.39259e-05 1450L1080 1450Z" fill="white"/>
</mask>
<g mask="url(#mask0_234_1900)">
<path d="M-82.5699 766.5C-53.1299 783.37 -20.13 785.76 12.45 790.22C30.49 792.71 48.4 791.95 65.84 788.28C116.207 777.69 126.545 755.09 120.763 709.97C119.349 698.88 116.333 688.01 114.636 676.95C110.205 647.82 139.239 634.24 160.041 639.55C175.249 643.42 189.012 651.31 202.681 659.44C228.259 674.68 251.92 693.35 282.588 699.32C313.037 705.23 336.352 696.08 354.922 672.27C356.525 670.19 358.505 668.27 359.573 665.95C385.968 608.73 439.511 611.4 483.66 620.92C513.417 627.36 537.235 645.08 552.915 672.23C561.556 687.22 572.239 700.83 584.431 712.99C616.168 744.73 653.718 754.84 697.52 743.25C710.561 739.79 724.041 734.73 738.401 741.14C749.901 746.3 758.668 754.4 766.43 763.48C783.303 783.28 801.151 802.23 824.844 813.35C860.225 830.01 896.11 825.61 929.794 808.51C953.047 796.7 958.703 767.76 945.6 739.82C933.974 715 916.126 694.14 899.849 672.42C885.615 653.44 874.491 632.99 867.61 610.8C861.985 592.74 852.558 576.65 836.973 569.23C800.209 551.73 782.141 521.721 769.32 485.428C761.716 463.872 748.833 444.893 727.372 433.298C710.812 424.343 693.938 422.52 675.43 425.317C645.988 429.748 618.085 440.274 589.019 445.773C573.025 448.789 556.905 450.392 540.283 446.276C501.728 436.692 499.874 422.583 504.084 392.575C508.295 362.692 520.958 335.292 528.06 306.258C535.664 275.15 535.821 245.99 510.275 223.177C492.647 207.434 470.934 198.73 447.744 192.792C403.816 181.574 358.599 179.814 314.136 172.587C296.885 169.79 279.917 166.271 263.735 158.73C240.859 148.109 234.324 134.66 238.471 105.029C241.959 80.111 251.292 56.638 253.46 31.281C255.094 12.144 250.914 -6.48904 252.894 -25.342C253.397 -30.056 252.706 -34.612 254.088 -39.577C258.267 -54.722 269.108 -61.447 282.651 -55.068C288.778 -52.177 294.529 -48.249 299.933 -44.133C337.2 -15.853 353.634 -33.889 372.268 -59.907C385.685 -78.666 393.823 -100.159 401.679 -121.338C411.64 -148.141 426.22 -172.493 438.349 -198.102C448.53 -219.627 457.956 -240.837 455.757 -265.723C453.746 -288.505 434.892 -305.253 414.719 -309.872C386.125 -316.408 357.939 -311.129 329.879 -307.735C306.846 -304.97 283.971 -302.11 260.718 -301.545C238.314 -301.011 217.764 -293.312 199.382 -279.895C166.828 -256.171 132.641 -249.572 95.5621 -270.091C90.8801 -272.668 84.4391 -274.522 80.3541 -277.193C51.3501 -296.235 19.46 -308.615 -12.66 -320.744C-17.02 -322.378 -21.0499 -324.86 -25.2599 -326.966" stroke="#D6DE23" stroke-width="4"/>
</g>
<mask id="mask1_234_1900" style="mask-type:luminance" maskUnits="userSpaceOnUse" x="0" y="-470" width="1080" height="1920">
<path d="M1080 1450L1080 -470L0 -470L-8.39259e-05 1450L1080 1450Z" fill="white"/>
</mask>
<g mask="url(#mask1_234_1900)">
<path d="M607.935 -469.969C601.839 -452.718 590.59 -438.672 579.718 -424.375C575.162 -418.373 571.108 -411.963 567.118 -405.553C549.867 -378.027 558.162 -342.142 581.446 -325.74C592.067 -318.261 604.385 -312.385 617.393 -309.872C661.888 -301.293 693.058 -278.386 705.627 -232.824C710.561 -214.945 720.427 -199.611 736.673 -188.581C771.112 -165.203 809.07 -158.542 849.919 -160.113C875.874 -161.118 901.232 -165.8 926.904 -168.251C959.143 -171.33 974.446 -162.784 986.449 -133.686C994.839 -113.388 1008.16 -97.928 1027.55 -88.375C1044.36 -80.111 1061.64 -72.381 1079.4 -66.443C1111.01 -55.853 1129.04 -35.492 1131.21 -1.775C1131.59 3.975 1132.06 9.88198 1132.31 15.538C1133.82 50.009 1130.99 84.29 1121.5 117.567C1116.63 134.66 1105.76 139.688 1088.79 134.786C1080.21 132.335 1072.01 128.596 1063.62 125.485C1046.28 119.044 1029.18 111.439 1010.2 111.376C957.383 111.188 906.071 146.664 892.245 208.723C883.069 249.98 888.348 290.892 895.921 331.207C907.328 391.947 926.872 450.549 947.077 508.932C953.518 527.597 958.389 547.05 959.834 566.97C960.368 574.32 960.463 582.84 951.947 585.51C944.909 587.71 939.535 583.15 936.268 576.43C934.634 573.07 931.711 570.52 929.669 567.19C914.492 542.4 894.633 521.941 870.438 505.57C850.359 491.996 838.638 473.205 832.134 449.261C824.121 419.756 814.946 390.438 801.403 362.63C774.002 306.384 736.107 272.227 670.686 293.06C654.503 298.214 636.498 299.094 618.965 295.229C599.451 290.924 584.149 277.475 595.492 251.175C599.2 242.596 603.505 234.206 608.03 226.037C627.889 190.152 651.361 156.153 665.972 117.535C674.142 95.9169 680.175 74.141 677.504 49.977C673.011 9.34796 649.884 -18.555 618.807 -40.865C584.117 -65.751 558.697 -96.514 548.296 -138.526C538.021 -179.972 529.945 -221.858 524.98 -264.246C521.932 -290.264 517.345 -316.753 524.949 -342.708C529.505 -358.262 536.512 -373.062 541.885 -388.396C543.802 -393.864 548.673 -399.614 542.074 -405.71C535.507 -411.774 529.254 -408.852 523.189 -405.584C495.883 -390.816 468.074 -391.947 439.889 -402.505C431.562 -405.616 424.523 -404.359 417.799 -397.886C394.075 -375.042 399.636 -338.717 430.587 -327.468C466.063 -314.585 486.771 -291.364 496.951 -254.945C507.729 -216.422 516.59 -177.552 524.352 -138.463C532.113 -99.436 544.274 -64.997 579.184 -40.425C597.535 -27.51 614.346 -11.139 628.643 7.36798C652.147 37.817 657.834 70.59 645.579 106.506C636.027 134.503 619.813 158.793 601.745 181.982C585.343 203.035 568.406 223.554 559.042 249.415C542.828 294.255 574.47 330.673 607.935 333.344C627.072 334.884 645.359 333.03 662.862 327.688C724.072 308.96 773.374 337.46 785.566 398.734C788.991 416.048 793.83 433.173 796.344 450.612C801.686 487.911 819.816 516.505 853.25 533.57C881.687 548.12 898.435 570.96 909.873 599.74C922.222 630.76 937.053 660.8 957.006 687.63C973.314 709.53 983.872 733.7 987.8 760.12C991.194 783.03 986.198 802.73 963.511 817.31C944.406 829.6 924.547 839.06 903.274 844.49C865.284 854.17 828.206 852.22 794.898 827.71C782.738 818.76 769.666 811.12 757.286 802.45C727.435 781.49 694.064 774.89 658.274 777.34C616.859 780.17 579.435 772.06 551.406 738.13C537.455 721.22 523.001 704.72 509.081 687.79C496.574 672.61 483.22 658.19 463.424 653.44C423.58 643.86 376.667 678.99 372.331 720.81C372.331 720.81 358.787 781.24 444.602 887.35C451.421 894.67 457.736 902.53 465.121 909.22C480.203 922.92 497.266 928.86 518.507 925.44C544.556 921.22 567.62 909.16 592.287 901.52C649.287 883.83 704.339 883.02 754.018 922.01C771.269 935.55 786.854 951.2 804.514 964.12C841.718 991.3 884.735 1003.43 930.077 1004.62C954.838 1005.28 978.876 1000.16 999.615 982.09C1020.7 963.68 1033.61 939.58 1050.93 918.68C1067.8 898.29 1092.12 889.9 1117.01 898.51C1132.31 903.82 1145.54 913.09 1156.22 925.18C1181.05 953.21 1211.97 965.18 1249.01 962.86C1260.99 962.11 1271.98 965.03 1282.07 972.13C1305.54 988.66 1329.49 1004.46 1355.85 1016.21" stroke="#D6DE23" stroke-width="4"/>
</g>
<mask id="mask2_234_1900" style="mask-type:luminance" maskUnits="userSpaceOnUse" x="0" y="-470" width="1080" height="1920">
<path d="M1080 1450L1080 -470L0 -470L-8.39259e-05 1450L1080 1450Z" fill="white"/>
</mask>
<g mask="url(#mask2_234_1900)">
<path d="M1123.26 -469.969C1129.67 -428.554 1113.46 -397.414 1081.09 -372.245C1067.33 -361.53 1052.59 -352.575 1038.3 -342.928C1006.94 -321.812 985.726 -294.098 980.479 -256.265C971.932 -194.426 1000.09 -147.449 1043.17 -107.072C1062.15 -89.287 1087.44 -85.422 1110.72 -77.283C1131.4 -70.056 1144.09 -57.047 1148.65 -34.832C1156.66 4.22599 1157.58 43.63 1155.78 83.033C1154.97 100.881 1153.3 119.106 1147.02 136.546C1138.19 161.055 1126.44 167.56 1099.66 165.077C1073.55 162.658 1050.68 150.466 1025.88 144.15C1012.88 140.819 1000.24 135.289 986.575 139.688C959.614 148.329 939.787 164.7 928.255 191.409C911.412 230.373 913.958 270.593 919.205 310.877C926.872 369.762 950.062 424.155 971.272 478.861C986.952 519.301 998.012 559.08 990.22 603.23C984.595 635.12 986.889 666.99 1005.21 695.99C1011.52 705.98 1016.17 717.48 1019.38 728.89C1032.55 775.58 1020.64 814.04 987.894 838.43C967.281 853.76 943.18 863.12 917.571 869C876.282 878.49 835.81 880.97 796.595 862.21C776.768 852.72 757.788 841.38 738.369 830.98C714.834 818.38 691.236 809.42 662.893 813.19C606.616 820.67 558.571 803.27 519.701 760.53C506.315 745.83 492.929 730.9 477.878 717.51C463.424 704.6 448.781 695.83 428.859 699.01C428.859 699.01 367.366 708.4 444.57 821.55C451.232 836.16 461.444 848.29 471.091 860.96C487.965 883.11 511.311 885.03 535.664 882.48C547.919 881.22 560.016 877.17 571.799 873.24C605.641 861.99 640.049 857.56 675.525 862.34C720.773 868.44 763.067 880.78 798.355 912.33C814.506 926.76 832.856 939.26 851.647 950.07C892.716 973.67 934.948 981.43 978.876 955.32C1000.09 942.72 1010.71 921.7 1023.97 903C1039.49 881.1 1058.22 867.49 1085.56 865.26C1103.56 863.78 1119.52 869.69 1135.83 875C1163.73 884.08 1177.53 876.73 1186.17 848.26C1189.59 836.95 1190.63 825.42 1190.88 813.7C1191.64 780.64 1187.24 747.36 1196.95 714.69C1211.87 664.54 1225.26 613.91 1267.65 577.87C1276.19 570.58 1279.31 559.68 1278.8 548.21C1278.3 536.68 1278.99 524.958 1277.01 513.677C1269.38 470.188 1314.31 416.205 1355.79 414.665" stroke="#D6DE23" stroke-width="4"/>
</g>
<mask id="mask3_234_1900" style="mask-type:luminance" maskUnits="userSpaceOnUse" x="0" y="-470" width="1080" height="1920">
<path d="M1080 1450L1080 -470L0 -470L-8.39259e-05 1450L1080 1450Z" fill="white"/>
</mask>
<g mask="url(#mask3_234_1900)">
<path d="M-83.3599 720.94C-75.4399 735.27 -60.8 740.42 -47.13 745.83C-18 757.36 12.0101 765.06 43.9001 760.25C77.1201 755.22 91.823 734.01 86.544 700.48C84.187 685.46 78.85 670.25 81.831 655.01C88.681 620.04 114.73 603.95 150.74 601.69C173.773 600.25 194.04 608.95 213.648 620.26C234.135 632.08 253.428 646.22 276.398 653.44C295.377 659.41 311.717 657.91 326.988 642.7C341.694 628.05 351.466 608.6 370.665 598.36C428.074 567.72 507.478 561.44 556.528 620.01C577.393 644.93 595.649 672.61 622.075 692.63C633.639 701.39 646.082 706.86 661.322 707.14C677.599 707.43 689.068 701.46 697.52 688.01C701.291 682.01 705.91 676.51 709.995 670.66C721.716 653.95 734.724 652.56 749.336 665.89C764.89 680.09 770.577 699.92 778.716 717.98C791.002 745.26 806.87 769.33 834.333 781.74C857.052 792.02 879.173 791.14 893.879 776.02C906.353 763.2 909.118 741.14 898.372 727.35C892.936 720.4 886.871 713.15 879.487 708.65C852.621 692.28 841.686 667.21 837.13 637.7C832.888 610.02 816.611 590.32 791.473 579.98C769.069 570.77 755.369 557.64 753.546 532.44C752.761 521.784 748.142 511.289 744.434 501.014C730.2 461.547 709.775 454.069 673.765 458.154C634.99 462.584 598.823 477.133 560.707 483.826C544.022 486.748 527.683 491.21 510.4 488.508C481.083 483.92 463.989 462.553 466.346 433.424C468.891 402.127 480.078 373.25 489.662 343.776C495.538 325.708 497.329 306.729 496.543 287.31C495.129 251.646 474.516 232.918 441.177 226.382C411.64 220.601 381.537 217.71 351.686 213.468C331.953 210.671 313.853 202.344 295.063 196.374C285.416 193.326 275.235 190.404 265.274 190.247C241.645 189.901 232.25 197.788 231.055 226.068C230.993 227.545 232.218 230.184 232.25 232.353C233.098 273.17 227.253 270.814 197.716 282.597C187.881 286.525 177.638 289.541 167.928 293.72C143.827 304.121 133.929 321.121 138.328 347.013C140.465 359.613 142.099 372.182 140.999 384.751C137.982 419.913 125.728 437.635 100.181 443.888C86.8271 447.156 71.87 445.962 57.92 442.788C19.65 434.084 -17.2799 419.818 -56.7399 415.796C-65.7299 414.885 -74.6199 415.513 -83.4799 414.602" stroke="#D6DE23" stroke-width="4"/>
</g>
<mask id="mask4_234_1900" style="mask-type:luminance" maskUnits="userSpaceOnUse" x="0" y="-470" width="1080" height="1920">
<path d="M1080 1450L1080 -470L0 -470L-8.39259e-05 1450L1080 1450Z" fill="white"/>
</mask>
<g mask="url(#mask4_234_1900)">
<path d="M-83.3599 215.039C-52.1199 209.194 -24.9399 216.453 0.23011 236.626C15.2501 248.661 33.4102 257.082 51.7902 263.586C73.5702 271.253 93.5511 263.209 106.812 243.382C111.556 236.312 115.484 228.896 119.632 221.512C128.776 205.141 139.868 189.587 157.056 180.568C196.051 160.144 208.117 126.396 209.248 84.636C210.788 28.673 216.538 -26.976 235.518 -80.363C237.183 -85.045 237.748 -90.387 240.388 -94.409C253.271 -113.859 268.165 -115.336 285.762 -99.185C292.832 -92.68 299.179 -85.359 306.281 -78.855C322.934 -63.615 340.154 -66.663 351.78 -86.647C353.917 -90.292 356.871 -93.749 357.939 -97.677C369.345 -140.694 392.504 -178.243 412.74 -217.207C418.207 -227.734 422.858 -239.171 424.209 -251.583C425.748 -265.818 417.61 -272.762 405.198 -273.516C385.182 -274.742 365.512 -272.793 347.098 -264.121C330.664 -256.391 313.571 -255.417 296.885 -261.23C262.289 -273.296 231.715 -269.023 204.001 -243.885C174.087 -216.736 139.616 -220.067 105.272 -233.075C89.3721 -239.077 73.6302 -246.838 59.8402 -256.674C33.7902 -275.244 5.76014 -288.442 -25.2599 -295.606" stroke="#D6DE23" stroke-width="4"/>
</g>
<mask id="mask5_234_1900" style="mask-type:luminance" maskUnits="userSpaceOnUse" x="0" y="-470" width="1080" height="1920">
<path d="M1080 1450L1080 -470L0 -470L-8.39259e-05 1450L1080 1450Z" fill="white"/>
</mask>
<g mask="url(#mask5_234_1900)">
<path d="M-83.3603 -158.887C-29.5603 -140.097 -5.90029 -99.939 -11.9003 -42.53C-16.4303 0.769975 -13.4702 11.17 25.0498 29.647C28.6298 31.375 32.3998 32.758 36.0498 34.392C62.8198 46.332 84.6897 63.206 97.6047 90.826C105.397 107.48 118.249 120.929 131.855 133.435C141.25 142.076 152.625 144.181 163.12 139.217C174.715 133.749 175.595 121.149 174.118 109.837C171.51 89.978 165.131 70.81 167.677 50.071C170.19 29.647 179.177 11.736 187.253 -6.26904C199.539 -33.575 208.589 -61.258 210.505 -91.298C213.522 -139.123 181.502 -179.186 139.836 -189.116C107.566 -196.814 78.4398 -212.242 51.5398 -232.416C22.1598 -254.443 -12.4003 -263.461 -48.7903 -265.692" stroke="#D6DE23" stroke-width="4"/>
</g>
<mask id="mask6_234_1900" style="mask-type:luminance" maskUnits="userSpaceOnUse" x="0" y="-470" width="1080" height="1920">
<path d="M1080 1450L1080 -470L0 -470L-8.39259e-05 1450L1080 1450Z" fill="white"/>
</mask>
<g mask="url(#mask6_234_1900)">
<path d="M-83.3602 601.53C-85.4302 625.1 -80.7202 648.26 -75.0002 670.54C-63.1802 716.63 -3.89026 737.18 29.8297 725.84C50.2197 718.99 54.1798 702.46 56.3198 684.8C57.7598 672.86 57.5098 660.73 58.0798 648.7C59.7698 613.1 72.2798 593.4 113.096 581.27C131.698 575.74 151.023 572.56 169.53 566.75C188.321 560.84 201.833 547.71 212.108 530.9C227.002 506.512 214.496 467.077 175.909 466.417C160.889 466.166 145.712 467.988 132.075 473.11C88.5548 489.544 46.6999 484.768 4.55986 468.24C-15.7701 460.259 -36.1002 452.12 -58.1202 448.695C-66.9502 447.313 -74.9702 449.261 -83.3302 449.167" stroke="#D6DE23" stroke-width="4"/>
</g>
<mask id="mask7_234_1900" style="mask-type:luminance" maskUnits="userSpaceOnUse" x="0" y="-470" width="1080" height="1920">
<path d="M1080 1450L1080 -470L0 -470L-8.39259e-05 1450L1080 1450Z" fill="white"/>
</mask>
<g mask="url(#mask7_234_1900)">
<path d="M651.927 1449.94C651.015 1433.47 639.138 1425.93 626.82 1418.45C617.519 1412.8 607.59 1408.08 599.985 1399.72C587.259 1385.77 590.245 1372.04 607.872 1363.43C616.922 1359 626.569 1358.4 636.215 1357.24C661.51 1354.16 670.56 1339.64 663.144 1316.33C651.172 1278.69 662.359 1255.46 699.123 1239.53C711.598 1234.13 723.255 1227.88 733.688 1219.05C747.042 1207.8 751.347 1193 750.781 1176.56C750.09 1156.11 754.898 1139.01 769.258 1122.7C790.719 1098.35 787.231 1069.92 759.957 1051.41C736.17 1035.26 719.736 1013.67 703.899 991.08C688.691 969.36 671.251 951.52 644.102 945.51C618.965 939.95 601.274 950.51 585.814 969.08C564.761 994.38 539.56 1011.63 504.21 1008.67C489.85 1007.48 477.281 1002.48 464.964 995.88C464.964 995.88 423.455 961.45 417.39 935.18C417.39 935.18 373.964 860.52 350.272 846.63C342.416 841.91 335.032 835.94 326.611 832.74C309.329 826.14 291.512 834 279.477 851.28C274.481 858.44 269.831 866.17 265.997 873.62C258.299 888.64 245.856 887.98 234.104 885.4C220.906 882.51 208.212 877.48 194.794 874.56C154.071 865.76 121.769 877.58 97.3538 911.04C82.9618 930.78 67.8799 950.1 55.1799 970.9C41.4199 993.46 19.9598 999.84 -3.29023 1001.79" stroke="#D6DE23" stroke-width="4"/>
</g>
<mask id="mask8_234_1900" style="mask-type:luminance" maskUnits="userSpaceOnUse" x="0" y="-470" width="1080" height="1920">
<path d="M1080 1450L1080 -470L0 -470L-8.39259e-05 1450L1080 1450Z" fill="white"/>
</mask>
<g mask="url(#mask8_234_1900)">
<path fill-rule="evenodd" clip-rule="evenodd" d="M444.445 384.688C433.195 418.216 432.787 449.827 453.651 480.778C468.263 502.49 466.283 522.287 452.426 535.58C445.325 542.4 436.495 543.94 427.257 545.04C386.062 549.94 348.292 562.66 318.912 593.77C313.948 599.05 307.6 601.5 301.536 604.68C268.417 621.96 243.247 597.67 241.959 568.57C240.828 543.37 252.548 521.627 262.258 499.443C277.278 465.098 294.403 431.727 302.039 394.272C308.009 364.923 301.284 339.786 285.888 315.622C276.869 301.45 267.631 287.31 265.463 270.059C262.069 242.848 278.786 235.558 298.456 243.256C312.502 248.755 327.239 251.017 342.416 251.3C367.051 251.74 391.749 249.289 416.29 254.254C449.472 260.947 461.696 272.479 468.106 304.624C464.524 332.087 453.117 358.765 444.445 384.688Z" stroke="#D6DE23" stroke-width="4"/>
</g>
<mask id="mask9_234_1900" style="mask-type:luminance" maskUnits="userSpaceOnUse" x="0" y="-470" width="1080" height="1920">
<path d="M1080 1450L1080 -470L0 -470L-8.39259e-05 1450L1080 1450Z" fill="white"/>
</mask>
<g mask="url(#mask9_234_1900)">
<path fill-rule="evenodd" clip-rule="evenodd" d="M324.946 536.93C340.72 520.59 359.95 511.792 381.694 507.235C406.832 501.988 407.115 501.893 405.198 477.415C402.465 442.788 410.32 409.669 419.653 376.927C424.68 359.267 429.174 341.545 431.845 323.414C433.133 314.773 430.148 306.415 427.257 298.308C422.983 286.336 412.143 286.902 403.816 289.29C383.957 295.04 364.664 299.251 343.925 293.877C335.409 291.678 332.298 297.711 332.927 306.164C334.278 324.483 335.032 342.833 336.163 361.153C337.326 380.226 332.644 398.105 327.02 416.236C316.713 449.481 302.73 481.72 298.457 516.693C297.011 528.445 293.304 542.11 303.139 552.83C312.974 563.55 318.787 543.31 324.946 536.93Z" stroke="#D6DE23" stroke-width="4"/>
</g>
<mask id="mask10_234_1900" style="mask-type:luminance" maskUnits="userSpaceOnUse" x="0" y="-470" width="1080" height="1920">
<path d="M1080 1450L1080 -470L0 -470L-8.39259e-05 1450L1080 1450Z" fill="white"/>
</mask>
<g mask="url(#mask10_234_1900)">
<path d="M-83.3601 185.187C-77.6101 184.433 -71.9501 185.439 -66.0101 183.836C-37.6701 176.201 -14.1601 185.407 6.34986 205.455C13.7399 212.682 19.6099 221.355 29.6399 226.288C54.8999 238.668 95.5619 227.105 108.194 202.407C113.253 192.509 113.442 181.291 109.702 171.11C97.7929 138.651 74.7299 114.299 50.3499 90.7629C33.0899 74.1409 11.5399 65.6249 -9.61009 56.6389C-34.6501 45.9859 -43.8901 26.0329 -45.3701 1.36694C-46.3101 -14.2501 -45.3701 -30.1191 -43.9201 -45.7351C-41.0001 -77.6291 -50.4601 -101.542 -83.3601 -111.722" stroke="#D6DE23" stroke-width="4"/>
</g>
<mask id="mask11_234_1900" style="mask-type:luminance" maskUnits="userSpaceOnUse" x="0" y="-470" width="1080" height="1920">
<path d="M1080 1450L1080 -470L0 -470L-8.39259e-05 1450L1080 1450Z" fill="white"/>
</mask>
<g mask="url(#mask11_234_1900)">
<path d="M-83.36 376.864C-56.52 372.873 -30.41 375.89 -4.77003 384.657C14.49 391.255 33.63 398.671 53.43 403.259C86.638 410.988 108.194 399.551 109.105 361.121C109.922 327.122 103.544 311.757 67.47 298.371C58.8 295.166 49.84 292.149 40.76 290.609C21.25 287.31 4.72003 278.575 -11.21 267.074C-32.48 251.709 -57.21 244.921 -83.32 243.287" stroke="#D6DE23" stroke-width="4"/>
</g>
<mask id="mask12_234_1900" style="mask-type:luminance" maskUnits="userSpaceOnUse" x="0" y="-470" width="1080" height="1920">
<path d="M1080 1450L1080 -470L0 -470L-8.39259e-05 1450L1080 1450Z" fill="white"/>
</mask>
<g mask="url(#mask12_234_1900)">
<path fill-rule="evenodd" clip-rule="evenodd" d="M604.667 130.135C613.057 115.618 618.525 99.813 620.441 83.065C623.364 57.298 612.711 36.623 595.366 18.649C575.287 -2.12103 553.103 -20.975 535.727 -44.227C515.931 -70.748 510.495 -102.704 502.608 -133.718C499.34 -146.57 497.171 -159.736 490.196 -171.488C480.36 -188.11 473.793 -189.398 461.947 -174.473C448.75 -157.85 443.314 -137.174 435.238 -117.975C422.166 -86.993 410.917 -55.256 389.644 -28.422C367.617 -0.613023 340.123 7.14797 307.915 -1.90103C286.767 -7.84003 280.828 -4.16404 284.599 17.046C288.621 39.765 287.71 61.1319 280.012 83.2219C271.842 106.726 285.196 128.156 309.423 136.577C333.901 145.061 359.699 146.161 384.868 146.915C425.686 148.172 462.418 160.741 497.926 178.997C509.898 185.156 524.163 188.801 537.235 191.472C572.459 185.03 588.768 157.63 604.667 130.135Z" stroke="#D6DE23" stroke-width="4"/>
</g>
<mask id="mask13_234_1900" style="mask-type:luminance" maskUnits="userSpaceOnUse" x="0" y="-470" width="1080" height="1920">
<path d="M1080 1450L1080 -470L0 -470L-8.39259e-05 1450L1080 1450Z" fill="white"/>
</mask>
<g mask="url(#mask13_234_1900)">
<path fill-rule="evenodd" clip-rule="evenodd" d="M382.857 430.156C389.707 407.029 396.777 383.84 399.291 359.613C399.479 357.791 400.422 355.465 400.516 353.297C401.051 340.571 394.829 328.945 386.408 328.285C371.765 327.122 370.759 339.691 369.502 348.647C365.386 377.838 362.652 407.218 359.824 436.598C359.07 444.422 355.959 462.176 367.554 456.991C379.149 451.806 379.997 439.771 382.857 430.156Z" stroke="#D6DE23" stroke-width="4"/>
</g>
<mask id="mask14_234_1900" style="mask-type:luminance" maskUnits="userSpaceOnUse" x="0" y="-470" width="1080" height="1920">
<path d="M1080 1450L1080 -470L0 -470L-8.39259e-05 1450L1080 1450Z" fill="white"/>
</mask>
<g mask="url(#mask14_234_1900)">
<path fill-rule="evenodd" clip-rule="evenodd" d="M133.458 78.3509C146.907 69.9299 143.607 55.3499 143.859 43.7869C144.299 21.9479 148.006 1.30393 155.265 -19.1211C157.15 -24.4001 158.627 -31.5011 156.585 -36.1521C152.343 -45.8611 143.262 -48.3751 133.489 -44.1011C112.876 -35.0831 91.415 -31.4071 69.04 -31.5011C58.58 -31.5331 45.1301 -39.6711 39.3801 -23.7081C34.5401 -10.2601 45.82 -3.50407 53.36 4.50893C73.69 26.0649 97.8881 43.7549 116.301 67.2909C120.135 72.1609 126.105 78.7279 133.458 78.3509Z" stroke="#D6DE23" stroke-width="4"/>
</g>
<mask id="mask15_234_1900" style="mask-type:luminance" maskUnits="userSpaceOnUse" x="0" y="-470" width="1080" height="1920">
<path d="M1080 1450L1080 -470L0 -470L-8.39259e-05 1450L1080 1450Z" fill="white"/>
</mask>
<g mask="url(#mask15_234_1900)">
<path d="M-82.5698 801.07C-33.6498 821.05 16.7902 827.77 69.0102 818.25C76.1402 816.97 84.9412 813.54 88.8692 820.26C92.0742 825.79 89.2152 833.59 85.0042 840.5C59.9602 881.7 25.5502 911.73 -18.9998 929.74C-40.8398 938.57 -62.5898 936.28 -83.3598 925.15" stroke="#D6DE23" stroke-width="4"/>
</g>
<mask id="mask16_234_1900" style="mask-type:luminance" maskUnits="userSpaceOnUse" x="0" y="-470" width="1080" height="1920">
<path d="M1080 1450L1080 -470L0 -470L-8.39259e-05 1450L1080 1450Z" fill="white"/>
</mask>
<g mask="url(#mask16_234_1900)">
<path d="M-14.2301 527.691C-25.7901 530.52 -32.4202 538.44 -32.8002 549.69C-33.2102 561.88 -27.7102 572.31 -17.3702 579.51C-1.41015 590.63 8.64978 591.95 17.1898 584.25C25.9898 576.3 24.6999 566.28 15.9099 547.99C9.77988 535.23 -1.19019 531.68 -12.6602 527.691" stroke="#D6DE23" stroke-width="4"/>
</g>
<mask id="mask17_234_1900" style="mask-type:luminance" maskUnits="userSpaceOnUse" x="0" y="-470" width="1080" height="1920">
<path d="M1080 1450L1080 -470L0 -470L-8.39259e-05 1450L1080 1450Z" fill="white"/>
</mask>
<g mask="url(#mask17_234_1900)">
<path fill-rule="evenodd" clip-rule="evenodd" d="M224.582 417.713C249.877 407.375 256.79 374.79 238.628 350.218C235.14 345.504 230.584 341.482 226.091 337.68C222.634 334.758 217.324 332.716 213.805 334.789C209.248 337.46 204.629 341.325 205.603 348.615C208.086 366.903 210.222 385.222 211.888 403.604C212.579 411.083 217.795 416.236 224.582 417.713Z" stroke="#D6DE23" stroke-width="4"/>
</g>
<mask id="mask18_234_1900" style="mask-type:luminance" maskUnits="userSpaceOnUse" x="0" y="-470" width="1080" height="1920">
<path d="M1080 1450L1080 -470L0 -470L-8.39259e-05 1450L1080 1450Z" fill="white"/>
</mask>
<g mask="url(#mask18_234_1900)">
<path d="M1102.84 1449.94C1099.29 1418.67 1075.59 1406.13 1050.93 1395.11C1033.11 1387.12 1013.47 1383.6 998.986 1368.43C978.97 1347.44 976.142 1320.76 972.623 1294.4C968.318 1262 964.453 1229.73 953.738 1198.53C937.116 1150.2 904.782 1115.32 862.456 1088.64C824.687 1064.82 787.168 1040.85 757.097 1007.01C747.325 996.04 740.255 983.35 733.97 970.62C702.705 907.49 615.979 909.19 571.862 940.96C555.774 952.55 540.849 966.32 521.524 972.16C490.164 981.65 463.77 971.37 444.602 937.75C444.602 937.75 377.829 801.66 347.193 796.35C321.332 790.85 301.127 801.79 282.745 818.32C274.481 825.76 266.374 833.49 257.545 840.22C238.817 854.55 218.015 853.04 196.302 848.36C155.328 839.5 118.469 846.72 89.5291 879.62C77.2701 893.57 64.2001 907.05 53.7701 922.29C46.6701 932.66 37.8702 941.21 29.5402 950.04C1.04015 980.14 -36.2198 986.55 -83.3298 962.86" stroke="#D6DE23" stroke-width="4"/>
</g>
<mask id="mask19_234_1900" style="mask-type:luminance" maskUnits="userSpaceOnUse" x="0" y="-470" width="1080" height="1920">
<path d="M1080 1450L1080 -470L0 -470L-8.39259e-05 1450L1080 1450Z" fill="white"/>
</mask>
<g mask="url(#mask19_234_1900)">
<path fill-rule="evenodd" clip-rule="evenodd" d="M192.94 707.08C184.896 701.02 177.512 708.28 172.924 714.75C163.466 728.1 164.786 775.24 175.469 787.27C187.818 801.22 202.87 803.48 218.204 800.47C233.978 797.36 252.413 782.483 249.721 768.07C247.029 753.657 215.344 723.99 192.94 707.08Z" stroke="#D6DE23" stroke-width="4"/>
</g>
<mask id="mask20_234_1900" style="mask-type:luminance" maskUnits="userSpaceOnUse" x="0" y="-470" width="1080" height="1920">
<path d="M1080 1450L1080 -470L0 -470L-8.39259e-05 1450L1080 1450Z" fill="white"/>
</mask>
<g mask="url(#mask20_234_1900)">
<path fill-rule="evenodd" clip-rule="evenodd" d="M202.43 197.882C196.334 190.089 187.158 188.738 179.146 193.263C155.956 206.366 143.576 228.016 136.977 252.84C135.06 260.036 141.627 263.618 149.106 265.503C183.356 274.144 210.442 250.546 210.442 213.468C207.834 208.22 205.949 202.407 202.43 197.882Z" stroke="#D6DE23" stroke-width="4"/>
</g>
<mask id="mask21_234_1900" style="mask-type:luminance" maskUnits="userSpaceOnUse" x="0" y="-470" width="1080" height="1920">
<path d="M1080 1450L1080 -470L0 -470L-8.39259e-05 1450L1080 1450Z" fill="white"/>
</mask>
<g mask="url(#mask21_234_1900)">
<path fill-rule="evenodd" clip-rule="evenodd" d="M254.434 320.304C229.579 297.523 193.914 302.299 175.941 331.364C159.318 358.199 158.596 387.673 163.372 417.713C165.446 430.722 172.453 437.226 186.876 437.069C195.454 436.975 204.064 439.143 212.391 445.522C234.166 462.239 248.683 458.216 263.766 433.361C274.795 415.168 282.211 394.052 281.143 372.151C278.786 351.506 269.736 334.318 254.434 320.304Z" stroke="#D6DE23" stroke-width="4"/>
</g>
<mask id="mask22_234_1900" style="mask-type:luminance" maskUnits="userSpaceOnUse" x="0" y="-470" width="1080" height="1920">
<path d="M1080 1450L1080 -470L0 -470L-8.39259e-05 1450L1080 1450Z" fill="white"/>
</mask>
<g mask="url(#mask22_234_1900)">
<path fill-rule="evenodd" clip-rule="evenodd" d="M91.069 511.729C77.93 510.032 64.8 509.843 51.76 510.629C27.03 512.074 3.97003 505.727 -18.97 497.903C-24.16 496.143 -29.3401 494.006 -34.6801 493.284C-52.4701 490.896 -67.99 502.773 -66.39 519.898C-65.6 528.351 -66.0101 537.37 -62.6801 544.88C-49.7001 574.01 -43.36 604.39 -42.41 636.13C-42.26 641.41 -40.75 646.69 -39.33 651.84C-35.56 665.54 -27.9599 675.28 -12.6899 677.04C-2.34995 678.24 13.39 672.71 20.12 656.49C24.74 645.37 28.82 633.74 31.05 621.96C36.77 591.82 54.15 571.49 79.66 555.5C90.566 548.65 105.02 540.918 106.749 524.549C105.335 515.593 99.679 512.828 91.069 511.729Z" stroke="#D6DE23" stroke-width="4"/>
</g>
<mask id="mask23_234_1900" style="mask-type:luminance" maskUnits="userSpaceOnUse" x="0" y="-470" width="1080" height="1920">
<path d="M1080 1450L1080 -470L0 -470L-8.39259e-05 1450L1080 1450Z" fill="white"/>
</mask>
<g mask="url(#mask23_234_1900)">
<path fill-rule="evenodd" clip-rule="evenodd" d="M58.0102 328.348C30.4202 321.938 5.03018 309.903 -20.3498 297.994C-25.1298 295.763 -30.0598 295.166 -34.7498 293.972C-42.4098 291.992 -50.3898 294.035 -54.9798 301.513C-59.9798 309.62 -60.0098 318.45 -54.9798 326.557C-45.8098 341.451 -30.6298 349.495 -15.6098 356.031C1.92016 363.635 20.5602 369.574 39.2802 373.313C58.2602 377.084 79.1002 367.06 76.9002 343.87C75.5102 332.747 66.3102 330.265 58.0102 328.348Z" stroke="#D6DE23" stroke-width="4"/>
</g>
<mask id="mask24_234_1900" style="mask-type:luminance" maskUnits="userSpaceOnUse" x="0" y="-470" width="1080" height="1920">
<path d="M1080 1450L1080 -470L0 -470L-8.39259e-05 1450L1080 1450Z" fill="white"/>
</mask>
<g mask="url(#mask24_234_1900)">
<path fill-rule="evenodd" clip-rule="evenodd" d="M61.0298 155.525C38.7198 138.525 18.9198 119.075 1.51977 97.142C-4.24022 89.852 -11.8403 85.296 -20.4203 88.093C-31.5103 91.706 -37.0703 100.819 -37.9203 112.885C-38.7103 123.6 -37.2602 134.409 -31.2302 142.516C-11.5902 168.879 14.7398 185.973 47.0498 192.886C60.5898 195.777 69.5198 187.859 73.7598 174.19C72.1198 166.177 66.9398 160.018 61.0298 155.525Z" stroke="#D6DE23" stroke-width="4"/>
</g>
<mask id="mask25_234_1900" style="mask-type:luminance" maskUnits="userSpaceOnUse" x="0" y="-470" width="1080" height="1920">
<path d="M1080 1450L1080 -470L0 -470L-8.39259e-05 1450L1080 1450Z" fill="white"/>
</mask>
<g mask="url(#mask25_234_1900)">
<path fill-rule="evenodd" clip-rule="evenodd" d="M303.075 730.55C267.411 718.24 231.967 705.73 200.921 683.39C195.894 679.78 189.672 677.48 183.702 675.5C161.832 668.24 142.161 674.46 144.832 705.23C146.812 727.95 147.063 749.5 138.579 771.4C131.541 789.6 139.176 804.62 157.056 813.57C187.85 829.03 229.861 828.5 258.864 803.92C276.712 788.78 296.791 778.38 317.278 768.17C325.448 764.08 334.403 759.5 332.989 747.65C326.045 736.68 313.916 734.29 303.075 730.55Z" stroke="#D6DE23" stroke-width="4"/>
</g>
<mask id="mask26_234_1900" style="mask-type:luminance" maskUnits="userSpaceOnUse" x="0" y="-470" width="1080" height="1920">
<path d="M1080 1450L1080 -470L0 -470L-8.39259e-05 1450L1080 1450Z" fill="white"/>
</mask>
<g mask="url(#mask26_234_1900)">
<path fill-rule="evenodd" clip-rule="evenodd" d="M535.538 65.908C513.731 47.275 496.826 25.7189 486.519 -1.61806C479.795 -19.4661 461.538 -21.729 451.169 -6.23704C436.463 15.758 418.395 34.077 399.165 51.862C383.611 66.222 386.282 74.769 406.832 81.431C434.892 90.512 464.649 90.701 493.212 97.205C504.587 99.813 516.119 100.316 527.777 100.536C538.837 100.724 547.071 96.4819 549.804 84.6359C548.358 75.9009 541.477 70.967 535.538 65.908Z" stroke="#D6DE23" stroke-width="4"/>
</g>
<mask id="mask27_234_1900" style="mask-type:luminance" maskUnits="userSpaceOnUse" x="0" y="-470" width="1080" height="1920">
<path d="M1080 1450L1080 -470L0 -470L-8.39259e-05 1450L1080 1450Z" fill="white"/>
</mask>
<g mask="url(#mask27_234_1900)">
<path fill-rule="evenodd" clip-rule="evenodd" d="M549.301 23.834C528.468 1.86997 514.862 -23.6141 502.639 -50.4801C497.737 -61.2581 491.515 -71.1561 482.214 -78.7601C473.919 -85.5471 465.372 -85.5791 457.108 -78.7601C448.435 -71.5961 443.156 -61.9811 438.192 -52.1141C428.765 -33.3551 420.155 -14.1871 405.355 1.42995C392.126 15.3499 376.604 24.651 358.159 29.773C350.555 31.909 343.359 35.68 336.132 39.074C322.243 45.578 315.299 56.23 315.55 72.036C315.802 88.187 327.491 93.56 339.305 98.651C362.841 108.8 388.042 111.848 413.054 116.373C445.764 122.312 477.815 132.241 510.62 137.457C530.416 140.599 551.752 140.191 568.563 125.36C580.629 114.739 588.202 100.096 585.94 83.065C581.1 58.807 565.169 40.551 549.301 23.834Z" stroke="#D6DE23" stroke-width="4"/>
</g>
</g>
</g>
<defs>
<clipPath id="clip0_234_1900">
<rect width="412" height="824" fill="white"/>
</clipPath>
<clipPath id="clip1_234_1900">
<rect width="1920" height="1080" fill="white" transform="translate(1080 -470) rotate(90)"/>
</clipPath>
</defs>
</svg>
