<svg width="768" height="1024" viewBox="0 0 768 1024" fill="none" xmlns="http://www.w3.org/2000/svg">
<g clip-path="url(#clip0_195_2652)">
<path d="M-54.2084 762.533C-27.8373 777.649 1.72293 779.79 30.9068 783.786C47.0663 786.017 63.1093 785.336 78.7314 782.048C123.848 772.559 133.108 752.31 127.929 711.883C126.663 701.946 123.961 692.207 122.441 682.297C118.472 656.197 144.479 644.029 163.113 648.787C176.736 652.254 189.064 659.323 201.308 666.608C224.22 680.263 245.414 696.991 272.886 702.34C300.161 707.636 321.045 699.437 337.68 678.104C339.115 676.24 340.889 674.52 341.846 672.441C365.489 621.172 413.451 623.564 452.998 632.094C479.653 637.864 500.988 653.741 515.034 678.068C522.774 691.499 532.343 703.693 543.265 714.589C571.693 743.027 605.329 752.086 644.565 741.701C656.247 738.601 668.322 734.067 681.185 739.811C691.486 744.434 699.339 751.692 706.292 759.827C721.406 777.568 737.394 794.547 758.617 804.511C790.31 819.438 822.454 815.496 852.627 800.174C873.456 789.592 878.522 763.662 866.785 738.628C856.371 716.39 840.384 697.699 825.803 678.238C813.053 661.232 803.089 642.909 796.925 623.027C791.886 606.845 783.442 592.428 769.482 585.78C736.55 570.1 720.365 543.212 708.881 510.694C702.069 491.38 690.529 474.375 671.305 463.985C656.472 455.962 641.357 454.328 624.778 456.835C598.405 460.805 573.41 470.236 547.374 475.163C533.048 477.865 518.608 479.302 503.719 475.614C469.183 467.027 467.522 454.385 471.293 427.498C475.065 400.723 486.408 376.173 492.77 350.158C499.581 322.285 499.722 296.158 476.839 275.718C461.048 261.612 441.598 253.813 420.826 248.493C381.477 238.442 340.973 236.865 301.145 230.389C285.692 227.883 270.493 224.73 255.998 217.974C235.506 208.457 229.653 196.407 233.367 169.858C236.492 147.531 244.852 126.5 246.794 103.78C248.258 86.633 244.513 69.9379 246.287 53.0457C246.737 48.822 246.119 44.7398 247.356 40.2912C251.1 26.7213 260.811 20.6958 272.942 26.4113C278.43 29.0017 283.582 32.5211 288.423 36.209C321.805 61.5478 336.526 45.3876 353.217 22.0756C365.236 5.26761 372.525 -13.99 379.563 -32.9664C388.485 -56.9817 401.545 -78.8011 412.41 -101.747C421.53 -121.033 429.973 -140.037 428.004 -162.335C426.202 -182.747 409.313 -197.754 391.243 -201.892C365.63 -207.748 340.382 -203.018 315.247 -199.977C294.615 -197.5 274.124 -194.937 253.295 -194.431C233.227 -193.953 214.819 -187.054 198.353 -175.033C169.192 -153.776 138.569 -147.864 105.355 -166.249C101.161 -168.558 95.3917 -170.219 91.7325 -172.612C65.7519 -189.673 37.1861 -200.766 8.41425 -211.633C4.50873 -213.097 0.898775 -215.321 -2.87238 -217.208" stroke="#D6DE23" stroke-width="3.58333"/>
<path d="M564.196 -345.313C558.737 -329.86 548.663 -317.279 538.926 -304.473C534.846 -299.097 531.215 -293.355 527.642 -287.614C512.193 -262.958 519.621 -230.815 540.474 -216.123C549.985 -209.424 561.017 -204.161 572.666 -201.91C612.514 -194.226 640.429 -173.707 651.685 -132.896C656.104 -116.881 664.94 -103.146 679.489 -93.2665C710.331 -72.3262 744.325 -66.3598 780.908 -67.7669C804.152 -68.6671 826.862 -72.8609 849.852 -75.0564C878.724 -77.8143 892.429 -70.1594 903.179 -44.0956C910.692 -25.9142 922.624 -12.0662 939.987 -3.50937C955.042 3.89291 970.519 10.8169 986.419 16.1357C1014.73 25.6214 1030.88 43.8593 1032.82 74.0605C1033.16 79.2109 1033.58 84.502 1033.81 89.5682C1035.16 120.445 1032.63 151.151 1024.13 180.958C1019.77 196.269 1010.03 200.773 994.833 196.382C987.15 194.186 979.806 190.837 972.292 188.051C956.759 182.281 941.45 175.469 924.453 175.413C877.148 175.244 831.195 207.021 818.813 262.609C810.596 299.564 815.323 336.21 822.105 372.321C832.321 426.727 849.824 479.219 867.919 531.514C873.687 548.233 878.049 565.657 879.343 583.5C879.822 590.084 879.907 597.715 872.28 600.107C865.977 602.077 861.164 597.993 858.238 591.974C856.775 588.964 854.157 586.68 852.329 583.697C838.737 561.492 820.952 543.166 799.284 528.502C781.302 516.344 770.805 499.512 764.98 478.065C757.804 451.637 749.587 425.376 737.459 400.467C712.919 350.086 678.982 319.491 620.393 338.152C605.901 342.768 589.776 343.557 574.074 340.095C556.598 336.239 542.894 324.192 553.053 300.634C556.373 292.95 560.229 285.435 564.281 278.118C582.066 245.974 603.087 215.521 616.172 180.93C623.489 161.566 628.891 142.06 626.499 120.416C622.476 84.0236 601.764 59.0302 573.933 39.0465C542.866 16.7555 520.1 -10.7997 510.786 -48.4309C501.584 -85.5552 494.351 -123.074 489.905 -161.042C487.175 -184.347 483.067 -208.073 489.877 -231.322C493.957 -245.254 500.232 -258.511 505.044 -272.246C506.761 -277.143 511.123 -282.294 505.214 -287.754C499.332 -293.186 493.732 -290.569 488.301 -287.642C463.847 -274.413 438.942 -275.426 413.701 -284.883C406.243 -287.67 399.939 -286.544 393.918 -280.746C372.671 -260.284 377.652 -227.747 405.37 -217.671C437.141 -206.131 455.686 -185.332 464.803 -152.71C474.455 -118.204 482.391 -83.3875 489.342 -48.3745C496.293 -13.417 507.184 17.4309 538.448 39.4407C554.882 51.009 569.938 65.6729 582.741 82.2501C603.791 109.524 608.884 138.88 597.909 171.051C589.354 196.128 574.834 217.885 558.653 238.656C543.964 257.514 528.795 275.893 520.409 299.058C505.889 339.222 534.226 371.843 564.196 374.235C581.334 375.615 597.712 373.954 613.387 369.169C668.204 352.394 712.357 377.922 723.276 432.807C726.343 448.315 730.677 463.655 732.928 479.275C737.712 512.685 753.949 538.297 783.891 553.583C809.358 566.616 824.357 587.074 834.6 612.853C845.659 640.638 858.941 667.546 876.811 691.578C891.415 711.195 900.871 732.844 904.389 756.509C907.428 777.03 902.954 794.676 882.636 807.736C865.527 818.744 847.742 827.218 828.69 832.082C794.668 840.752 761.462 839.006 731.633 817.052C720.743 809.035 709.036 802.191 697.949 794.426C671.216 775.651 641.33 769.739 609.278 771.934C572.188 774.469 538.673 767.204 513.571 736.812C501.077 721.666 488.132 706.886 475.666 691.722C464.465 678.124 452.506 665.208 434.778 660.953C399.095 652.372 357.081 683.839 353.198 721.298C353.198 721.298 341.069 775.427 417.921 870.473C424.028 877.029 429.684 884.07 436.297 890.062C449.804 902.334 465.085 907.654 484.108 904.591C507.436 900.811 528.092 890.008 550.182 883.165C601.229 867.32 650.532 866.594 695.022 901.518C710.472 913.647 724.429 927.665 740.245 939.237C773.563 963.583 812.088 974.448 852.694 975.514C874.869 976.106 896.397 971.519 914.97 955.334C933.852 938.843 945.418 917.256 960.923 898.536C976.035 880.272 997.816 872.757 1020.1 880.469C1033.81 885.225 1045.65 893.529 1055.22 904.358C1077.45 929.465 1105.14 940.187 1138.32 938.109C1149.04 937.437 1158.89 940.053 1167.93 946.412C1188.95 961.219 1210.39 975.371 1234 985.896" stroke="#D6DE23" stroke-width="3.58333"/>
<path d="M1025.73 -345.313C1031.47 -308.228 1016.94 -280.344 987.955 -257.806C975.628 -248.211 962.428 -240.193 949.622 -231.554C921.533 -212.646 902.535 -187.83 897.835 -153.952C890.179 -98.5784 915.397 -56.5129 953.984 -20.3573C970.984 -4.43178 993.641 -0.970856 1014.5 6.3172C1033.02 12.7886 1044.39 24.4375 1048.47 44.3299C1055.64 79.3043 1056.46 114.589 1054.86 149.872C1054.12 165.854 1052.63 182.173 1047 197.79C1039.1 219.737 1028.57 225.562 1004.59 223.338C981.201 221.172 960.711 210.255 938.504 204.599C926.852 201.616 915.538 196.664 903.295 200.604C879.146 208.341 861.387 223.001 851.058 246.917C835.971 281.807 838.252 317.822 842.952 353.895C849.819 406.623 870.59 455.329 889.588 504.316C903.633 540.527 913.54 576.148 906.56 615.682C901.522 644.237 903.576 672.775 919.985 698.743C925.642 707.689 929.808 717.987 932.678 728.204C944.471 770.012 933.804 804.451 904.477 826.291C886.013 840.018 864.426 848.4 841.488 853.665C804.505 862.163 768.254 864.384 733.129 847.585C715.37 839.087 698.37 828.933 680.976 819.62C659.896 808.337 638.759 800.314 613.372 803.69C562.964 810.388 519.93 794.807 485.114 756.536C473.124 743.373 461.134 730.004 447.653 718.014C434.707 706.453 421.591 698.6 403.747 701.448C403.747 701.448 348.667 709.856 417.819 811.176C423.786 824.259 432.933 835.12 441.574 846.466C456.688 866.3 477.599 868.019 499.412 865.736C510.389 864.607 521.224 860.981 531.779 857.462C562.091 847.388 592.91 843.421 624.686 847.701C665.215 853.164 703.098 864.213 734.706 892.465C749.172 905.386 765.608 916.579 782.44 926.259C819.225 947.392 857.053 954.34 896.399 930.96C915.397 919.677 924.91 900.855 936.788 884.11C950.691 864.5 967.466 852.313 991.952 850.316C1008.08 848.991 1022.38 854.283 1036.98 859.038C1061.98 867.168 1074.33 860.587 1082.07 835.093C1085.14 824.966 1086.07 814.641 1086.29 804.147C1086.97 774.543 1083.03 744.743 1091.73 715.488C1105.1 670.582 1117.09 625.245 1155.05 592.973C1162.71 586.445 1165.49 576.685 1165.04 566.414C1164.59 556.09 1165.21 545.593 1163.44 535.492C1156.6 496.549 1196.85 448.21 1234 446.831" stroke="#D6DE23" stroke-width="3.58333"/>
<path d="M-55.8925 719.305C-48.794 732.136 -35.6727 736.747 -23.4208 741.59C2.68742 751.914 29.5844 758.808 58.1663 754.501C87.9402 749.998 101.118 731.008 96.3865 700.987C94.274 687.539 89.4907 673.921 92.1625 660.276C98.3019 628.966 121.649 614.56 153.923 612.536C174.567 611.247 192.731 619.036 210.305 629.163C228.667 639.746 245.959 652.406 266.546 658.87C283.556 664.215 298.201 662.872 311.888 649.254C325.068 636.137 333.827 618.723 351.034 609.555C402.488 582.122 473.655 576.499 517.617 628.939C536.317 651.251 552.679 676.034 576.364 693.958C586.728 701.802 597.881 706.699 611.54 706.95C626.128 707.209 636.408 701.864 643.983 689.822C647.363 684.45 651.502 679.526 655.164 674.288C665.669 659.327 677.327 658.082 690.424 670.017C704.364 682.731 709.461 700.485 716.756 716.655C727.767 741.08 741.989 762.631 766.603 773.742C786.966 782.946 806.792 782.158 819.972 768.621C831.152 757.142 833.631 737.391 823.999 725.045C819.127 718.822 813.691 712.331 807.073 708.302C782.994 693.645 773.194 671.199 769.11 644.777C765.308 619.995 750.72 602.356 728.19 593.099C708.11 584.852 695.831 573.097 694.197 550.534C693.493 540.993 689.353 531.597 686.03 522.397C673.273 487.061 654.966 480.366 622.692 484.023C587.939 487.989 555.524 501.016 521.362 507.008C506.408 509.624 491.764 513.619 476.274 511.2C449.998 507.092 434.677 487.962 436.79 461.881C439.071 433.86 449.097 408.005 457.687 381.616C462.953 365.439 464.559 348.446 463.854 331.06C462.587 299.128 444.112 282.361 414.232 276.509C387.759 271.333 360.778 268.744 334.024 264.946C316.338 262.442 300.116 254.986 283.275 249.641C274.629 246.912 265.504 244.296 256.576 244.156C235.398 243.846 226.978 250.907 225.907 276.227C225.851 277.55 226.949 279.913 226.978 281.855C227.738 318.4 222.499 316.29 196.026 326.84C187.211 330.357 178.031 333.057 169.328 336.799C147.727 346.111 138.856 361.332 142.799 384.514C144.714 395.795 146.179 407.049 145.193 418.302C142.489 449.784 131.506 465.652 108.609 471.25C96.6402 474.176 83.2347 473.107 70.7318 470.265C36.4318 462.472 3.33268 449.699 -32.0339 446.098C-40.0914 445.283 -48.0591 445.845 -56 445.029" stroke="#D6DE23" stroke-width="3.58333"/>
<path d="M-56.0001 270.656C-28.0007 265.42 -3.64022 271.922 18.9188 289.992C32.3807 300.772 48.6568 308.315 65.1302 314.141C84.6508 321.009 102.559 313.803 114.444 296.044C118.696 289.711 122.217 283.068 125.935 276.454C134.13 261.79 144.071 247.857 159.476 239.779C194.426 221.484 205.241 191.254 206.254 153.848C207.634 103.72 212.788 53.8729 229.799 6.05197C231.291 1.85811 231.798 -2.92693 234.164 -6.5296C245.711 -23.9518 259.059 -25.2748 274.831 -10.8077C281.168 -4.98088 286.856 1.57684 293.222 7.40274C308.147 21.0538 323.581 18.3236 334.001 0.423126C335.916 -2.84185 338.564 -5.93844 339.521 -9.45691C349.744 -47.989 370.5 -81.6232 388.637 -116.525C393.537 -125.954 397.705 -136.199 398.916 -147.317C400.296 -160.068 393.002 -166.288 381.877 -166.963C363.938 -168.061 346.308 -166.315 329.804 -158.548C315.075 -151.624 299.755 -150.751 284.8 -155.958C253.793 -166.766 226.391 -162.939 201.552 -140.421C174.741 -116.103 143.845 -119.087 113.064 -130.738C98.8135 -136.115 84.7045 -143.067 72.345 -151.877C48.9973 -168.511 23.8751 -180.333 -3.92706 -186.75" stroke="#D6DE23" stroke-width="3.58333"/>
<path d="M-55.104 -63.4281C-6.91828 -46.618 14.2726 -10.6914 8.8987 40.6685C4.84143 79.406 7.49257 88.7102 41.9928 105.24C45.1992 106.786 48.5758 108.023 51.8449 109.485C75.8213 120.167 95.4091 135.263 106.976 159.973C113.955 174.872 125.466 186.904 137.652 198.092C146.067 205.823 156.255 207.706 165.654 203.265C176.039 198.373 176.828 187.101 175.505 176.981C173.169 159.214 167.456 142.066 169.736 123.512C171.987 105.24 180.036 89.2166 187.269 73.1087C198.273 48.6799 206.379 23.9139 208.095 -2.96086C210.797 -45.7466 182.118 -81.5882 144.8 -90.4719C115.898 -97.3588 89.8112 -111.161 65.7184 -129.209C39.4044 -148.915 8.45092 -156.983 -24.1416 -158.979" stroke="#D6DE23" stroke-width="3.58333"/>
<path d="M-55.555 611.88C-57.4089 633.017 -53.1904 653.787 -48.0673 673.767C-37.4808 715.1 15.622 733.529 45.8231 723.359C64.0853 717.216 67.632 702.392 69.5487 686.555C70.8384 675.848 70.6146 664.97 71.1251 654.181C72.6387 622.256 83.8432 604.589 120.4 593.712C137.061 588.752 154.369 585.901 170.945 580.69C187.775 575.39 199.877 563.616 209.079 548.541C222.419 526.67 211.218 491.305 176.658 490.714C163.205 490.488 149.612 492.122 137.398 496.716C98.4198 511.453 60.9326 507.17 23.1902 492.348C4.9817 485.191 -13.2268 477.892 -32.9489 474.821C-40.8574 473.581 -48.0405 475.328 -55.5281 475.244" stroke="#D6DE23" stroke-width="3.58333"/>
<path d="M603.014 1366.63C602.197 1351.88 591.55 1345.13 580.508 1338.44C572.17 1333.38 563.27 1329.16 556.453 1321.67C545.045 1309.19 547.722 1296.9 563.523 1289.19C571.635 1285.23 580.283 1284.69 588.93 1283.65C611.605 1280.89 619.717 1267.9 613.07 1247.03C602.338 1213.34 612.366 1192.55 645.322 1178.29C656.505 1173.46 666.954 1167.86 676.306 1159.96C688.277 1149.89 692.136 1136.64 691.629 1121.93C691.009 1103.62 695.319 1088.32 708.192 1073.72C727.43 1051.93 724.303 1026.48 699.854 1009.91C678.531 995.455 663.8 976.13 649.603 955.91C635.97 936.469 620.337 920.501 596 915.121C573.467 910.145 557.608 919.597 543.75 936.218C524.877 958.864 502.287 974.304 470.598 971.654C457.726 970.589 446.459 966.114 435.418 960.206C435.418 960.206 398.208 929.389 392.771 905.875C392.771 905.875 353.844 839.049 332.606 826.616C325.563 822.391 318.944 817.048 311.396 814.184C295.904 808.276 279.932 815.311 269.144 830.778C264.665 837.187 260.497 844.106 257.06 850.774C250.16 864.218 239.005 863.628 228.471 861.318C216.64 858.732 205.261 854.229 193.233 851.616C156.728 843.739 127.772 854.319 105.886 884.268C92.9844 901.937 79.4647 919.23 68.0802 937.847C55.7455 958.04 36.5083 963.751 15.6666 965.496" stroke="#D6DE23" stroke-width="3.58333"/>
<path fill-rule="evenodd" clip-rule="evenodd" d="M417.325 419.089C407.256 449.118 406.891 477.43 425.563 505.15C438.64 524.596 436.868 542.327 424.467 554.233C418.112 560.341 410.21 561.72 401.942 562.705C365.075 567.094 331.272 578.486 304.979 606.349C300.536 611.078 294.855 613.273 289.428 616.121C259.788 631.597 237.262 609.842 236.11 583.779C235.097 561.21 245.586 541.736 254.276 521.867C267.718 491.107 283.044 461.219 289.878 427.673C295.221 401.387 289.203 378.874 275.424 357.232C267.352 344.539 259.085 331.875 257.145 316.424C254.107 292.053 269.068 285.524 286.672 292.419C299.242 297.344 312.431 299.37 326.014 299.623C348.061 300.017 370.164 297.822 392.127 302.269C421.824 308.263 432.763 318.592 438.5 347.382C435.294 371.978 425.086 395.872 417.325 419.089Z" stroke="#D6DE23" stroke-width="3.58333"/>
<path fill-rule="evenodd" clip-rule="evenodd" d="M605.615 991.353C602.511 986.115 592.523 985.22 584.99 989.544C579.064 992.955 573.252 996.187 568.003 1000.74C547.604 1018.53 524.185 1023.75 497.493 1018.13C488.943 1016.33 478.927 1015.69 470.857 1021.28C469.898 1030.15 475.597 1035.82 479.519 1041.48C487.956 1053.63 491.088 1066.52 490.749 1081.06C490.495 1090.86 490.495 1100.7 491.539 1110.63C492.837 1123.07 497.154 1133.33 504.603 1142.98C513.068 1153.93 519.275 1166.11 523.056 1179.5C526.611 1192.07 532.762 1203.52 541.594 1213.07C545.092 1216.84 549.72 1220.71 557 1217.78C564.364 1214.8 565.408 1209.85 565.352 1203.44C565.125 1170.39 579.318 1147.57 611.879 1137.27C630.896 1131.25 637.978 1115.61 638.289 1097.94C638.628 1079.07 651.228 1067.77 658.926 1061.73C666.623 1055.7 669.091 1059.42 661.199 1043.06C653.307 1026.69 619.158 1014.34 605.615 991.353Z" stroke="#D6DE23" stroke-width="3.58333"/>
<path fill-rule="evenodd" clip-rule="evenodd" d="M309.922 555.917C324.096 541.279 341.374 533.398 360.912 529.316C383.498 524.615 383.753 524.53 382.03 502.602C379.575 471.582 386.633 441.913 395.018 412.581C399.535 396.761 403.573 380.885 405.973 364.642C407.13 356.901 404.448 349.414 401.851 342.152C398.01 331.427 388.27 331.934 380.789 334.073C362.945 339.224 345.61 342.996 326.975 338.182C319.324 336.212 316.528 341.617 317.093 349.189C318.307 365.6 318.985 382.039 320.001 398.45C321.046 415.536 316.839 431.553 311.786 447.796C302.525 477.578 289.961 506.458 286.122 537.788C284.822 548.316 281.492 560.558 290.328 570.161C299.165 579.764 304.388 561.633 309.922 555.917Z" stroke="#D6DE23" stroke-width="3.58333"/>
<path d="M-55.1042 -125.003C-25.0281 -100.627 -7.9466 -66.4604 12.3992 -34.7486C19.1424 -24.2257 25.2686 -12.9682 33.6484 -3.88359C60.4781 25.1758 83.6948 28.2789 125.986 12.7332C141.414 7.06318 156.786 -1.57068 165.666 -17.708C171.23 -27.809 171.483 -39.009 164.093 -47.3888C148.777 -64.7391 129.893 -74.7548 106.54 -77.3227C92.8544 -78.8177 78.7222 -81.8363 68.6611 -92.6421C45.7575 -117.216 16.3343 -126.187 -15.7272 -129.235C-29.8128 -130.561 -42.6195 -135.61 -55.0774 -141.958" stroke="#D6DE23" stroke-width="3.58333"/>
<path d="M-56.0001 243.156C-50.8395 242.48 -45.7597 243.382 -40.4286 241.946C-14.9938 235.106 6.10624 243.353 24.5137 261.312C31.1462 267.786 36.4144 275.555 45.4162 279.974C68.0868 291.064 104.58 280.706 115.918 258.581C120.458 249.715 120.628 239.666 117.271 230.546C106.583 201.469 85.884 179.655 64.0032 158.572C48.5126 143.682 29.1717 136.053 10.1898 128.004C-12.2834 118.461 -20.5762 100.587 -21.9045 78.4916C-22.7481 64.502 -21.9044 50.2867 -20.6031 36.2981C-17.9824 7.72771 -26.4727 -13.6933 -56.0001 -22.8125" stroke="#D6DE23" stroke-width="3.58333"/>
<path fill-rule="evenodd" clip-rule="evenodd" d="M628.929 660.624C636.913 644.964 649.761 635.726 667.923 632.019C691.454 627.221 695.418 613.436 680.658 594.515C670.369 581.293 666.489 566.105 666.574 549.596C666.658 534.777 662.975 521.808 648.356 514.482C643.324 511.955 638.713 511.225 632.809 512.909C599.326 522.482 565.027 525.851 530.251 526.02C522.745 526.047 514.423 528.013 507.93 531.662C491.736 540.673 490.556 557.091 505.09 573.351C521.846 592.102 540.316 609.363 556.734 628.4C568.963 642.542 581.109 656.417 596.149 667.754C600.676 671.175 604.133 676.786 611.752 674.516C619.371 672.247 624.937 668.459 628.929 660.624Z" stroke="#D6DE23" stroke-width="3.58333"/>
<path fill-rule="evenodd" clip-rule="evenodd" d="M173.429 1059.47C184.572 1048.56 196.391 1039.33 212.978 1040C222.4 1040.39 231.794 1041.86 241.187 1042.7C247.76 1043.29 254.332 1043.9 260.933 1044.07C274.924 1044.41 279.861 1040.31 277.633 1024.52C276.109 1013.75 275.348 1003.06 274.897 992.234C274.248 976.719 266.942 966.739 249.622 965.811C226.969 964.606 206.349 959.75 187.364 946.261C172.103 935.433 158.394 939.138 148.436 957.339C134.895 982.138 119.549 1005.28 100.367 1026.09C96.9256 1029.82 96.3897 1036.16 94.4999 1041.32C101.467 1075.85 152.385 1080 173.429 1059.47Z" stroke="#D6DE23" stroke-width="3.58333"/>
<path d="M-55.1042 979.661C-37.2988 985.961 -18.8398 990.033 -0.219788 992.065C38.0587 996.226 71.5658 988.234 92.7175 951.623C101.156 937.027 111.424 923.477 120.678 909.329C139.468 880.619 153.533 874.659 186.81 881.21C206.809 885.148 226.725 888.772 247.231 890.204C279.523 888.996 279.917 847.042 299.269 847.042C334.459 847.042 335.359 881.577 359.635 907.056L408.118 980.27C413.392 986.758 418.292 988.798 423.271 992.799" stroke="#D6DE23" stroke-width="3.58333"/>
<path fill-rule="evenodd" clip-rule="evenodd" d="M423.271 991.044C447.786 1010.69 467.794 1060.76 468.273 1087.93C468.724 1113.13 471.232 1137.73 488.815 1158.72C496.114 1167.43 497.072 1180.42 496.17 1192.2C492.93 1234.17 516.656 1251.08 549.936 1259.36C573.832 1265.31 592.29 1254.18 587.612 1226.08C583.046 1198.6 593.247 1178.14 614.804 1162.89C622.526 1157.42 632.416 1155 641.378 1151.37C654.735 1145.95 660.568 1135.31 662.512 1121.75C665.415 1101.54 670.459 1082.91 684.549 1066.37C696.186 1052.7 696.835 1037.09 679.138 1023.45C664.625 1012.26 655.383 997.151 644.534 983.375C637.01 973.824 629.401 964.379 620.046 957.106C596.178 938.567 569.746 937.715 548.246 965.249C533.987 983.519 519.334 1002.74 492.028 998.963C478.53 997.071 435.725 996.954 423.271 991.044Z" stroke="#D6DE23" stroke-width="3.58333"/>
<path d="M-55.9999 412C-31.8971 408.43 -8.44993 411.129 14.5752 418.97C31.871 424.872 49.059 431.505 66.8397 435.609C96.661 442.522 116.019 432.292 116.837 397.918C117.57 367.508 111.843 353.764 79.4479 341.791C71.6621 338.924 63.6158 336.226 55.4618 334.848C37.9415 331.898 23.0974 324.084 8.79199 313.797C-10.3088 300.054 -32.5168 293.982 -55.964 292.521" stroke="#D6DE23" stroke-width="3.58333"/>
<path d="M-55.1042 1097.63C-52.7663 1097.16 -50.4553 1097.18 -47.9831 1096.49C-11.052 1086.04 18.5878 1063.87 46.1944 1038.51C84.4154 1003.41 112.678 960.184 143.329 918.921C152.589 906.453 162.862 901.867 177.02 907.922C215.045 924.187 254.928 926.328 295.346 926.014C300.638 925.961 306.21 924.832 310.826 928.8C310.826 928.8 322.732 936.852 303.79 955.535C294.952 968.003 295.459 981.572 296.19 996.377C297.231 1017.65 303.423 1034.03 322 1045.76C340.407 1057.39 361.771 1060.85 381.276 1069.35C408.549 1081.22 416.149 1095.58 411.026 1124.46C407.986 1141.56 401.034 1156.93 393.745 1172.19C376.153 1208.92 356.029 1244.18 350.991 1286.14C347.669 1313.69 349.977 1339.61 357.296 1365.73" stroke="#D6DE23" stroke-width="3.58333"/>
<path fill-rule="evenodd" clip-rule="evenodd" d="M561.014 194.622C568.523 181.629 573.417 167.483 575.132 152.493C577.748 129.431 568.214 110.926 552.69 94.8388C534.719 76.249 514.864 59.3741 499.312 38.5628C481.594 14.8257 476.729 -13.7759 469.67 -41.5345C466.745 -53.0374 464.804 -64.8214 458.561 -75.3398C449.758 -90.217 443.88 -91.3698 433.278 -78.0115C421.466 -63.1334 416.601 -44.6277 409.373 -27.444C397.673 0.285896 387.605 28.6915 368.566 52.7088C348.851 77.5987 324.244 84.5451 295.417 76.4459C276.489 71.1303 271.174 74.4205 274.549 93.4041C278.149 113.738 277.333 132.862 270.444 152.634C263.131 173.67 275.083 192.851 296.767 200.388C318.675 207.982 341.765 208.966 364.291 209.641C400.824 210.766 433.699 222.016 465.479 238.355C476.195 243.868 488.962 247.13 500.662 249.521C532.188 243.755 546.784 219.231 561.014 194.622Z" stroke="#D6DE23" stroke-width="3.58333"/>
<path fill-rule="evenodd" clip-rule="evenodd" d="M420.264 757.867C432.873 783.803 448.239 807.773 472.726 823.676C483.111 830.416 495.973 833.153 509.089 832.65C516.856 832.336 523.442 830.057 525.722 822.554C527.72 815.985 524.231 809.721 518.855 805.826C509.821 799.257 500.589 792.715 490.71 787.554C474.105 778.813 460.258 766.465 445.875 754.816C439.768 749.88 432.985 746.784 426.062 743.679C419.138 740.574 417.055 751.235 420.264 757.867Z" stroke="#D6DE23" stroke-width="3.58333"/>
<path fill-rule="evenodd" clip-rule="evenodd" d="M362.505 460.195C368.69 439.431 375.074 418.612 377.344 396.861C377.514 395.225 378.365 393.137 378.45 391.19C378.933 379.765 373.315 369.327 365.712 368.734C352.49 367.69 351.582 378.975 350.447 387.015C346.73 413.223 344.261 439.601 341.708 465.978C341.027 473.003 338.218 488.942 348.688 484.287C359.157 479.632 359.923 468.827 362.505 460.195Z" stroke="#D6DE23" stroke-width="3.58333"/>
<path fill-rule="evenodd" clip-rule="evenodd" d="M138.361 147.382C150.373 139.867 147.425 126.855 147.65 116.536C148.043 97.0464 151.354 78.6232 157.838 60.3954C159.521 55.6842 160.84 49.3471 159.016 45.1964C155.228 36.5319 147.117 34.2883 138.388 38.1025C119.978 46.1504 100.81 49.431 80.8262 49.3471C71.4839 49.3186 59.4711 42.056 54.3356 56.3018C50.0128 68.3032 60.0873 74.3324 66.8216 81.4834C84.9793 100.721 106.592 116.508 123.037 137.512C126.461 141.858 131.793 147.718 138.361 147.382Z" stroke="#D6DE23" stroke-width="3.58333"/>
<path fill-rule="evenodd" clip-rule="evenodd" d="M191.894 978.184C185.296 976.235 178.669 976.657 173.679 978.857C160.567 984.641 159.045 1000.08 169.28 1010.88C183.04 1025.45 222.881 1030.3 239.742 1019.3C243.662 1016.73 245.946 1011.34 246.792 1006.65C234.78 984.928 212.138 984.138 191.894 978.184Z" stroke="#D6DE23" stroke-width="3.58333"/>
<path d="M-55.104 872.182C-29.0275 893.714 6.08953 888.769 24.9032 860.881C31.5496 851.028 27.878 840.851 16.5326 835.349C6.59869 830.512 -4.18386 831.223 -14.4304 830.234C-29.5278 828.795 -42.776 824.075 -55.104 815.688" stroke="#D6DE23" stroke-width="3.58333"/>
<path d="M-55.2906 788.812C-11.3664 806.7 33.9227 812.717 80.8099 804.194C87.2118 803.048 95.114 799.977 98.6409 805.993C101.519 810.944 98.9516 817.927 95.1707 824.114C72.6842 861 41.788 887.886 1.78748 904.01C-17.8222 911.915 -37.351 909.865 -56 899.9" stroke="#D6DE23" stroke-width="3.58333"/>
<path d="M-56.0002 1074.58C-41.0824 1068.6 -25.0587 1065.74 -10.6805 1057.92C1.10805 1051.51 11.7007 1043.87 20.1801 1033.72C27.4367 1025.04 23.0306 1014.21 11.8176 1014.44C-11.6606 1014.88 -33.8978 1009.66 -56.0002 1002.92" stroke="#D6DE23" stroke-width="3.58333"/>
<path d="M6.34128 545.146C-4.01405 547.662 -9.95309 554.708 -10.2935 564.715C-10.6608 575.559 -5.73394 584.837 3.52853 591.242C17.8253 601.134 26.837 602.308 34.487 595.459C42.37 588.387 41.2144 579.473 33.3404 563.203C27.8492 551.852 18.0224 548.694 7.74765 545.146" stroke="#D6DE23" stroke-width="3.58333"/>
<path fill-rule="evenodd" clip-rule="evenodd" d="M220.767 449.292C243.236 440.005 249.376 410.734 233.244 388.66C230.145 384.426 226.098 380.813 222.107 377.397C219.036 374.773 214.32 372.938 211.194 374.8C207.146 377.2 203.043 380.672 203.908 387.22C206.114 403.649 208.011 420.105 209.491 436.617C210.105 443.336 214.738 447.965 220.767 449.292Z" stroke="#D6DE23" stroke-width="3.58333"/>
<path fill-rule="evenodd" clip-rule="evenodd" d="M759.332 736.1C754.762 724.422 735.338 690.532 727.237 681.151C721.854 674.923 720.032 668.186 727.153 661.53C731.946 657.063 736.936 656.616 741.113 661.611C755.018 678.238 780.974 717.176 799.981 727.96C811.139 734.277 807.718 747.304 794.57 752.807C791.459 754.094 788.039 754.737 784.787 755.667C773.349 753.335 763.874 747.607 759.332 736.1Z" stroke="#D6DE23" stroke-width="3.58333"/>
<path d="M1007.35 1367.52C1004.17 1339.51 982.952 1328.28 960.858 1318.4C944.9 1311.25 927.309 1308.09 914.334 1294.5C896.405 1275.7 893.872 1251.8 890.72 1228.19C886.864 1199.16 883.402 1170.26 873.805 1142.31C858.916 1099.01 829.955 1067.77 792.043 1043.87C758.213 1022.53 724.607 1001.06 697.672 970.745C688.919 960.918 682.587 949.55 676.957 938.147C648.953 881.595 571.272 883.118 531.756 911.577C517.346 921.96 503.977 934.295 486.668 939.526C458.578 948.027 434.937 938.819 417.768 908.702C417.768 908.702 357.959 786.793 330.518 782.036C307.354 777.109 289.257 786.909 272.792 801.717C265.39 808.381 258.128 815.306 250.22 821.335C233.445 834.171 214.813 832.819 195.364 828.626C158.663 820.69 125.649 827.157 99.7267 856.629C88.7463 869.125 77.0394 881.201 67.6972 894.853C61.3377 904.142 53.4554 911.801 45.9942 919.711C20.4666 946.675 -12.9074 952.417 -55.1041 931.195" stroke="#D6DE23" stroke-width="3.58333"/>
<path fill-rule="evenodd" clip-rule="evenodd" d="M192.357 705.749C185.187 700.311 178.604 706.826 174.514 712.632C166.083 724.612 167.26 766.914 176.783 777.71C187.791 790.228 201.209 792.256 214.878 789.555C228.939 786.764 245.373 773.411 242.973 760.48C240.573 747.549 212.329 720.924 192.357 705.749Z" stroke="#D6DE23" stroke-width="3.58333"/>
<path fill-rule="evenodd" clip-rule="evenodd" d="M200.178 253.317C194.703 246.3 186.46 245.084 179.264 249.158C158.433 260.956 147.313 280.451 141.386 302.803C139.664 309.282 145.563 312.508 152.281 314.205C183.045 321.986 207.375 300.737 207.375 267.351C205.032 262.626 203.339 257.392 200.178 253.317Z" stroke="#D6DE23" stroke-width="3.58333"/>
<path fill-rule="evenodd" clip-rule="evenodd" d="M247.047 361.854C224.861 341.402 193.025 345.69 176.982 371.783C162.144 395.873 161.5 422.333 165.763 449.301C167.614 460.98 173.869 466.819 186.743 466.678C194.4 466.593 202.085 468.54 209.518 474.266C228.955 489.274 241.913 485.662 255.377 463.349C265.222 447.016 271.841 428.06 270.888 408.399C268.784 389.865 260.706 374.434 247.047 361.854Z" stroke="#D6DE23" stroke-width="3.58333"/>
<path fill-rule="evenodd" clip-rule="evenodd" d="M798.008 102.62C788.273 77.8683 792.832 53.7369 800.512 29.3241C804.986 15.1888 809.712 0.997098 810.866 -14.2081C812.357 -33.8339 804.564 -43.9142 785.319 -43.7458C758.253 -43.4635 731.046 -42.4787 705.162 -52.3341C667.629 -66.6378 637.918 -88.3479 628.943 -131.035C623.316 -157.757 606.491 -173.497 578.581 -177.834C562.094 -180.396 547.716 -189.322 535.028 -200.191C530.666 -203.908 525.743 -207.399 520.791 -208.103C512.998 -209.23 509.424 -203.739 508.046 -195.883C504.444 -175.384 508.271 -155.336 511.197 -135.344C517.19 -94.5428 526.306 -54.586 547.548 -18.4315C553.85 -7.70323 562.262 0.0965214 572.701 7.22061C598.951 25.1285 624.723 44.135 640.423 73.0822C662.508 113.854 655.924 154.768 640.423 195.54C631.222 219.644 616.114 240.622 603.902 263.148C601.596 267.4 599.204 271.595 596.869 275.819C586.515 294.685 594.365 313.973 620.812 316.451C632.432 317.549 644.361 317.774 655.953 316.451C711.858 310.031 739.571 341.314 756.199 381.27C765.287 403.15 768.466 427.196 781.295 447.526C784.644 452.82 786.388 459.127 793.732 461.943C804.761 466.167 812.16 462.478 812.02 450.398C811.794 430.237 806.674 410.583 801.806 391.379C786.107 329.319 788.499 269.315 816.324 211.056C820.994 201.257 822.092 189.346 821.895 178.646C817.956 152.037 807.771 127.398 798.008 102.62Z" stroke="#D6DE23" stroke-width="3.58333"/>
<path fill-rule="evenodd" clip-rule="evenodd" d="M101.078 531.465C89.3247 529.946 77.5795 529.777 65.9149 530.48C43.7933 531.773 23.1655 526.094 2.64502 519.094C-1.99757 517.519 -6.63119 515.607 -11.408 514.961C-27.3216 512.824 -41.2047 523.451 -39.7734 538.774C-39.0668 546.338 -39.4335 554.407 -36.4547 561.127C-24.8438 587.192 -19.1724 614.375 -18.3226 642.775C-18.1885 647.499 -16.8377 652.223 -15.5675 656.831C-12.1951 669.09 -5.39672 677.805 8.2627 679.38C17.5121 680.453 31.5919 675.505 37.6121 660.992C41.7448 651.042 45.3945 640.636 47.3893 630.096C52.506 603.128 68.0528 584.937 90.8722 570.63C100.628 564.5 113.557 557.584 115.104 542.936C113.839 534.922 108.78 532.448 101.078 531.465Z" stroke="#D6DE23" stroke-width="3.58333"/>
<path fill-rule="evenodd" clip-rule="evenodd" d="M71.1383 368.812C46.3862 363.057 23.6078 352.253 0.838303 341.562C-3.45004 339.559 -7.87293 339.023 -12.0805 337.951C-18.9526 336.173 -26.1118 338.007 -30.2297 344.721C-34.7154 351.999 -34.7423 359.926 -30.2297 367.204C-22.0029 380.575 -8.38433 387.797 5.09074 393.665C20.8176 400.491 37.5404 405.823 54.3349 409.179C71.3626 412.565 90.0591 403.566 88.0854 382.747C86.8383 372.761 78.5846 370.533 71.1383 368.812Z" stroke="#D6DE23" stroke-width="3.58333"/>
<path fill-rule="evenodd" clip-rule="evenodd" d="M74.1251 215.591C54.1172 200.393 36.3603 183.005 20.7557 163.397C15.5901 156.88 8.77437 152.807 1.07971 155.307C-8.86594 158.537 -13.8522 166.684 -14.6145 177.471C-15.323 187.05 -14.0226 196.713 -8.61487 203.961C8.99854 227.529 32.6116 242.811 61.5876 248.991C73.7305 251.576 81.739 244.497 85.5415 232.277C84.0707 225.113 79.4253 219.607 74.1251 215.591Z" stroke="#D6DE23" stroke-width="3.58333"/>
<path fill-rule="evenodd" clip-rule="evenodd" d="M290.653 726.731C258.729 715.722 227.002 704.534 199.212 684.554C194.712 681.325 189.142 679.268 183.798 677.497C164.222 671.004 146.614 676.567 149.005 704.086C150.777 724.406 151.002 743.679 143.408 763.265C137.108 779.543 143.942 792.976 159.947 800.98C187.512 814.807 225.117 814.333 251.078 792.35C267.055 778.809 285.028 769.508 303.366 760.377C310.68 756.719 318.695 752.623 317.43 742.025C311.214 732.214 300.357 730.076 290.653 726.731Z" stroke="#D6DE23" stroke-width="3.58333"/>
<path fill-rule="evenodd" clip-rule="evenodd" d="M771.994 97.5908C767.213 76.6675 767.804 55.9966 775.987 35.6918C779.643 26.6648 782.624 17.1591 784.368 7.59691C787.039 -7.13924 781.133 -14.5642 766.314 -19.1474C742.466 -26.516 717.467 -26.2063 693.114 -29.8346C657.428 -35.1214 635.521 -54.5267 621.151 -86.4182C612.378 -105.851 607.204 -127.196 593.368 -144.211C581.698 -158.553 567.047 -167.525 548.374 -169.549C536.563 -170.843 530.742 -165.106 528.661 -154.053C523.346 -125.79 533.498 -99.8324 541.849 -74.0717C546.096 -60.9662 550.877 -47.271 559.679 -35.9931C575.511 -15.6605 598.852 -15.1262 621.49 -13.5233C660.719 -10.7389 700.425 -12.145 738.221 1.94408C759.902 10.0161 762.124 13.1092 749.244 32.8233C708.749 94.75 682.203 163.876 646.854 228.419C640.752 239.527 636.393 251.423 632.794 263.573C628.829 276.874 632.175 283.371 645.448 287.364C650.876 288.995 656.64 289.642 662.293 290.233C683.413 292.483 704.362 294.958 722.838 307.022C725.904 309.019 730.206 309.3 734.002 309.947C758.777 314.194 772.669 309.61 776.887 283.145C781.696 253.055 789.767 224.003 797.106 194.615C798.681 188.315 798.147 180.132 798.625 173.551C792.888 147.115 777.984 123.886 771.994 97.5908Z" stroke="#D6DE23" stroke-width="3.58333"/>
<path fill-rule="evenodd" clip-rule="evenodd" d="M756.809 116.049C749.449 101.379 743.326 100.704 732.903 113.21C727.341 119.871 724.953 127.938 721.527 135.667C707.762 166.752 691.722 196.655 674.08 225.773C657.675 252.81 659.95 262.928 695.121 271.641C707.593 274.733 721.246 273.496 734.336 273.299C744.674 273.158 747.876 264.193 751.107 256.548C760.798 233.614 765.939 209.472 769.478 184.935C769.872 182.125 770.377 177.881 770.854 175.071C767.821 155.003 766.107 134.627 756.809 116.049Z" stroke="#D6DE23" stroke-width="3.58333"/>
<path fill-rule="evenodd" clip-rule="evenodd" d="M499.148 136.106C479.567 119.429 464.387 100.135 455.132 75.6679C449.094 59.6934 432.701 57.6679 423.39 71.5337C410.185 91.2199 393.961 107.616 376.693 123.534C362.727 136.387 365.125 144.037 383.578 149.999C408.774 158.127 435.494 158.296 461.142 164.118C471.356 166.452 481.711 166.902 492.179 167.099C502.111 167.267 509.504 163.47 511.958 152.868C510.66 145.05 504.481 140.634 499.148 136.106Z" stroke="#D6DE23" stroke-width="3.58333"/>
<path fill-rule="evenodd" clip-rule="evenodd" d="M735.952 152.771C717.808 168.143 711.18 189.85 704.916 211.444C702.725 218.989 700.45 226.703 703.006 235.403C707.359 250.212 716.179 254.041 727.077 243.681C745.53 226.168 752.103 202.49 751.035 177.574C748.114 168.565 748.985 157.304 735.952 152.771Z" stroke="#D6DE23" stroke-width="3.58333"/>
<path fill-rule="evenodd" clip-rule="evenodd" d="M679.327 7.16992C668.508 5.19947 656.73 5.39652 645.516 8.07006C633.426 10.9407 630.008 15.6411 631.393 27.7988C633.935 49.9484 661.742 96.4976 681.049 88.1841C700.355 79.8706 724.619 44.5897 726.018 24.9846C727.416 5.37949 695.71 10.1534 679.327 7.16992Z" stroke="#D6DE23" stroke-width="3.58333"/>
<path fill-rule="evenodd" clip-rule="evenodd" d="M651.057 24.4554C642.122 32.5173 647.77 41.5842 652.433 49.339C661.283 63.9847 678.983 70.122 692.862 52.0725C696.149 47.7765 700.111 41.6677 700.083 35.4745C691.429 19.1278 664.234 12.5999 651.057 24.4554Z" stroke="#D6DE23" stroke-width="3.58333"/>
<path fill-rule="evenodd" clip-rule="evenodd" d="M635.659 388.645C620.624 395.127 605.9 402.429 590.612 408.259C576.618 413.609 561.781 414.543 547.14 411.118C536.855 408.712 526.598 408.259 516.201 408.458C502.206 408.712 493.27 417.288 492.315 431.071C491.555 441.884 497.457 448.053 511.985 450.827C535.871 455.384 559.448 451.874 582.126 444.855C603.23 438.317 624.194 431.468 645.381 425.128C658.364 421.251 673.426 416.723 675 398.523C668.143 383.154 655.78 379.957 635.659 388.645Z" stroke="#D6DE23" stroke-width="3.58333"/>
<path fill-rule="evenodd" clip-rule="evenodd" d="M645.556 552.213C641.337 539.82 633.264 534.116 620.354 535.493C602.803 537.375 585.195 539.567 568.319 545.186C545.226 552.883 542.245 562.299 556.225 581.265C569.444 599.194 587.304 613.769 603.59 629.338C608.906 634.426 616.641 632.879 623.138 632.065C634.671 630.607 644.797 625.072 654.106 618.214C660.969 613.152 659.647 604.193 659.703 597.137C655.007 582.159 650.619 567.074 645.556 552.213Z" stroke="#D6DE23" stroke-width="3.58333"/>
<path fill-rule="evenodd" clip-rule="evenodd" d="M628.621 568.635C623.912 560.002 610.378 556.275 603.527 560.056C595.21 564.658 590.924 578.722 595.097 588.077C597.888 594.355 602.709 598.895 607.559 603.693C613.564 609.632 621.036 610.81 627.323 608.625C634.456 606.154 635.076 596.656 634.541 589.486C632.652 582.476 632.003 574.824 628.621 568.635Z" stroke="#D6DE23" stroke-width="3.58333"/>
<path fill-rule="evenodd" clip-rule="evenodd" d="M605.277 1040.78C595.378 1024.86 581.571 1020.41 567.172 1031.29C555.192 1040.36 542.622 1046.5 527.745 1049.7C510.591 1053.38 505.838 1062.05 507.947 1078.84C509.1 1088.15 510.253 1097.53 510.703 1106.9C511.378 1120.9 519.168 1130.98 529.236 1138.98C540.569 1147.99 552.999 1141.96 562.532 1135.89C575.158 1127.86 586.239 1117.51 600.778 1112.43C607.33 1110.12 608.117 1104.52 607.865 1098.45C607.246 1084.79 607.949 1069.82 610.62 1056.38C613.292 1042.94 608.456 1045.89 605.277 1040.78Z" stroke="#D6DE23" stroke-width="3.58333"/>
<path fill-rule="evenodd" clip-rule="evenodd" d="M511.004 98.7941C492.327 79.1087 480.129 56.2686 469.171 32.1898C464.776 22.5299 459.198 13.6588 450.859 6.84367C443.423 0.760793 435.76 0.732113 428.352 6.84367C420.576 13.2644 415.844 21.882 411.393 30.7253C402.942 47.5381 395.223 64.7176 381.955 78.7144C370.095 91.1902 356.179 99.5263 339.643 104.117C332.826 106.031 326.374 109.411 319.895 112.453C307.444 118.282 301.218 127.829 301.443 141.995C301.669 156.471 312.149 161.286 322.74 165.849C343.84 174.945 366.433 177.677 388.857 181.733C418.182 187.055 446.916 195.954 476.326 200.629C494.073 203.445 513.201 203.08 528.272 189.787C539.09 180.268 545.879 167.144 543.851 151.88C539.512 130.139 525.229 113.777 511.004 98.7941Z" stroke="#D6DE23" stroke-width="3.58333"/>
<path d="M417.74 1042.3C392.75 986.294 359.581 968.327 341.162 966.436C337.298 966.041 333.293 965.961 329.682 967.395C323.195 970.013 319.5 977.311 319.359 984.322C319.02 1002.19 337.354 1014.75 354.644 1019.23C371.935 1023.71 402.565 1032.78 417.74 1042.27C438.471 1055.27 446.171 1082.59 443.294 1106.87C440.417 1131.16 429.051 1153.44 419.065 1175.75C396.784 1225.5 375.601 1251.84 370.157 1306.05C369.142 1316.27 373.486 1353.21 376.39 1363.04" stroke="#D6DE23" stroke-width="3.58333"/>
</g>
<defs>
<clipPath id="clip0_195_2652">
<rect width="768" height="1024" fill="white"/>
</clipPath>
</defs>
</svg>
