<svg width="980" height="1080" viewBox="0 0 980 1080" fill="none" xmlns="http://www.w3.org/2000/svg">
<g clip-path="url(#clip0_234_2333)">
<g clip-path="url(#clip1_234_2333)">
<mask id="mask0_234_2333" style="mask-type:luminance" maskUnits="userSpaceOnUse" x="-50" y="-420" width="1080" height="1920">
<path d="M1030 1500L1030 -420L-50 -420L-50.0001 1500L1030 1500Z" fill="white"/>
</mask>
<g mask="url(#mask0_234_2333)">
<path d="M-132.57 816.5C-103.13 833.37 -70.13 835.76 -37.55 840.22C-19.51 842.71 -1.59996 841.95 15.84 838.28C66.207 827.69 76.545 805.09 70.763 759.97C69.349 748.88 66.333 738.01 64.636 726.95C60.205 697.82 89.239 684.24 110.041 689.55C125.249 693.42 139.012 701.31 152.681 709.44C178.259 724.68 201.92 743.35 232.588 749.32C263.037 755.23 286.352 746.08 304.922 722.27C306.525 720.19 308.505 718.27 309.573 715.95C335.968 658.73 389.511 661.4 433.66 670.92C463.417 677.36 487.235 695.08 502.915 722.23C511.556 737.22 522.239 750.83 534.431 762.99C566.168 794.73 603.718 804.84 647.52 793.25C660.561 789.79 674.041 784.73 688.401 791.14C699.901 796.3 708.668 804.4 716.43 813.48C733.303 833.28 751.151 852.23 774.844 863.35C810.225 880.01 846.11 875.61 879.794 858.51C903.047 846.7 908.703 817.76 895.6 789.82C883.974 765 866.126 744.14 849.849 722.42C835.615 703.44 824.491 682.99 817.61 660.8C811.985 642.74 802.558 626.65 786.973 619.23C750.209 601.73 732.141 571.721 719.32 535.428C711.716 513.872 698.833 494.893 677.372 483.298C660.812 474.343 643.938 472.52 625.43 475.317C595.988 479.748 568.085 490.274 539.019 495.773C523.025 498.789 506.905 500.392 490.283 496.276C451.728 486.692 449.874 472.583 454.084 442.575C458.295 412.692 470.958 385.292 478.06 356.258C485.664 325.15 485.821 295.99 460.275 273.177C442.647 257.434 420.934 248.73 397.744 242.792C353.816 231.574 308.599 229.814 264.136 222.587C246.885 219.79 229.917 216.271 213.735 208.73C190.859 198.109 184.324 184.66 188.471 155.029C191.959 130.111 201.292 106.638 203.46 81.281C205.094 62.144 200.914 43.511 202.894 24.658C203.397 19.944 202.706 15.388 204.088 10.423C208.267 -4.72203 219.108 -11.447 232.651 -5.06802C238.778 -2.17702 244.529 1.75098 249.933 5.86698C287.2 34.147 303.634 16.111 322.268 -9.90704C335.685 -28.666 343.823 -50.159 351.679 -71.338C361.64 -98.141 376.22 -122.493 388.349 -148.102C398.53 -169.627 407.956 -190.837 405.757 -215.723C403.746 -238.505 384.892 -255.253 364.719 -259.872C336.125 -266.408 307.939 -261.129 279.879 -257.735C256.846 -254.97 233.971 -252.11 210.718 -251.545C188.314 -251.011 167.764 -243.312 149.382 -229.895C116.828 -206.171 82.6411 -199.572 45.5621 -220.091C40.8801 -222.668 34.4391 -224.522 30.3541 -227.193C1.35006 -246.235 -30.54 -258.615 -62.66 -270.744C-67.02 -272.378 -71.0499 -274.86 -75.2599 -276.966" stroke="#D6DE23" stroke-width="4"/>
</g>
<mask id="mask1_234_2333" style="mask-type:luminance" maskUnits="userSpaceOnUse" x="-50" y="-420" width="1080" height="1920">
<path d="M1030 1500L1030 -420L-50 -420L-50.0001 1500L1030 1500Z" fill="white"/>
</mask>
<g mask="url(#mask1_234_2333)">
<path d="M557.935 -419.969C551.839 -402.718 540.59 -388.672 529.718 -374.375C525.162 -368.373 521.108 -361.963 517.118 -355.553C499.867 -328.027 508.162 -292.142 531.446 -275.74C542.067 -268.261 554.385 -262.385 567.393 -259.872C611.888 -251.293 643.058 -228.386 655.627 -182.824C660.561 -164.945 670.427 -149.611 686.673 -138.581C721.112 -115.203 759.07 -108.542 799.919 -110.113C825.874 -111.118 851.232 -115.8 876.904 -118.251C909.143 -121.33 924.446 -112.784 936.449 -83.686C944.839 -63.388 958.162 -47.928 977.55 -38.375C994.36 -30.111 1011.64 -22.381 1029.4 -16.443C1061.01 -5.853 1079.04 14.508 1081.21 48.225C1081.59 53.975 1082.06 59.882 1082.31 65.538C1083.82 100.009 1080.99 134.29 1071.5 167.567C1066.63 184.66 1055.76 189.688 1038.79 184.786C1030.21 182.335 1022.01 178.596 1013.62 175.485C996.277 169.044 979.183 161.439 960.204 161.376C907.383 161.188 856.071 196.664 842.245 258.723C833.069 299.98 838.348 340.892 845.921 381.207C857.328 441.947 876.872 500.549 897.077 558.932C903.518 577.597 908.389 597.05 909.834 616.97C910.368 624.32 910.463 632.84 901.947 635.51C894.909 637.71 889.535 633.15 886.268 626.43C884.634 623.07 881.711 620.52 879.669 617.19C864.492 592.4 844.633 571.941 820.438 555.57C800.359 541.996 788.638 523.205 782.134 499.261C774.121 469.756 764.946 440.438 751.403 412.63C724.002 356.384 686.107 322.227 620.686 343.06C604.503 348.214 586.498 349.094 568.965 345.229C549.451 340.924 534.149 327.475 545.492 301.175C549.2 292.596 553.505 284.206 558.03 276.037C577.889 240.152 601.361 206.153 615.972 167.535C624.142 145.917 630.175 124.141 627.504 99.977C623.011 59.348 599.884 31.445 568.807 9.13498C534.117 -15.751 508.697 -46.514 498.296 -88.526C488.021 -129.972 479.945 -171.858 474.98 -214.246C471.932 -240.264 467.345 -266.753 474.949 -292.708C479.505 -308.262 486.512 -323.062 491.885 -338.396C493.802 -343.864 498.673 -349.614 492.074 -355.71C485.507 -361.774 479.254 -358.852 473.189 -355.584C445.883 -340.816 418.074 -341.947 389.889 -352.505C381.562 -355.616 374.523 -354.359 367.799 -347.886C344.075 -325.042 349.636 -288.717 380.587 -277.468C416.063 -264.585 436.771 -241.364 446.951 -204.945C457.729 -166.422 466.59 -127.552 474.352 -88.463C482.113 -49.436 494.274 -14.997 529.184 9.57498C547.535 22.49 564.346 38.861 578.643 57.368C602.147 87.817 607.834 120.59 595.579 156.506C586.027 184.503 569.813 208.793 551.745 231.982C535.343 253.035 518.406 273.554 509.042 299.415C492.828 344.255 524.47 380.673 557.935 383.344C577.072 384.884 595.359 383.03 612.862 377.688C674.072 358.96 723.374 387.46 735.566 448.734C738.991 466.048 743.83 483.173 746.344 500.612C751.686 537.911 769.816 566.505 803.25 583.57C831.687 598.12 848.435 620.96 859.873 649.74C872.222 680.76 887.053 710.8 907.006 737.63C923.314 759.53 933.872 783.7 937.8 810.12C941.194 833.03 936.198 852.73 913.511 867.31C894.406 879.6 874.547 889.06 853.274 894.49C815.284 904.17 778.206 902.22 744.898 877.71C732.738 868.76 719.666 861.12 707.286 852.45C677.435 831.49 644.064 824.89 608.274 827.34C566.859 830.17 529.435 822.06 501.406 788.13C487.455 771.22 473.001 754.72 459.081 737.79C446.574 722.61 433.22 708.19 413.424 703.44C373.58 693.86 326.667 728.99 322.331 770.81C322.331 770.81 308.787 831.24 394.602 937.35C401.421 944.67 407.736 952.53 415.121 959.22C430.203 972.92 447.266 978.86 468.507 975.44C494.556 971.22 517.62 959.16 542.287 951.52C599.287 933.83 654.339 933.02 704.018 972.01C721.269 985.55 736.854 1001.2 754.514 1014.12C791.718 1041.3 834.735 1053.43 880.077 1054.62C904.838 1055.28 928.876 1050.16 949.615 1032.09C970.699 1013.68 983.614 989.58 1000.93 968.68C1017.8 948.29 1042.12 939.9 1067.01 948.51C1082.31 953.82 1095.54 963.09 1106.22 975.18C1131.05 1003.21 1161.97 1015.18 1199.01 1012.86C1210.99 1012.11 1221.98 1015.03 1232.07 1022.13C1255.54 1038.66 1279.49 1054.46 1305.85 1066.21" stroke="#D6DE23" stroke-width="4"/>
</g>
<mask id="mask2_234_2333" style="mask-type:luminance" maskUnits="userSpaceOnUse" x="-50" y="-420" width="1080" height="1920">
<path d="M1030 1500L1030 -420L-50 -420L-50.0001 1500L1030 1500Z" fill="white"/>
</mask>
<g mask="url(#mask2_234_2333)">
<path d="M1073.26 -419.969C1079.67 -378.554 1063.46 -347.414 1031.09 -322.245C1017.33 -311.53 1002.59 -302.575 988.296 -292.928C956.936 -271.812 935.726 -244.098 930.479 -206.265C921.932 -144.426 950.086 -97.449 993.166 -57.072C1012.15 -39.287 1037.44 -35.422 1060.72 -27.283C1081.4 -20.056 1094.09 -7.04701 1098.65 15.168C1106.66 54.226 1107.58 93.63 1105.78 133.033C1104.97 150.881 1103.3 169.106 1097.02 186.546C1088.19 211.055 1076.44 217.56 1049.66 215.077C1023.55 212.658 1000.68 200.466 975.884 194.15C962.875 190.819 950.243 185.289 936.575 189.688C909.614 198.329 889.787 214.7 878.255 241.409C861.412 280.373 863.958 320.593 869.205 360.877C876.872 419.762 900.062 474.155 921.272 528.861C936.952 569.301 948.012 609.08 940.22 653.23C934.595 685.12 936.889 716.99 955.208 745.99C961.524 755.98 966.174 767.48 969.38 778.89C982.546 825.58 970.636 864.04 937.894 888.43C917.281 903.76 893.18 913.12 867.571 919C826.282 928.49 785.81 930.97 746.595 912.21C726.768 902.72 707.788 891.38 688.369 880.98C664.834 868.38 641.236 859.42 612.893 863.19C556.616 870.67 508.571 853.27 469.701 810.53C456.315 795.83 442.929 780.9 427.878 767.51C413.424 754.6 398.781 745.83 378.859 749.01C378.859 749.01 317.366 758.4 394.57 871.55C401.232 886.16 411.444 898.29 421.091 910.96C437.965 933.11 461.311 935.03 485.664 932.48C497.919 931.22 510.016 927.17 521.799 923.24C555.641 911.99 590.049 907.56 625.525 912.34C670.773 918.44 713.067 930.78 748.355 962.33C764.506 976.76 782.856 989.26 801.647 1000.07C842.716 1023.67 884.948 1031.43 928.876 1005.32C950.086 992.72 960.707 971.7 973.967 953C989.49 931.1 1008.22 917.49 1035.56 915.26C1053.56 913.78 1069.52 919.69 1085.83 925C1113.73 934.08 1127.53 926.73 1136.17 898.26C1139.59 886.95 1140.63 875.42 1140.88 863.7C1141.64 830.64 1137.24 797.36 1146.95 764.69C1161.87 714.54 1175.26 663.91 1217.65 627.87C1226.19 620.58 1229.31 609.68 1228.8 598.21C1228.3 586.68 1228.99 574.958 1227.01 563.677C1219.38 520.188 1264.31 466.205 1305.79 464.665" stroke="#D6DE23" stroke-width="4"/>
</g>
<mask id="mask3_234_2333" style="mask-type:luminance" maskUnits="userSpaceOnUse" x="-50" y="-420" width="1080" height="1920">
<path d="M1030 1500L1030 -420L-50 -420L-50.0001 1500L1030 1500Z" fill="white"/>
</mask>
<g mask="url(#mask3_234_2333)">
<path d="M-133.36 770.94C-125.44 785.27 -110.8 790.42 -97.13 795.83C-68 807.36 -37.9899 815.06 -6.09994 810.25C27.1201 805.22 41.823 784.01 36.544 750.48C34.187 735.46 28.85 720.25 31.831 705.01C38.681 670.04 64.73 653.95 100.74 651.69C123.773 650.25 144.04 658.95 163.648 670.26C184.135 682.08 203.428 696.22 226.398 703.44C245.377 709.41 261.717 707.91 276.988 692.7C291.694 678.05 301.466 658.6 320.665 648.36C378.074 617.72 457.478 611.44 506.528 670.01C527.393 694.93 545.649 722.61 572.075 742.63C583.639 751.39 596.082 756.86 611.322 757.14C627.599 757.43 639.068 751.46 647.52 738.01C651.291 732.01 655.91 726.51 659.995 720.66C671.716 703.95 684.724 702.56 699.336 715.89C714.89 730.09 720.577 749.92 728.716 767.98C741.002 795.26 756.87 819.33 784.333 831.74C807.052 842.02 829.173 841.14 843.879 826.02C856.353 813.2 859.118 791.14 848.372 777.35C842.936 770.4 836.871 763.15 829.487 758.65C802.621 742.28 791.686 717.21 787.13 687.7C782.888 660.02 766.611 640.32 741.473 629.98C719.069 620.77 705.369 607.64 703.546 582.44C702.761 571.784 698.142 561.289 694.434 551.014C680.2 511.547 659.775 504.069 623.765 508.154C584.99 512.584 548.823 527.133 510.707 533.826C494.022 536.748 477.683 541.21 460.4 538.508C431.083 533.92 413.989 512.553 416.346 483.424C418.891 452.127 430.078 423.25 439.662 393.776C445.538 375.708 447.329 356.729 446.543 337.31C445.129 301.646 424.516 282.918 391.177 276.382C361.64 270.601 331.537 267.71 301.686 263.468C281.953 260.671 263.853 252.344 245.063 246.374C235.416 243.326 225.235 240.404 215.274 240.247C191.645 239.901 182.25 247.788 181.055 276.068C180.993 277.545 182.218 280.184 182.25 282.353C183.098 323.17 177.253 320.814 147.716 332.597C137.881 336.525 127.638 339.541 117.928 343.72C93.827 354.121 83.9291 371.121 88.3281 397.013C90.4651 409.613 92.0991 422.182 90.9991 434.751C87.9821 469.913 75.7281 487.635 50.1811 493.888C36.8271 497.156 21.87 495.962 7.92003 492.788C-30.35 484.084 -67.2799 469.818 -106.74 465.796C-115.73 464.885 -124.62 465.513 -133.48 464.602" stroke="#D6DE23" stroke-width="4"/>
</g>
<mask id="mask4_234_2333" style="mask-type:luminance" maskUnits="userSpaceOnUse" x="-50" y="-420" width="1080" height="1920">
<path d="M1030 1500L1030 -420L-50 -420L-50.0001 1500L1030 1500Z" fill="white"/>
</mask>
<g mask="url(#mask4_234_2333)">
<path d="M-133.36 265.039C-102.12 259.194 -74.9399 266.453 -49.7699 286.626C-34.7499 298.661 -16.5898 307.082 1.79017 313.586C23.5702 321.253 43.5511 313.209 56.8121 293.382C61.5561 286.312 65.4841 278.896 69.6321 271.512C78.7761 255.141 89.8682 239.587 107.056 230.568C146.051 210.144 158.117 176.396 159.248 134.636C160.788 78.673 166.538 23.024 185.518 -30.363C187.183 -35.045 187.748 -40.387 190.388 -44.409C203.271 -63.859 218.165 -65.336 235.762 -49.185C242.832 -42.68 249.179 -35.359 256.281 -28.855C272.934 -13.615 290.154 -16.663 301.78 -36.647C303.917 -40.292 306.871 -43.749 307.939 -47.677C319.345 -90.694 342.504 -128.243 362.74 -167.207C368.207 -177.734 372.858 -189.171 374.209 -201.583C375.748 -215.818 367.61 -222.762 355.198 -223.516C335.182 -224.742 315.512 -222.793 297.098 -214.121C280.664 -206.391 263.571 -205.417 246.885 -211.23C212.289 -223.296 181.715 -219.023 154.001 -193.885C124.087 -166.736 89.6161 -170.067 55.2721 -183.075C39.3721 -189.077 23.6302 -196.838 9.84018 -206.674C-16.2098 -225.244 -44.2399 -238.442 -75.2599 -245.606" stroke="#D6DE23" stroke-width="4"/>
</g>
<mask id="mask5_234_2333" style="mask-type:luminance" maskUnits="userSpaceOnUse" x="-50" y="-420" width="1080" height="1920">
<path d="M1030 1500L1030 -420L-50 -420L-50.0001 1500L1030 1500Z" fill="white"/>
</mask>
<g mask="url(#mask5_234_2333)">
<path d="M1305.79 1323.97C1235.59 1273.79 1204.8 1205.45 1211.43 1119.73C1212.15 1110.36 1212.05 1100.84 1211.39 1091.48C1210.51 1079.13 1202.12 1073.47 1191.19 1069.23C1179.37 1064.67 1166.96 1064.36 1154.9 1061.85C1135.57 1057.82 1117.69 1050.94 1101.51 1039.66C1099 1037.93 1096.26 1036.52 1093.69 1034.92C1067.92 1018.92 1051.17 1019.21 1029.49 1039.85C1001.74 1066.28 973.747 1092.2 943.048 1115.3C927.085 1127.33 923.283 1148.07 933.715 1168.31C956.434 1212.39 963.629 1260.28 971.265 1308.26C975.853 1337.17 982.514 1364.66 1010.26 1382.39C1047.4 1406.11 1070.97 1396.93 1095.1 1375.63C1109.18 1363.22 1121.34 1348.26 1139.34 1341.44C1174.66 1328.03 1209.23 1324.57 1241.53 1350.56C1255.64 1361.9 1261.92 1377.33 1268.02 1393.16C1270.56 1399.79 1272.42 1406.71 1274.36 1413.56C1279.3 1431.12 1289.04 1444.79 1305.82 1452.83" stroke="#D6DE23" stroke-width="4"/>
</g>
<mask id="mask6_234_2333" style="mask-type:luminance" maskUnits="userSpaceOnUse" x="-50" y="-420" width="1080" height="1920">
<path d="M1030 1500L1030 -420L-50 -420L-50.0001 1500L1030 1500Z" fill="white"/>
</mask>
<g mask="url(#mask6_234_2333)">
<path d="M-133.36 -108.887C-79.5603 -90.097 -55.9003 -49.939 -61.9003 7.46998C-66.4303 50.77 -63.4702 61.17 -24.9502 79.647C-21.3702 81.375 -17.6002 82.758 -13.9502 84.392C12.8198 96.332 34.6897 113.206 47.6047 140.826C55.3967 157.48 68.2487 170.929 81.8547 183.435C91.2497 192.076 102.625 194.181 113.12 189.217C124.715 183.749 125.595 171.149 124.118 159.837C121.51 139.978 115.131 120.81 117.677 100.071C120.19 79.647 129.177 61.736 137.253 43.731C149.539 16.425 158.589 -11.258 160.505 -41.298C163.522 -89.123 131.502 -129.186 89.8357 -139.116C57.5657 -146.814 28.4398 -162.242 1.53978 -182.416C-27.8402 -204.443 -62.4003 -213.461 -98.7903 -215.692" stroke="#D6DE23" stroke-width="4"/>
</g>
<mask id="mask7_234_2333" style="mask-type:luminance" maskUnits="userSpaceOnUse" x="-50" y="-420" width="1080" height="1920">
<path d="M1030 1500L1030 -420L-50 -420L-50.0001 1500L1030 1500Z" fill="white"/>
</mask>
<g mask="url(#mask7_234_2333)">
<path d="M1305.79 265.039C1281.72 257.686 1257.37 251.433 1231.95 254.167C1198.42 257.78 1175.23 241.566 1156.56 216.303C1139 192.547 1131.55 166.216 1130.8 136.207C1129.66 93.253 1135.38 50.236 1128.41 7.34399C1122.25 -30.583 1100.6 -56.129 1062.2 -61.314C1005.61 -68.949 963.975 -132.454 963.661 -178.016C963.346 -222.071 980.566 -259.212 1020.06 -281.333C1057.8 -302.449 1077.69 -336.919 1096.92 -372.804C1105.34 -388.483 1100.69 -404.163 1098.4 -419.969" stroke="#D6DE23" stroke-width="4"/>
</g>
<mask id="mask8_234_2333" style="mask-type:luminance" maskUnits="userSpaceOnUse" x="-50" y="-420" width="1080" height="1920">
<path d="M1030 1500L1030 -420L-50 -420L-50.0001 1500L1030 1500Z" fill="white"/>
</mask>
<g mask="url(#mask8_234_2333)">
<path d="M-133.36 651.53C-135.43 675.1 -130.72 698.26 -125 720.54C-113.18 766.63 -53.8903 787.18 -20.1703 775.84C0.219745 768.99 4.1798 752.46 6.3198 734.8C7.7598 722.86 7.50981 710.73 8.07981 698.7C9.76981 663.1 22.2798 643.4 63.0958 631.27C81.6978 625.74 101.023 622.56 119.53 616.75C138.321 610.84 151.833 597.71 162.108 580.9C177.002 556.512 164.496 517.077 125.909 516.417C110.889 516.166 95.7118 517.988 82.0748 523.11C38.5548 539.544 -3.30014 534.768 -45.4401 518.24C-65.7701 510.259 -86.1002 502.12 -108.12 498.695C-116.95 497.313 -124.97 499.261 -133.33 499.167" stroke="#D6DE23" stroke-width="4"/>
</g>
<mask id="mask9_234_2333" style="mask-type:luminance" maskUnits="userSpaceOnUse" x="-50" y="-420" width="1080" height="1920">
<path d="M1030 1500L1030 -420L-50 -420L-50.0001 1500L1030 1500Z" fill="white"/>
</mask>
<g mask="url(#mask9_234_2333)">
<path d="M601.927 1499.94C601.015 1483.47 589.138 1475.93 576.82 1468.45C567.519 1462.8 557.59 1458.08 549.985 1449.72C537.259 1435.77 540.245 1422.04 557.872 1413.43C566.922 1409 576.569 1408.4 586.215 1407.24C611.51 1404.16 620.56 1389.64 613.144 1366.33C601.172 1328.69 612.359 1305.46 649.123 1289.53C661.598 1284.13 673.255 1277.88 683.688 1269.05C697.042 1257.8 701.347 1243 700.781 1226.56C700.09 1206.11 704.898 1189.01 719.258 1172.7C740.719 1148.35 737.231 1119.92 709.957 1101.41C686.17 1085.26 669.736 1063.67 653.899 1041.08C638.691 1019.36 621.251 1001.52 594.102 995.51C568.965 989.95 551.274 1000.51 535.814 1019.08C514.761 1044.38 489.56 1061.63 454.21 1058.67C439.85 1057.48 427.281 1052.48 414.964 1045.88C414.964 1045.88 373.455 1011.45 367.39 985.18C367.39 985.18 323.964 910.52 300.272 896.63C292.416 891.91 285.032 885.94 276.611 882.74C259.329 876.14 241.512 884 229.477 901.28C224.481 908.44 219.831 916.17 215.997 923.62C208.299 938.64 195.856 937.98 184.104 935.4C170.906 932.51 158.212 927.48 144.794 924.56C104.071 915.76 71.7688 927.58 47.3538 961.04C32.9618 980.78 17.8799 1000.1 5.17986 1020.9C-8.58014 1043.46 -30.0402 1049.84 -53.2902 1051.79" stroke="#D6DE23" stroke-width="4"/>
</g>
<mask id="mask10_234_2333" style="mask-type:luminance" maskUnits="userSpaceOnUse" x="-50" y="-420" width="1080" height="1920">
<path d="M1030 1500L1030 -420L-50 -420L-50.0001 1500L1030 1500Z" fill="white"/>
</mask>
<g mask="url(#mask10_234_2333)">
<path fill-rule="evenodd" clip-rule="evenodd" d="M394.445 434.688C383.195 468.216 382.787 499.827 403.651 530.778C418.263 552.49 416.283 572.287 402.426 585.58C395.325 592.4 386.495 593.94 377.257 595.04C336.062 599.94 298.292 612.66 268.912 643.77C263.948 649.05 257.6 651.5 251.536 654.68C218.417 671.96 193.247 647.67 191.959 618.57C190.828 593.37 202.548 571.627 212.258 549.443C227.278 515.098 244.403 481.727 252.039 444.272C258.009 414.923 251.284 389.786 235.888 365.622C226.869 351.45 217.631 337.31 215.463 320.059C212.069 292.848 228.786 285.558 248.456 293.256C262.502 298.755 277.239 301.017 292.416 301.3C317.051 301.74 341.749 299.289 366.29 304.254C399.472 310.947 411.696 322.479 418.106 354.624C414.524 382.087 403.117 408.765 394.445 434.688Z" stroke="#D6DE23" stroke-width="4"/>
</g>
<mask id="mask11_234_2333" style="mask-type:luminance" maskUnits="userSpaceOnUse" x="-50" y="-420" width="1080" height="1920">
<path d="M1030 1500L1030 -420L-50 -420L-50.0001 1500L1030 1500Z" fill="white"/>
</mask>
<g mask="url(#mask11_234_2333)">
<path fill-rule="evenodd" clip-rule="evenodd" d="M604.44 1080.83C600.984 1074.98 589.86 1073.98 581.471 1078.81C574.872 1082.62 568.399 1086.23 562.554 1091.32C539.836 1111.18 513.756 1117.02 484.03 1110.74C474.509 1108.73 463.354 1108.01 454.367 1114.26C453.299 1124.16 459.646 1130.5 464.014 1136.82C473.409 1150.39 476.897 1164.79 476.52 1181.03C476.237 1191.97 476.237 1202.96 477.4 1214.06C478.845 1227.95 483.653 1239.41 491.948 1250.19C501.375 1262.42 508.288 1276.02 512.499 1290.98C516.458 1305.02 523.308 1317.81 533.143 1328.47C537.039 1332.68 542.193 1337.01 550.3 1333.74C558.501 1330.41 559.664 1324.88 559.601 1317.72C559.349 1280.8 575.155 1255.31 611.416 1243.81C632.595 1237.09 640.482 1219.62 640.828 1199.88C641.205 1178.8 655.237 1166.18 663.81 1159.44C672.382 1152.7 675.131 1156.86 666.342 1138.58C657.553 1120.3 619.523 1106.5 604.44 1080.83Z" stroke="#D6DE23" stroke-width="4"/>
</g>
<mask id="mask12_234_2333" style="mask-type:luminance" maskUnits="userSpaceOnUse" x="-50" y="-420" width="1080" height="1920">
<path d="M1030 1500L1030 -420L-50 -420L-50.0001 1500L1030 1500Z" fill="white"/>
</mask>
<g mask="url(#mask12_234_2333)">
<path d="M1107.83 348.308C1098.18 350.005 1090.23 354.467 1084.23 362.417C1068.99 382.715 1048.56 387.9 1024.53 382.935C1018.37 381.678 1012.05 382.715 1005.64 381.647C989.836 379.039 979.875 390.068 982.2 406.408C984.148 419.92 990.15 432.08 996.277 444.115C1007.78 466.645 1019.59 489.017 1030.75 511.704C1039.95 530.463 1044.26 550.668 1046.58 571.344C1048.38 587.15 1051.23 602.86 1059.22 616.84C1068.45 633.03 1078.73 634.35 1090.39 619.92C1112.26 592.87 1128.85 562.514 1142.39 530.495C1154.74 501.303 1166.4 471.704 1165.77 439.37C1165.14 406.596 1147.86 380.61 1128.13 356.195C1123.63 350.633 1116.09 349.879 1109.4 348.245" stroke="#D6DE23" stroke-width="4"/>
</g>
<mask id="mask13_234_2333" style="mask-type:luminance" maskUnits="userSpaceOnUse" x="-50" y="-420" width="1080" height="1920">
<path d="M1030 1500L1030 -420L-50 -420L-50.0001 1500L1030 1500Z" fill="white"/>
</mask>
<g mask="url(#mask13_234_2333)">
<path d="M1305.79 1367.96C1284.39 1356.59 1263.78 1343.77 1247.81 1325.42C1211.36 1283.5 1185.75 1236.43 1183.37 1179.43C1182.64 1162.02 1182.71 1144.68 1178.59 1127.58C1175.54 1114.95 1170.83 1105.24 1156.66 1100.53C1133.09 1092.67 1110.43 1082.27 1088.97 1069.48C1070.03 1058.17 1050.73 1062.41 1036.03 1074.76C1016.76 1090.91 998.822 1108.89 986.411 1132.08C973.999 1155.23 968.877 1177.67 977.33 1203.06C988.233 1235.83 992.538 1270.21 1001.21 1303.52C1005.83 1321.3 1010.64 1339.53 1027.7 1350.74C1047.87 1364 1070.03 1361.05 1095.29 1341.29C1117.69 1323.75 1141.32 1309.99 1170.64 1306.28C1192.92 1303.45 1223.74 1306.91 1247.84 1325.45" stroke="#D6DE23" stroke-width="4"/>
</g>
<mask id="mask14_234_2333" style="mask-type:luminance" maskUnits="userSpaceOnUse" x="-50" y="-420" width="1080" height="1920">
<path d="M1030 1500L1030 -420L-50 -420L-50.0001 1500L1030 1500Z" fill="white"/>
</mask>
<g mask="url(#mask14_234_2333)">
<path fill-rule="evenodd" clip-rule="evenodd" d="M274.946 586.93C290.72 570.59 309.95 561.792 331.694 557.235C356.832 551.988 357.115 551.893 355.198 527.415C352.465 492.788 360.32 459.669 369.653 426.927C374.68 409.267 379.174 391.545 381.845 373.414C383.133 364.773 380.148 356.415 377.257 348.308C372.983 336.336 362.143 336.902 353.816 339.29C333.957 345.04 314.664 349.251 293.925 343.877C285.409 341.678 282.298 347.711 282.927 356.164C284.278 374.483 285.032 392.833 286.163 411.153C287.326 430.226 282.644 448.105 277.02 466.236C266.713 499.481 252.73 531.72 248.457 566.693C247.011 578.445 243.304 592.11 253.139 602.83C262.974 613.55 268.787 593.31 274.946 586.93Z" stroke="#D6DE23" stroke-width="4"/>
</g>
<mask id="mask15_234_2333" style="mask-type:luminance" maskUnits="userSpaceOnUse" x="-50" y="-420" width="1080" height="1920">
<path d="M1030 1500L1030 -420L-50 -420L-50.0001 1500L1030 1500Z" fill="white"/>
</mask>
<g mask="url(#mask15_234_2333)">
<path d="M1305.79 1201.42C1295.29 1201.2 1285.36 1205.04 1274.3 1203.44C1249.95 1199.92 1237.95 1186.75 1236.6 1160.58C1235.53 1140.15 1239.39 1120.48 1244.36 1100.84C1247.12 1089.91 1246.68 1078.88 1243.04 1067.85C1237.29 1050.44 1227.04 1039.95 1209.95 1041.58C1167.94 1045.6 1133.12 1031.37 1101.29 1005.29C1090.23 996.24 1077.28 989.83 1062.26 987.41C1047.62 985.02 1035.59 987.5 1024.46 997.15C1006.68 1012.58 992.349 1031.18 977.581 1049.21C956.119 1075.39 927.713 1084.66 895.663 1086.7C873.227 1088.15 851.326 1085.04 829.55 1079.35C826.219 1078.47 822.103 1076.49 816.95 1078.47C805.229 1082.96 802.275 1089.25 810.885 1097.67C823.36 1109.89 839.385 1117.21 853.525 1127.17C891.609 1153.98 912.662 1191.15 925.545 1234.42C936.575 1271.56 943.959 1309.45 950.809 1347.51C954.58 1368.43 966.552 1383.42 984.997 1395.05C1007.12 1408.97 1032.22 1419.09 1048.19 1441.74C1060.63 1459.4 1070.12 1478 1071.66 1499.94" stroke="#D6DE23" stroke-width="4"/>
</g>
<mask id="mask16_234_2333" style="mask-type:luminance" maskUnits="userSpaceOnUse" x="-50" y="-420" width="1080" height="1920">
<path d="M1030 1500L1030 -420L-50 -420L-50.0001 1500L1030 1500Z" fill="white"/>
</mask>
<g mask="url(#mask16_234_2333)">
<path d="M-133.36 235.187C-127.61 234.433 -121.95 235.439 -116.01 233.836C-87.6701 226.201 -64.1601 235.407 -43.6501 255.455C-36.2601 262.682 -30.3901 271.355 -20.3601 276.288C4.8999 288.668 45.5619 277.105 58.1939 252.407C63.2529 242.509 63.4419 231.291 59.7019 221.11C47.7929 188.651 24.7299 164.299 0.349871 140.763C-16.9101 124.141 -38.4601 115.625 -59.6101 106.639C-84.6501 95.9859 -93.8901 76.0329 -95.3701 51.3669C-96.3101 35.7499 -95.3701 19.8809 -93.9201 4.26495C-91.0001 -27.6291 -100.46 -51.5421 -133.36 -61.7221" stroke="#D6DE23" stroke-width="4"/>
</g>
<mask id="mask17_234_2333" style="mask-type:luminance" maskUnits="userSpaceOnUse" x="-50" y="-420" width="1080" height="1920">
<path d="M1030 1500L1030 -420L-50 -420L-50.0001 1500L1030 1500Z" fill="white"/>
</mask>
<g mask="url(#mask17_234_2333)">
<path fill-rule="evenodd" clip-rule="evenodd" d="M630.552 706.68C639.476 689.15 653.836 678.81 674.135 674.66C700.436 669.29 704.866 653.86 688.369 632.68C676.869 617.88 672.533 600.88 672.627 582.4C672.721 565.813 668.605 551.296 652.265 543.095C646.641 540.267 641.487 539.45 634.889 541.335C597.465 552.05 559.129 555.821 520.26 556.01C511.87 556.041 502.569 558.241 495.311 562.326C477.211 572.412 475.892 590.79 492.137 608.99C510.865 629.98 531.509 649.3 549.86 670.61C563.528 686.44 577.103 701.97 593.914 714.66C598.973 718.49 602.837 724.77 611.353 722.23C619.869 719.69 626.09 715.45 630.552 706.68Z" stroke="#D6DE23" stroke-width="4"/>
</g>
<mask id="mask18_234_2333" style="mask-type:luminance" maskUnits="userSpaceOnUse" x="-50" y="-420" width="1080" height="1920">
<path d="M1030 1500L1030 -420L-50 -420L-50.0001 1500L1030 1500Z" fill="white"/>
</mask>
<g mask="url(#mask18_234_2333)">
<path fill-rule="evenodd" clip-rule="evenodd" d="M122.673 1157.37C135.085 1145.15 148.251 1134.81 166.727 1135.56C177.222 1136 187.686 1137.64 198.149 1138.58C205.471 1139.24 212.792 1139.93 220.145 1140.12C235.73 1140.5 241.229 1135.91 238.747 1118.22C237.05 1106.15 236.202 1094.18 235.699 1082.05C234.976 1064.67 226.838 1053.49 207.545 1052.45C182.312 1051.1 159.343 1045.66 138.195 1030.55C121.196 1018.42 105.925 1022.57 94.8331 1042.96C79.7501 1070.74 62.6561 1096.66 41.2891 1119.98C37.4551 1124.16 36.8581 1131.26 34.7531 1137.04C42.5141 1175.72 99.2321 1180.37 122.673 1157.37Z" stroke="#D6DE23" stroke-width="4"/>
</g>
<mask id="mask19_234_2333" style="mask-type:luminance" maskUnits="userSpaceOnUse" x="-50" y="-420" width="1080" height="1920">
<path d="M1030 1500L1030 -420L-50 -420L-50.0001 1500L1030 1500Z" fill="white"/>
</mask>
<g mask="url(#mask19_234_2333)">
<path d="M-133.36 1066.31C-113.47 1073.35 -92.8503 1077.9 -72.0503 1080.17C-29.2903 1084.82 8.13975 1075.89 31.7678 1034.98C41.1948 1018.67 52.6638 1003.53 63.0018 987.72C83.9918 955.64 99.7027 948.98 136.876 956.3C159.217 960.7 181.464 964.75 204.371 966.35C240.444 965 240.884 918.12 262.502 918.12C301.812 918.12 302.817 956.71 329.935 985.18L384.094 1066.99C389.986 1074.24 395.458 1076.52 401.02 1080.99M401.138 1080.83C428.475 1102.73 450.785 1158.56 451.319 1188.86C451.822 1216.95 454.619 1244.38 474.226 1267.79C482.365 1277.5 483.433 1291.98 482.427 1305.12C478.814 1351.91 505.271 1370.76 542.381 1380C569.027 1386.63 589.609 1374.22 584.393 1342.89C579.302 1312.25 590.677 1289.44 614.715 1272.44C623.325 1266.34 634.354 1263.64 644.347 1259.59C659.241 1253.55 665.745 1241.68 667.913 1226.56C671.15 1204.03 676.775 1183.26 692.486 1164.82C705.463 1149.58 706.186 1132.17 686.453 1116.96C670.27 1104.49 659.964 1087.64 647.866 1072.28C639.476 1061.63 630.992 1051.1 620.56 1042.99C593.945 1022.32 564.471 1021.37 540.496 1052.07C524.596 1072.44 508.257 1093.87 477.808 1089.66C462.757 1087.55 415.026 1087.42 401.138 1080.83Z" stroke="#D6DE23" stroke-width="4"/>
</g>
<mask id="mask20_234_2333" style="mask-type:luminance" maskUnits="userSpaceOnUse" x="-50" y="-420" width="1080" height="1920">
<path d="M1030 1500L1030 -420L-50 -420L-50.0001 1500L1030 1500Z" fill="white"/>
</mask>
<g mask="url(#mask20_234_2333)">
<path d="M-133.36 426.864C-106.52 422.873 -80.41 425.89 -54.77 434.657C-35.51 441.255 -16.37 448.671 3.43004 453.259C36.638 460.988 58.194 449.551 59.105 411.121C59.922 377.122 53.544 361.757 17.47 348.371C8.79996 345.166 -0.16 342.149 -9.24 340.609C-28.75 337.31 -45.28 328.575 -61.21 317.074C-82.48 301.709 -107.21 294.921 -133.32 293.287" stroke="#D6DE23" stroke-width="4"/>
</g>
<mask id="mask21_234_2333" style="mask-type:luminance" maskUnits="userSpaceOnUse" x="-50" y="-420" width="1080" height="1920">
<path d="M1030 1500L1030 -420L-50 -420L-50.0001 1500L1030 1500Z" fill="white"/>
</mask>
<g mask="url(#mask21_234_2333)">
<path d="M-133.36 1199.85C-130.75 1199.32 -128.17 1199.35 -125.41 1198.57C-84.1803 1186.91 -51.0902 1162.15 -20.2702 1133.84C22.3998 1094.65 53.9518 1046.39 88.1708 1000.32C98.5088 986.4 109.978 981.28 125.784 988.04C168.235 1006.2 212.761 1008.59 257.883 1008.24C263.791 1008.18 270.012 1006.92 275.165 1011.35C275.165 1011.35 288.457 1020.34 267.31 1041.2C257.443 1055.12 258.009 1070.27 258.826 1086.8C259.988 1110.55 266.901 1128.84 287.64 1141.94C308.19 1154.92 332.04 1158.78 353.816 1168.27C384.264 1181.53 392.748 1197.56 387.029 1229.8C383.635 1248.9 375.874 1266.06 367.736 1283.09C348.097 1324.1 325.63 1363.47 320.005 1410.32C316.297 1441.08 318.874 1470.02 327.044 1499.18" stroke="#D6DE23" stroke-width="4"/>
</g>
<mask id="mask22_234_2333" style="mask-type:luminance" maskUnits="userSpaceOnUse" x="-50" y="-420" width="1080" height="1920">
<path d="M1030 1500L1030 -420L-50 -420L-50.0001 1500L1030 1500Z" fill="white"/>
</mask>
<g mask="url(#mask22_234_2333)">
<path fill-rule="evenodd" clip-rule="evenodd" d="M554.667 180.135C563.057 165.618 568.525 149.813 570.441 133.065C573.364 107.298 562.711 86.623 545.366 68.649C525.287 47.879 503.103 29.025 485.727 5.77299C465.931 -20.748 460.495 -52.704 452.608 -83.718C449.34 -96.57 447.171 -109.736 440.196 -121.488C430.36 -138.11 423.793 -139.398 411.947 -124.473C398.75 -107.85 393.314 -87.174 385.238 -67.975C372.166 -36.993 360.917 -5.25602 339.644 21.578C317.617 49.387 290.123 57.148 257.915 48.099C236.767 42.16 230.828 45.836 234.599 67.046C238.621 89.765 237.71 111.132 230.012 133.222C221.842 156.726 235.196 178.156 259.423 186.577C283.901 195.061 309.699 196.161 334.868 196.915C375.686 198.172 412.418 210.741 447.926 228.997C459.898 235.156 474.163 238.801 487.235 241.472C522.459 235.03 538.768 207.63 554.667 180.135Z" stroke="#D6DE23" stroke-width="4"/>
</g>
<mask id="mask23_234_2333" style="mask-type:luminance" maskUnits="userSpaceOnUse" x="-50" y="-420" width="1080" height="1920">
<path d="M1030 1500L1030 -420L-50 -420L-50.0001 1500L1030 1500Z" fill="white"/>
</mask>
<g mask="url(#mask23_234_2333)">
<path fill-rule="evenodd" clip-rule="evenodd" d="M789.047 962.46C813.21 983.76 840.988 998.47 873.698 995.07C906.315 991.71 931.61 974.08 945.687 943.6C948.955 936.53 953.606 926.54 941.288 920.19C910.608 938.408 861.277 948.532 793.293 950.562C789.549 950.674 786.605 953.8 786.717 957.543C786.773 959.436 787.618 961.218 789.047 962.46Z" stroke="#D6DE23" stroke-width="4"/>
</g>
<mask id="mask24_234_2333" style="mask-type:luminance" maskUnits="userSpaceOnUse" x="-50" y="-420" width="1080" height="1920">
<path d="M1030 1500L1030 -420L-50 -420L-50.0001 1500L1030 1500Z" fill="white"/>
</mask>
<g mask="url(#mask24_234_2333)">
<path fill-rule="evenodd" clip-rule="evenodd" d="M397.493 816.6C411.57 845.5 428.726 872.21 456.064 889.93C467.659 897.44 482.019 900.49 496.662 899.93C505.334 899.58 512.687 897.04 515.232 888.68C517.463 881.36 513.567 874.38 507.565 870.04C497.479 862.72 487.172 855.43 476.143 849.68C457.604 839.94 442.144 826.18 426.087 813.2C419.268 807.7 411.696 804.25 403.966 800.79C396.236 797.33 393.91 809.21 397.493 816.6Z" stroke="#D6DE23" stroke-width="4"/>
</g>
<mask id="mask25_234_2333" style="mask-type:luminance" maskUnits="userSpaceOnUse" x="-50" y="-420" width="1080" height="1920">
<path d="M1030 1500L1030 -420L-50 -420L-50.0001 1500L1030 1500Z" fill="white"/>
</mask>
<g mask="url(#mask25_234_2333)">
<path fill-rule="evenodd" clip-rule="evenodd" d="M880.014 43.511C880.014 49.5 880.988 57.588 882.717 64.061C887.336 81.375 892.583 87.188 909.866 85.774C929.913 84.14 948.924 78.83 964.886 65.538C976.292 56.049 978.115 45.522 967.84 35.813C951.657 20.541 935.004 5.67901 917.564 -8.147C902.544 -20.025 892.426 -15.28 886.205 4.202C882.088 17.054 882.748 30.534 880.014 43.511Z" stroke="#D6DE23" stroke-width="4"/>
</g>
<mask id="mask26_234_2333" style="mask-type:luminance" maskUnits="userSpaceOnUse" x="-50" y="-420" width="1080" height="1920">
<path d="M1030 1500L1030 -420L-50 -420L-50.0001 1500L1030 1500Z" fill="white"/>
</mask>
<g mask="url(#mask26_234_2333)">
<path fill-rule="evenodd" clip-rule="evenodd" d="M332.857 480.156C339.707 457.029 346.777 433.84 349.291 409.613C349.479 407.791 350.422 405.465 350.516 403.297C351.051 390.571 344.829 378.945 336.408 378.285C321.765 377.122 320.759 389.691 319.502 398.647C315.386 427.838 312.652 457.218 309.824 486.598C309.07 494.422 305.959 512.176 317.554 506.991C329.149 501.806 329.997 489.771 332.857 480.156Z" stroke="#D6DE23" stroke-width="4"/>
</g>
<mask id="mask27_234_2333" style="mask-type:luminance" maskUnits="userSpaceOnUse" x="-50" y="-420" width="1080" height="1920">
<path d="M1030 1500L1030 -420L-50 -420L-50.0001 1500L1030 1500Z" fill="white"/>
</mask>
<g mask="url(#mask27_234_2333)">
<path fill-rule="evenodd" clip-rule="evenodd" d="M83.4581 128.351C96.9071 119.93 93.6071 105.35 93.8591 93.7869C94.2991 71.9479 98.0061 51.3039 105.265 30.8789C107.15 25.5999 108.627 18.4989 106.585 13.8479C102.343 4.13892 93.2621 1.62492 83.4891 5.89891C62.8761 14.9169 41.415 18.5929 19.04 18.4989C8.58003 18.4669 -4.86994 10.3289 -10.6199 26.2919C-15.4599 39.7399 -4.17996 46.4959 3.36004 54.5089C23.69 76.0649 47.8881 93.7549 66.3011 117.291C70.1351 122.161 76.1051 128.728 83.4581 128.351Z" stroke="#D6DE23" stroke-width="4"/>
</g>
<mask id="mask28_234_2333" style="mask-type:luminance" maskUnits="userSpaceOnUse" x="-50" y="-420" width="1080" height="1920">
<path d="M1030 1500L1030 -420L-50 -420L-50.0001 1500L1030 1500Z" fill="white"/>
</mask>
<g mask="url(#mask28_234_2333)">
<path fill-rule="evenodd" clip-rule="evenodd" d="M143.255 1066.03C135.902 1063.86 128.517 1064.33 122.956 1066.78C108.344 1073.22 106.648 1090.41 118.054 1102.44C133.388 1118.66 177.788 1124.06 196.578 1111.81C200.946 1108.95 203.492 1102.95 204.434 1097.73C191.048 1073.54 165.816 1072.66 143.255 1066.03Z" stroke="#D6DE23" stroke-width="4"/>
</g>
<mask id="mask29_234_2333" style="mask-type:luminance" maskUnits="userSpaceOnUse" x="-50" y="-420" width="1080" height="1920">
<path d="M1030 1500L1030 -420L-50 -420L-50.0001 1500L1030 1500Z" fill="white"/>
</mask>
<g mask="url(#mask29_234_2333)">
<path d="M-132.57 851.07C-83.6498 871.05 -33.2098 877.77 19.0102 868.25C26.1402 866.97 34.9412 863.54 38.8692 870.26C42.0742 875.79 39.2152 883.59 35.0042 890.5C9.9602 931.7 -24.4498 961.73 -68.9998 979.74C-90.8398 988.57 -112.59 986.28 -133.36 975.15" stroke="#D6DE23" stroke-width="4"/>
</g>
<mask id="mask30_234_2333" style="mask-type:luminance" maskUnits="userSpaceOnUse" x="-50" y="-420" width="1080" height="1920">
<path d="M1030 1500L1030 -420L-50 -420L-50.0001 1500L1030 1500Z" fill="white"/>
</mask>
<g mask="url(#mask30_234_2333)">
<path fill-rule="evenodd" clip-rule="evenodd" d="M174.582 467.713C199.877 457.375 206.79 424.79 188.628 400.218C185.14 395.504 180.584 391.482 176.091 387.68C172.634 384.758 167.324 382.716 163.805 384.789C159.248 387.46 154.629 391.325 155.603 398.615C158.086 416.903 160.222 435.222 161.888 453.604C162.579 461.083 167.795 466.236 174.582 467.713Z" stroke="#D6DE23" stroke-width="4"/>
</g>
<mask id="mask31_234_2333" style="mask-type:luminance" maskUnits="userSpaceOnUse" x="-50" y="-420" width="1080" height="1920">
<path d="M1030 1500L1030 -420L-50 -420L-50.0001 1500L1030 1500Z" fill="white"/>
</mask>
<g mask="url(#mask31_234_2333)">
<path fill-rule="evenodd" clip-rule="evenodd" d="M776.069 791.46C770.947 778.39 749.175 740.46 740.094 729.96C734.061 722.99 732.019 715.45 740 708C745.373 703 750.966 702.5 755.648 708.09C771.234 726.7 800.327 770.28 821.632 782.35C834.138 789.42 830.304 804 815.567 810.16C812.079 811.6 808.246 812.32 804.601 813.36C791.78 810.75 781.16 804.34 776.069 791.46Z" stroke="#D6DE23" stroke-width="4"/>
</g>
<mask id="mask32_234_2333" style="mask-type:luminance" maskUnits="userSpaceOnUse" x="-50" y="-420" width="1080" height="1920">
<path d="M1030 1500L1030 -420L-50 -420L-50.0001 1500L1030 1500Z" fill="white"/>
</mask>
<g mask="url(#mask32_234_2333)">
<path d="M1052.84 1499.94C1049.29 1468.67 1025.59 1456.13 1000.93 1445.11C983.111 1437.12 963.472 1433.6 948.986 1418.43C928.97 1397.44 926.142 1370.76 922.623 1344.4C918.318 1312 914.453 1279.73 903.738 1248.53C887.116 1200.2 854.782 1165.32 812.456 1138.64C774.687 1114.82 737.168 1090.85 707.097 1057.01C697.325 1046.04 690.255 1033.35 683.97 1020.62C652.705 957.49 565.979 959.19 521.862 990.96C505.774 1002.55 490.849 1016.32 471.524 1022.16C440.164 1031.65 413.77 1021.37 394.602 987.75C394.602 987.75 327.829 851.66 297.193 846.35C271.332 840.85 251.127 851.79 232.745 868.32C224.481 875.76 216.374 883.49 207.545 890.22C188.817 904.55 168.015 903.04 146.302 898.36C105.328 889.5 68.4691 896.72 39.5291 929.62C27.2701 943.57 14.2001 957.05 3.77014 972.29C-3.32986 982.66 -12.1298 991.21 -20.4598 1000.04C-48.9598 1030.14 -86.2198 1036.55 -133.33 1012.86" stroke="#D6DE23" stroke-width="4"/>
</g>
<mask id="mask33_234_2333" style="mask-type:luminance" maskUnits="userSpaceOnUse" x="-50" y="-420" width="1080" height="1920">
<path d="M1030 1500L1030 -420L-50 -420L-50.0001 1500L1030 1500Z" fill="white"/>
</mask>
<g mask="url(#mask33_234_2333)">
<path fill-rule="evenodd" clip-rule="evenodd" d="M142.94 757.08C134.896 751.02 127.512 758.28 122.924 764.75C113.466 778.1 114.786 825.24 125.469 837.27C137.818 851.22 152.87 853.48 168.204 850.47C183.978 847.36 202.413 832.483 199.721 818.07C197.029 803.657 165.344 773.99 142.94 757.08Z" stroke="#D6DE23" stroke-width="4"/>
</g>
<mask id="mask34_234_2333" style="mask-type:luminance" maskUnits="userSpaceOnUse" x="-50" y="-420" width="1080" height="1920">
<path d="M1030 1500L1030 -420L-50 -420L-50.0001 1500L1030 1500Z" fill="white"/>
</mask>
<g mask="url(#mask34_234_2333)">
<path fill-rule="evenodd" clip-rule="evenodd" d="M152.43 247.882C146.334 240.089 137.158 238.738 129.146 243.263C105.956 256.366 93.5759 278.016 86.9769 302.84C85.0599 310.036 91.6269 313.618 99.1059 315.503C133.356 324.144 160.442 300.546 160.442 263.468C157.834 258.22 155.949 252.407 152.43 247.882Z" stroke="#D6DE23" stroke-width="4"/>
</g>
<mask id="mask35_234_2333" style="mask-type:luminance" maskUnits="userSpaceOnUse" x="-50" y="-420" width="1080" height="1920">
<path d="M1030 1500L1030 -420L-50 -420L-50.0001 1500L1030 1500Z" fill="white"/>
</mask>
<g mask="url(#mask35_234_2333)">
<path fill-rule="evenodd" clip-rule="evenodd" d="M204.434 370.304C179.579 347.523 143.914 352.299 125.941 381.364C109.318 408.199 108.596 437.673 113.372 467.713C115.446 480.722 122.453 487.226 136.876 487.069C145.454 486.975 154.064 489.143 162.391 495.522C184.166 512.239 198.683 508.216 213.766 483.361C224.795 465.168 232.211 444.052 231.143 422.151C228.786 401.506 219.736 384.318 204.434 370.304Z" stroke="#D6DE23" stroke-width="4"/>
</g>
<mask id="mask36_234_2333" style="mask-type:luminance" maskUnits="userSpaceOnUse" x="-50" y="-420" width="1080" height="1920">
<path d="M1030 1500L1030 -420L-50 -420L-50.0001 1500L1030 1500Z" fill="white"/>
</mask>
<g mask="url(#mask36_234_2333)">
<path d="M1059.12 68.649C1053.78 41.343 1032.51 29.78 1010.51 18.185C985.091 4.79903 958.162 -6.98398 939.874 -30.457C928.562 -44.974 919.01 -60.874 908.232 -75.862C896.291 -92.453 881.397 -100.152 870.682 -94.59C854.908 -86.42 856.196 -71.683 857.987 -57.04C860.438 -37.213 856.73 -18.014 851.797 1.09102C841.93 39.081 841.396 76.442 859.527 112.672C877.469 148.556 889.347 154.621 925.451 140.575C945.31 132.845 964.289 130.017 985.374 134.228C1000.36 137.213 1016.54 135.484 1030.72 129.609C1057.05 118.642 1061.1 95.547 1059.12 70.252" stroke="#D6DE23" stroke-width="4"/>
</g>
<mask id="mask37_234_2333" style="mask-type:luminance" maskUnits="userSpaceOnUse" x="-50" y="-420" width="1080" height="1920">
<path d="M1030 1500L1030 -420L-50 -420L-50.0001 1500L1030 1500Z" fill="white"/>
</mask>
<g mask="url(#mask37_234_2333)">
<path d="M1186.38 444.146C1184.81 397.013 1155.59 360.72 1137.46 320.122C1133.66 311.575 1126.43 304.505 1117.19 301.331C1106.79 297.749 1097.71 299.446 1092.02 310.538C1088.38 317.64 1083.79 324.238 1079.55 331.026C1064.81 354.53 1047.81 361.191 1021.48 352.896C1010.64 349.471 999.891 346.517 988.453 346.737C969.254 347.145 956.245 360.437 955.397 379.73C953.888 413.384 969.285 442.355 980.723 472.395C989.584 495.647 998.791 518.837 1009.03 541.493C1025.5 577.911 1020.28 615.74 1016.23 653.04C1013.4 679.09 1017.83 702.56 1029.33 725.34C1035.52 737.63 1044.45 747.34 1059.15 747.124C1074.27 746.87 1082.59 736.41 1089.1 723.84C1100.94 700.9 1106 675.67 1113.99 651.47C1129.85 603.36 1153.33 558.272 1169.6 510.29C1176.83 489.017 1182.8 467.776 1186.41 445.717" stroke="#D6DE23" stroke-width="4"/>
</g>
<mask id="mask38_234_2333" style="mask-type:luminance" maskUnits="userSpaceOnUse" x="-50" y="-420" width="1080" height="1920">
<path d="M1030 1500L1030 -420L-50 -420L-50.0001 1500L1030 1500Z" fill="white"/>
</mask>
<g mask="url(#mask38_234_2333)">
<path d="M1208.38 437.862C1197.29 385.449 1181.98 334.419 1153.17 288.763C1137.21 263.468 1117.25 257.152 1095.23 266.547C1082.37 272.015 1073.51 282.07 1067.23 293.476C1049.32 326.03 1022.07 332.848 988.39 324.804C978.492 322.447 968.594 319.525 958.539 318.677C936.983 316.886 920.926 334.545 924.068 356.164C929.347 392.551 941.634 426.958 953.7 461.491C967.997 502.466 987.322 541.775 993.418 585.52C995.868 603.08 995.9 620.77 992.475 637.27C984.305 676.8 995.209 712.15 1010.29 747.4C1018.68 767.01 1023.58 788.06 1036.91 805.63C1050.51 823.57 1059.44 824.29 1074.96 808.83C1086.27 797.55 1091.46 783.48 1096.61 769.3C1103.02 751.74 1108.96 733.92 1113.89 715.89C1121.15 689.33 1130.39 663.41 1145.78 640.72C1164.17 613.7 1174.06 584.32 1180.51 552.616C1186.04 525.436 1195.24 498.947 1203.82 472.458C1207.37 461.491 1208.31 450.619 1208.31 439.401" stroke="#D6DE23" stroke-width="4"/>
</g>
<mask id="mask39_234_2333" style="mask-type:luminance" maskUnits="userSpaceOnUse" x="-50" y="-420" width="1080" height="1920">
<path d="M1030 1500L1030 -420L-50 -420L-50.0001 1500L1030 1500Z" fill="white"/>
</mask>
<g mask="url(#mask39_234_2333)">
<path fill-rule="evenodd" clip-rule="evenodd" d="M1005.7 239.901C989.804 233.396 976.104 222.87 960.33 215.926C947.855 210.458 939.277 213.443 932.018 222.744C925.514 231.071 928.059 244.614 936.637 252.407C939.402 254.921 942.576 257.529 946.064 258.597C964.792 264.41 983.645 269.061 1001.27 278.676C1014.12 285.683 1020.13 278.582 1022.99 261.897C1021.01 251.59 1015.66 243.954 1005.7 239.901Z" stroke="#D6DE23" stroke-width="4"/>
</g>
<mask id="mask40_234_2333" style="mask-type:luminance" maskUnits="userSpaceOnUse" x="-50" y="-420" width="1080" height="1920">
<path d="M1030 1500L1030 -420L-50 -420L-50.0001 1500L1030 1500Z" fill="white"/>
</mask>
<g mask="url(#mask40_234_2333)">
<path fill-rule="evenodd" clip-rule="evenodd" d="M818.772 78.076C807.9 50.455 812.991 23.526 821.569 -3.71704C826.565 -19.491 831.844 -35.328 833.132 -52.296C834.798 -74.197 826.094 -85.446 804.601 -85.258C774.372 -84.943 743.987 -83.844 715.079 -94.842C673.161 -110.804 639.979 -135.031 629.955 -182.667C623.671 -212.487 604.88 -230.052 573.709 -234.891C555.296 -237.75 539.239 -247.711 525.068 -259.84C520.197 -263.988 514.698 -267.884 509.168 -268.67C500.464 -269.927 496.473 -263.8 494.934 -255.033C490.911 -232.157 495.185 -209.785 498.453 -187.475C505.146 -141.944 515.327 -97.355 539.051 -57.009C546.089 -45.037 555.484 -36.333 567.142 -28.383C596.459 -8.39902 625.242 12.811 642.776 45.114C667.442 90.613 660.089 136.27 642.776 181.769C632.501 208.667 615.627 232.077 601.989 257.215C599.413 261.959 596.742 266.641 594.134 271.355C582.57 292.408 591.337 313.932 620.874 316.697C633.852 317.922 647.175 318.174 660.121 316.697C722.557 309.533 753.508 344.443 772.079 389.031C782.228 413.447 785.779 440.281 800.107 462.968C803.847 468.876 805.795 475.914 813.996 479.056C826.314 483.77 834.578 479.653 834.421 466.173C834.169 443.675 828.45 421.742 823.014 400.312C805.481 331.057 808.152 264.096 839.228 199.083C844.444 188.148 845.67 174.856 845.45 162.916C841.051 133.222 829.676 105.727 818.772 78.076Z" stroke="#D6DE23" stroke-width="4"/>
</g>
<mask id="mask41_234_2333" style="mask-type:luminance" maskUnits="userSpaceOnUse" x="-50" y="-420" width="1080" height="1920">
<path d="M1030 1500L1030 -420L-50 -420L-50.0001 1500L1030 1500Z" fill="white"/>
</mask>
<g mask="url(#mask41_234_2333)">
<path d="M1239.8 450.431C1238.04 435.128 1228.08 423.282 1222.45 409.613C1213.94 388.906 1209.95 367.161 1211.87 345.197C1214.82 311.764 1204.26 286.092 1175.45 268.055C1164.01 260.891 1152.48 253.444 1142.64 244.331C1133.31 235.659 1124.07 227.96 1110.97 229.123C1096.26 230.411 1083.91 237.921 1073.32 247.851C1063.05 257.466 1052.74 267.144 1043.54 277.733C1017.39 307.742 997.597 312.989 955.553 296.21C949.772 293.916 944.273 290.365 938.146 288.7C911.028 281.253 903.361 297.467 902.104 315.346C900.03 345.197 908.326 373.352 915.899 401.82C928.53 449.299 946.347 495.05 962.026 541.493C975.287 580.77 979.309 619.45 966.583 659.48C959.167 682.8 963.095 705.89 974.501 726.88C995.208 764.91 1006.55 804.43 999.45 847.99C999.199 849.53 999.419 851.13 999.419 852.7C999.45 877.68 1005.95 885.32 1030.81 883.68C1046.65 882.65 1061.89 883.9 1076.31 889.12C1101.57 898.26 1118.57 885.32 1118.82 857.41C1119.17 819.01 1117.41 780.68 1126.37 742.66C1135.38 704.35 1149.37 668.28 1175.92 639.53C1195.75 618.04 1201.72 594.06 1202.16 566.788C1202.63 536.685 1209.89 508.719 1227.04 483.393C1233.33 474.092 1237.95 463.502 1239.8 452.096" stroke="#D6DE23" stroke-width="4"/>
</g>
<mask id="mask42_234_2333" style="mask-type:luminance" maskUnits="userSpaceOnUse" x="-50" y="-420" width="1080" height="1920">
<path d="M1030 1500L1030 -420L-50 -420L-50.0001 1500L1030 1500Z" fill="white"/>
</mask>
<g mask="url(#mask42_234_2333)">
<path fill-rule="evenodd" clip-rule="evenodd" d="M41.069 561.729C27.93 560.032 14.8 559.843 1.76001 560.629C-22.97 562.074 -46.03 555.727 -68.97 547.903C-74.16 546.143 -79.3401 544.006 -84.6801 543.284C-102.47 540.896 -117.99 552.773 -116.39 569.898C-115.6 578.351 -116.01 587.37 -112.68 594.88C-99.7001 624.01 -93.36 654.39 -92.41 686.13C-92.26 691.41 -90.75 696.69 -89.33 701.84C-85.56 715.54 -77.9599 725.28 -62.6899 727.04C-52.3499 728.24 -36.61 722.71 -29.88 706.49C-25.26 695.37 -21.18 683.74 -18.95 671.96C-13.23 641.82 4.14997 621.49 29.66 605.5C40.566 598.65 55.02 590.918 56.749 574.549C55.335 565.593 49.679 562.828 41.069 561.729Z" stroke="#D6DE23" stroke-width="4"/>
</g>
<mask id="mask43_234_2333" style="mask-type:luminance" maskUnits="userSpaceOnUse" x="-50" y="-420" width="1080" height="1920">
<path d="M1030 1500L1030 -420L-50 -420L-50.0001 1500L1030 1500Z" fill="white"/>
</mask>
<g mask="url(#mask43_234_2333)">
<path fill-rule="evenodd" clip-rule="evenodd" d="M8.01016 378.348C-19.5798 371.938 -44.9698 359.903 -70.3498 347.994C-75.1298 345.763 -80.0598 345.166 -84.7498 343.972C-92.4098 341.992 -100.39 344.035 -104.98 351.513C-109.98 359.62 -110.01 368.45 -104.98 376.557C-95.8098 391.451 -80.6298 399.495 -65.6098 406.031C-48.0798 413.635 -29.4398 419.574 -10.7198 423.313C8.26017 427.084 29.1002 417.06 26.9002 393.87C25.5102 382.747 16.3102 380.265 8.01016 378.348Z" stroke="#D6DE23" stroke-width="4"/>
</g>
<mask id="mask44_234_2333" style="mask-type:luminance" maskUnits="userSpaceOnUse" x="-50" y="-420" width="1080" height="1920">
<path d="M1030 1500L1030 -420L-50 -420L-50.0001 1500L1030 1500Z" fill="white"/>
</mask>
<g mask="url(#mask44_234_2333)">
<path fill-rule="evenodd" clip-rule="evenodd" d="M11.0298 205.525C-11.2802 188.525 -31.0802 169.075 -48.4802 147.142C-54.2402 139.852 -61.8403 135.296 -70.4203 138.093C-81.5103 141.706 -87.0703 150.819 -87.9203 162.885C-88.7103 173.6 -87.2602 184.409 -81.2302 192.516C-61.5902 218.879 -35.2602 235.973 -2.9502 242.886C10.5898 245.777 19.5198 237.859 23.7598 224.19C22.1198 216.177 16.9398 210.018 11.0298 205.525Z" stroke="#D6DE23" stroke-width="4"/>
</g>
<mask id="mask45_234_2333" style="mask-type:luminance" maskUnits="userSpaceOnUse" x="-50" y="-420" width="1080" height="1920">
<path d="M1030 1500L1030 -420L-50 -420L-50.0001 1500L1030 1500Z" fill="white"/>
</mask>
<g mask="url(#mask45_234_2333)">
<path fill-rule="evenodd" clip-rule="evenodd" d="M253.075 780.55C217.411 768.24 181.967 755.73 150.921 733.39C145.894 729.78 139.672 727.48 133.702 725.5C111.832 718.24 92.1608 724.46 94.8318 755.23C96.8118 777.95 97.0628 799.5 88.5788 821.4C81.5408 839.6 89.1759 854.62 107.056 863.57C137.85 879.03 179.861 878.5 208.864 853.92C226.712 838.78 246.791 828.38 267.278 818.17C275.448 814.08 284.403 809.5 282.989 797.65C276.045 786.68 263.916 784.29 253.075 780.55Z" stroke="#D6DE23" stroke-width="4"/>
</g>
<mask id="mask46_234_2333" style="mask-type:luminance" maskUnits="userSpaceOnUse" x="-50" y="-420" width="1080" height="1920">
<path d="M1030 1500L1030 -420L-50 -420L-50.0001 1500L1030 1500Z" fill="white"/>
</mask>
<g mask="url(#mask46_234_2333)">
<path fill-rule="evenodd" clip-rule="evenodd" d="M790.555 71.76C785.213 48.382 785.873 25.286 795.017 2.59898C799.102 -7.48702 802.433 -18.108 804.381 -28.792C807.366 -45.257 800.767 -53.553 784.208 -58.674C757.561 -66.907 729.627 -66.561 702.415 -70.615C662.54 -76.522 638.062 -98.204 622.005 -133.837C612.202 -155.55 606.42 -179.399 590.96 -198.41C577.92 -214.435 561.549 -224.459 540.684 -226.721C527.487 -228.167 520.983 -221.756 518.657 -209.407C512.718 -177.828 524.062 -148.825 533.394 -120.042C538.139 -105.399 543.481 -90.097 553.316 -77.496C571.007 -54.778 597.088 -54.181 622.383 -52.39C666.217 -49.279 710.585 -50.85 752.817 -35.108C777.043 -26.089 779.526 -22.633 765.134 -0.606005C719.886 68.586 690.223 145.822 650.725 217.937C643.907 230.348 639.036 243.64 635.014 257.215C630.584 272.077 634.323 279.336 649.154 283.798C655.219 285.62 661.66 286.343 667.976 287.003C691.575 289.517 714.984 292.282 735.629 305.762C739.054 307.993 743.861 308.307 748.103 309.03C775.786 313.775 791.309 308.653 796.022 279.084C801.396 245.463 810.414 213.003 818.615 180.167C820.375 173.128 819.778 163.985 820.312 156.632C813.902 127.095 797.248 101.14 790.555 71.76Z" stroke="#D6DE23" stroke-width="4"/>
</g>
<mask id="mask47_234_2333" style="mask-type:luminance" maskUnits="userSpaceOnUse" x="-50" y="-420" width="1080" height="1920">
<path d="M1030 1500L1030 -420L-50 -420L-50.0001 1500L1030 1500Z" fill="white"/>
</mask>
<g mask="url(#mask47_234_2333)">
<path fill-rule="evenodd" clip-rule="evenodd" d="M773.178 93.787C764.946 77.385 758.096 76.63 746.438 90.613C740.216 98.06 737.545 107.079 733.712 115.72C718.315 150.473 700.373 183.906 680.639 216.46C662.289 246.688 664.834 258 704.175 267.741C718.126 271.198 733.398 269.815 748.04 269.595C759.604 269.438 763.186 259.414 766.8 250.867C777.64 225.227 783.391 198.235 787.35 170.803C787.79 167.661 788.355 162.916 788.889 159.774C785.496 137.338 783.579 114.557 773.178 93.787Z" stroke="#D6DE23" stroke-width="4"/>
</g>
<mask id="mask48_234_2333" style="mask-type:luminance" maskUnits="userSpaceOnUse" x="-50" y="-420" width="1080" height="1920">
<path d="M1030 1500L1030 -420L-50 -420L-50.0001 1500L1030 1500Z" fill="white"/>
</mask>
<g mask="url(#mask48_234_2333)">
<path fill-rule="evenodd" clip-rule="evenodd" d="M485.538 115.908C463.731 97.275 446.826 75.7189 436.519 48.3819C429.795 30.5339 411.538 28.271 401.169 43.763C386.463 65.758 368.395 84.077 349.165 101.862C333.611 116.222 336.282 124.769 356.832 131.431C384.892 140.512 414.649 140.701 443.212 147.205C454.587 149.813 466.119 150.316 477.777 150.536C488.837 150.724 497.071 146.482 499.804 134.636C498.358 125.901 491.477 120.967 485.538 115.908Z" stroke="#D6DE23" stroke-width="4"/>
</g>
<mask id="mask49_234_2333" style="mask-type:luminance" maskUnits="userSpaceOnUse" x="-50" y="-420" width="1080" height="1920">
<path d="M1030 1500L1030 -420L-50 -420L-50.0001 1500L1030 1500Z" fill="white"/>
</mask>
<g mask="url(#mask49_234_2333)">
<path fill-rule="evenodd" clip-rule="evenodd" d="M750.02 135.233C729.721 152.39 722.306 176.616 715.299 200.717C712.848 209.138 710.302 217.748 713.162 227.458C718.032 243.986 727.899 248.259 740.091 236.696C760.735 217.151 768.088 190.724 766.894 162.916C763.626 152.861 764.6 140.292 750.02 135.233Z" stroke="#D6DE23" stroke-width="4"/>
</g>
<mask id="mask50_234_2333" style="mask-type:luminance" maskUnits="userSpaceOnUse" x="-50" y="-420" width="1080" height="1920">
<path d="M1030 1500L1030 -420L-50 -420L-50.0001 1500L1030 1500Z" fill="white"/>
</mask>
<g mask="url(#mask50_234_2333)">
<path fill-rule="evenodd" clip-rule="evenodd" d="M686.673 -29.797C674.638 -31.997 661.535 -31.777 649.06 -28.792C635.611 -25.587 631.809 -20.3391 633.349 -6.76506C636.177 17.9649 667.112 69.9375 688.589 60.6552C710.067 51.373 737.058 11.9818 738.614 -9.90705C740.17 -31.7959 704.898 -26.466 686.673 -29.797Z" stroke="#D6DE23" stroke-width="4"/>
</g>
<mask id="mask51_234_2333" style="mask-type:luminance" maskUnits="userSpaceOnUse" x="-50" y="-420" width="1080" height="1920">
<path d="M1030 1500L1030 -420L-50 -420L-50.0001 1500L1030 1500Z" fill="white"/>
</mask>
<g mask="url(#mask51_234_2333)">
<path fill-rule="evenodd" clip-rule="evenodd" d="M655.502 -9.75C645.509 -0.668995 651.825 9.544 657.041 18.279C666.939 34.776 686.735 41.689 702.258 21.358C705.934 16.519 710.365 9.63799 710.334 2.66199C700.655 -15.751 670.239 -23.104 655.502 -9.75Z" stroke="#D6DE23" stroke-width="4"/>
</g>
<mask id="mask52_234_2333" style="mask-type:luminance" maskUnits="userSpaceOnUse" x="-50" y="-420" width="1080" height="1920">
<path d="M1030 1500L1030 -420L-50 -420L-50.0001 1500L1030 1500Z" fill="white"/>
</mask>
<g mask="url(#mask52_234_2333)">
<path fill-rule="evenodd" clip-rule="evenodd" d="M638.062 400.186C621.251 407.382 604.786 415.489 587.692 421.962C572.044 427.901 555.453 428.938 539.082 425.136C527.581 422.465 516.112 421.962 504.486 422.182C488.837 422.465 478.845 431.986 477.777 447.288C476.928 459.292 483.527 466.142 499.772 469.221C526.481 474.28 552.845 470.384 578.203 462.591C601.801 455.332 625.242 447.728 648.934 440.69C663.451 436.385 680.293 431.358 682.053 411.153C674.386 394.09 660.561 390.54 638.062 400.186Z" stroke="#D6DE23" stroke-width="4"/>
</g>
<mask id="mask53_234_2333" style="mask-type:luminance" maskUnits="userSpaceOnUse" x="-50" y="-420" width="1080" height="1920">
<path d="M1030 1500L1030 -420L-50 -420L-50.0001 1500L1030 1500Z" fill="white"/>
</mask>
<g mask="url(#mask53_234_2333)">
<path fill-rule="evenodd" clip-rule="evenodd" d="M648.966 585.58C644.253 571.721 635.234 565.342 620.812 566.882C601.204 568.987 581.534 571.438 562.68 577.722C536.882 586.33 533.552 596.86 549.169 618.07C563.937 638.12 583.89 654.42 602.084 671.83C608.023 677.52 616.664 675.79 623.922 674.88C636.806 673.25 648.118 667.06 658.518 659.39C666.185 653.73 664.708 643.71 664.771 635.82C659.524 619.07 654.622 602.2 648.966 585.58Z" stroke="#D6DE23" stroke-width="4"/>
</g>
<mask id="mask54_234_2333" style="mask-type:luminance" maskUnits="userSpaceOnUse" x="-50" y="-420" width="1080" height="1920">
<path d="M1030 1500L1030 -420L-50 -420L-50.0001 1500L1030 1500Z" fill="white"/>
</mask>
<g mask="url(#mask54_234_2333)">
<path fill-rule="evenodd" clip-rule="evenodd" d="M629.893 603.02C624.645 593.34 609.562 589.16 601.927 593.4C592.657 598.56 587.881 614.33 592.531 624.82C595.642 631.86 601.015 636.95 606.42 642.33C613.113 648.99 621.44 650.31 628.447 647.86C636.397 645.09 637.088 634.44 636.491 626.4C634.386 618.54 633.663 609.96 629.893 603.02Z" stroke="#D6DE23" stroke-width="4"/>
</g>
<mask id="mask55_234_2333" style="mask-type:luminance" maskUnits="userSpaceOnUse" x="-50" y="-420" width="1080" height="1920">
<path d="M1030 1500L1030 -420L-50 -420L-50.0001 1500L1030 1500Z" fill="white"/>
</mask>
<g mask="url(#mask55_234_2333)">
<path fill-rule="evenodd" clip-rule="evenodd" d="M499.301 73.834C478.468 51.87 464.862 26.3859 452.639 -0.480053C447.737 -11.2581 441.515 -21.1561 432.214 -28.7601C423.919 -35.5471 415.372 -35.5791 407.108 -28.7601C398.435 -21.5961 393.156 -11.9811 388.192 -2.11406C378.765 16.6449 370.155 35.8129 355.355 51.4299C342.126 65.3499 326.604 74.651 308.159 79.773C300.555 81.909 293.359 85.68 286.132 89.074C272.243 95.578 265.299 106.23 265.55 122.036C265.802 138.187 277.491 143.56 289.305 148.651C312.841 158.8 338.042 161.848 363.054 166.373C395.764 172.312 427.815 182.241 460.62 187.457C480.416 190.599 501.752 190.191 518.563 175.36C530.629 164.739 538.202 150.096 535.94 133.065C531.1 108.807 515.169 90.551 499.301 73.834Z" stroke="#D6DE23" stroke-width="4"/>
</g>
<mask id="mask56_234_2333" style="mask-type:luminance" maskUnits="userSpaceOnUse" x="-50" y="-420" width="1080" height="1920">
<path d="M1030 1500L1030 -420L-50 -420L-50.0001 1500L1030 1500Z" fill="white"/>
</mask>
<g mask="url(#mask56_234_2333)">
<path d="M394.947 1138.17C367.107 1075.7 330.155 1055.66 309.636 1053.55C305.331 1053.11 300.869 1053.02 296.847 1054.62C289.62 1057.54 285.503 1065.68 285.346 1073.5C284.969 1093.43 305.394 1107.44 324.656 1112.44C343.918 1117.43 378.042 1127.55 394.947 1138.14C418.043 1152.63 426.621 1183.11 423.416 1210.19C420.211 1237.28 407.548 1262.13 396.424 1287.02C371.601 1342.51 348.002 1371.89 341.938 1432.35C340.807 1443.75 345.646 1484.95 348.882 1495.92" stroke="#D6DE23" stroke-width="4"/>
</g>
</g>
</g>
<defs>
<clipPath id="clip0_234_2333">
<rect width="980" height="1080" fill="white"/>
</clipPath>
<clipPath id="clip1_234_2333">
<rect width="1920" height="1080" fill="white" transform="translate(1030 -420) rotate(90)"/>
</clipPath>
</defs>
</svg>
